<?xml version="1.0" encoding="UTF-8" standalone="no"?>
<!-- Created with Inkscape (http://www.inkscape.org/) -->

<svg
   width="207.19345"
   height="120.1295"
   viewBox="0 0 54.819934 31.784264"
   version="1.1"
   id="svg1655"
   inkscape:version="1.2.2 (b0a84865, 2022-12-01)"
   xml:space="preserve"
   sodipodi:docname="fancy jargon.svg"
   xmlns:inkscape="http://www.inkscape.org/namespaces/inkscape"
   xmlns:sodipodi="http://sodipodi.sourceforge.net/DTD/sodipodi-0.dtd"
   xmlns:xlink="http://www.w3.org/1999/xlink"
   xmlns="http://www.w3.org/2000/svg"
   xmlns:svg="http://www.w3.org/2000/svg"><sodipodi:namedview
     id="namedview1657"
     pagecolor="#161618"
     bordercolor="#b400ff"
     borderopacity="0.24705882"
     inkscape:showpageshadow="false"
     inkscape:pageopacity="1"
     inkscape:pagecheckerboard="0"
     inkscape:deskcolor="#d1d1d1"
     inkscape:document-units="mm"
     showgrid="false"
     borderlayer="false"
     showborder="false"
     inkscape:zoom="1.9758472"
     inkscape:cx="52.635649"
     inkscape:cy="74.904578"
     inkscape:window-width="1512"
     inkscape:window-height="916"
     inkscape:window-x="0"
     inkscape:window-y="38"
     inkscape:window-maximized="0"
     inkscape:current-layer="layer1" /><defs
     id="defs1652"><linearGradient
       inkscape:collect="always"
       id="linearGradient1802"><stop
         style="stop-color:#9f9e3f;stop-opacity:1"
         offset="0"
         id="stop1794" /><stop
         style="stop-color:#5a8c28;stop-opacity:1;"
         offset="0.37973556"
         id="stop1796" /><stop
         style="stop-color:#265b4d;stop-opacity:1"
         offset="0.80144179"
         id="stop1798" /><stop
         style="stop-color:#1c0631;stop-opacity:1"
         offset="1"
         id="stop1800" /></linearGradient><linearGradient
       inkscape:collect="always"
       id="linearGradient1646"><stop
         style="stop-color:#161518;stop-opacity:1;"
         offset="0"
         id="stop1642" /><stop
         style="stop-color:#161518;stop-opacity:0;"
         offset="1"
         id="stop1644" /></linearGradient><marker
       style="overflow:visible"
       id="Arrow1"
       refX="0"
       refY="0"
       orient="auto-start-reverse"
       inkscape:stockid="Arrow1"
       markerWidth="4.0606599"
       markerHeight="6.7071061"
       viewBox="0 0 4.0606602 6.7071068"
       inkscape:isstock="true"
       inkscape:collect="always"
       preserveAspectRatio="xMidYMid"><path
         style="fill:none;stroke:context-stroke;stroke-width:1;stroke-linecap:butt"
         d="M 3,-3 0,0 3,3"
         id="path5057"
         transform="rotate(180,0.125,0)"
         sodipodi:nodetypes="ccc" /></marker><linearGradient
       inkscape:collect="always"
       id="linearGradient24566"><stop
         style="stop-color:#9f9e3f;stop-opacity:1"
         offset="0"
         id="stop24560" /><stop
         style="stop-color:#5a8c28;stop-opacity:1;"
         offset="0.12372678"
         id="stop24568" /><stop
         style="stop-color:#265b4d;stop-opacity:1"
         offset="0.25815436"
         id="stop24562" /><stop
         style="stop-color:#1c0631;stop-opacity:1"
         offset="1"
         id="stop24564" /></linearGradient><linearGradient
       inkscape:collect="always"
       xlink:href="#linearGradient24566"
       id="linearGradient25037"
       x1="109.76031"
       y1="180.77641"
       x2="149.41711"
       y2="180.77641"
       gradientUnits="userSpaceOnUse"
       gradientTransform="rotate(1.8999751,130.86258,257.2414)" /><filter
       inkscape:collect="always"
       style="color-interpolation-filters:sRGB"
       id="filter1603"
       x="-0.014453781"
       y="-0.59893638"
       width="1.0291985"
       height="2.199206"><feGaussianBlur
         inkscape:collect="always"
         stdDeviation="0.23730681"
         id="feGaussianBlur1605" /></filter><linearGradient
       inkscape:collect="always"
       xlink:href="#linearGradient1646"
       id="linearGradient1648"
       x1="112.26524"
       y1="180.87433"
       x2="151.97577"
       y2="180.87433"
       gradientUnits="userSpaceOnUse" /><linearGradient
       inkscape:collect="always"
       xlink:href="#linearGradient1802"
       id="linearGradient1786"
       gradientUnits="userSpaceOnUse"
       gradientTransform="rotate(1.8999751,130.86258,257.2414)"
       x1="109.76031"
       y1="180.77641"
       x2="149.43224"
       y2="180.21631" /></defs><g
     inkscape:label="Layer 1"
     inkscape:groupmode="layer"
     id="layer1"
     transform="translate(-101.9023,-167.53109)"><path
       style="fill:#161518;fill-rule:evenodd;stroke:url(#linearGradient25037);stroke-width:0.25;paint-order:markers fill stroke;filter:url(#filter1603)"
       d="m 112.26938,181.25561 c 0,0 25.42869,0.84355 39.6907,-0.96103"
       id="path1041" /><path
       style="fill:url(#linearGradient1648);fill-rule:evenodd;stroke:url(#linearGradient1786);stroke-width:0.25;paint-order:markers fill stroke;fill-opacity:1"
       d="m 112.26938,181.25561 c 0,0 25.42869,0.84355 39.6907,-0.96103"
       id="path24643" /><path
       style="fill:none;fill-rule:evenodd;stroke:#ffffff;stroke-width:0.25;marker-start:url(#Arrow1);marker-mid:url(#Arrow1);marker-end:url(#Arrow1);paint-order:markers fill stroke"
       d="m 112.3321,167.77037 v 27.7044 h 44.15086"
       id="path24594"
       sodipodi:nodetypes="ccc" /><path
       id="path426"
       style="font-weight:bold;font-size:2.30281px;font-family:'CMU Serif';-inkscape-font-specification:'CMU Serif, Bold';fill:#ffffff;stroke-width:1.61514;paint-order:markers fill stroke"
       d="m 146.45409,198.85249 v -0.10823 h 0.15889 v -0.71157 q 0,-0.0645 -0.0253,-0.076 -0.023,-0.0138 -0.13356,-0.0138 v -0.10823 l 0.39608,-0.0184 v 0.2487 q 0.12666,-0.2487 0.40299,-0.2487 0.17732,0 0.26483,0.0783 0.0898,0.076 0.0898,0.25331 v 0.59643 h 0.15889 v 0.10823 q -0.19344,-0.007 -0.29015,-0.007 -0.0967,0 -0.29016,0.007 v -0.10823 h 0.1589 v -0.62176 q 0,-0.12435 -0.0322,-0.17271 -0.0322,-0.0507 -0.0944,-0.0507 -0.12665,0 -0.23489,0.0967 -0.10823,0.0944 -0.10823,0.26712 v 0.48129 h 0.1589 v 0.10823 q -0.19344,-0.007 -0.29016,-0.007 -0.0967,0 -0.29015,0.007 z m -1.35405,-0.50201 q 0,-0.23719 0.15429,-0.38917 0.15659,-0.15199 0.43292,-0.15199 0.27404,0 0.43063,0.15199 0.15659,0.15198 0.15659,0.38917 0,0.22337 -0.15429,0.37075 -0.15429,0.14508 -0.43293,0.14508 -0.27864,0 -0.43292,-0.14508 -0.15429,-0.14738 -0.15429,-0.37075 z m 0.29476,-0.0253 q 0,0.0691 0,0.10593 0.002,0.0345 0.009,0.099 0.009,0.0622 0.0276,0.0967 0.0184,0.0345 0.0484,0.0737 0.0322,0.0391 0.0829,0.0576 0.053,0.0161 0.12435,0.0161 0.0714,0 0.12205,-0.0161 0.053,-0.0184 0.0829,-0.0576 0.0322,-0.0392 0.0507,-0.0737 0.0184,-0.0345 0.0253,-0.0967 0.009,-0.0645 0.009,-0.099 0.002,-0.0369 0.002,-0.10593 0,-0.23719 -0.0484,-0.31549 -0.0737,-0.11744 -0.2441,-0.11744 -0.18422,0 -0.2533,0.13356 -0.0392,0.0783 -0.0392,0.29937 z m -1.61888,0.70002 q 0,-0.0507 0.0253,-0.0921 0.0253,-0.0392 0.0645,-0.0622 0.0391,-0.0207 0.0622,-0.0299 0.0253,-0.0115 0.0461,-0.0161 -0.10133,-0.0806 -0.10133,-0.22107 0,-0.10593 0.0783,-0.20495 -0.0553,-0.0392 -0.0875,-0.10363 -0.0322,-0.0668 -0.0322,-0.13817 0,-0.13816 0.11284,-0.23949 0.11514,-0.10132 0.34542,-0.10132 0.19574,0 0.30858,0.076 0.11053,-0.0875 0.2441,-0.0875 0.0714,0 0.10823,0.0438 0.0368,0.0414 0.0368,0.0898 0,0.0414 -0.0276,0.0714 -0.0276,0.0276 -0.0714,0.0276 -0.0438,0 -0.0714,-0.0276 -0.0276,-0.0276 -0.0276,-0.0714 0,-0.023 0.009,-0.0461 -0.0737,0.007 -0.14277,0.0437 0.0921,0.099 0.0921,0.22107 0,0.13817 -0.11514,0.2395 -0.11284,0.10132 -0.34312,0.10132 -0.1658,0 -0.28094,-0.0599 -0.023,0.0299 -0.023,0.076 0,0.0437 0.0299,0.0898 0.0299,0.0437 0.0967,0.0553 0.0115,0.002 0.17732,0.002 0.13817,0 0.20265,0.002 0.0645,0.002 0.14277,0.0184 0.0806,0.0138 0.14278,0.0438 0.17271,0.0875 0.17271,0.29246 0,0.12895 -0.14969,0.21185 -0.14738,0.0852 -0.43753,0.0852 -0.31088,0 -0.44905,-0.0898 -0.13817,-0.0898 -0.13817,-0.20035 z m 0.19805,-0.005 q 0,0.0875 0.0967,0.14968 0.099,0.0622 0.29246,0.0622 0.20265,0 0.29476,-0.0645 0.0944,-0.0645 0.0944,-0.14278 0,-0.14277 -0.33161,-0.14277 h -0.26943 q -0.17731,0 -0.17731,0.13817 z m 0.11283,-0.93034 q 0,0.023 0,0.0668 0,0.0438 0,0.0691 0.002,0.023 0.0115,0.0645 0.0115,0.0415 0.0322,0.0645 0.0207,0.023 0.0599,0.0414 0.0414,0.0184 0.099,0.0184 0.0576,0 0.0967,-0.0184 0.0414,-0.0184 0.0622,-0.0414 0.0207,-0.023 0.0299,-0.0645 0.0115,-0.0414 0.0115,-0.0645 0.002,-0.0253 0.002,-0.0691 0,-0.0437 -0.002,-0.0668 0,-0.0253 -0.0115,-0.0668 -0.009,-0.0414 -0.0299,-0.0645 -0.0207,-0.023 -0.0622,-0.0414 -0.0392,-0.0184 -0.0967,-0.0184 -0.0576,0 -0.099,0.0184 -0.0391,0.0184 -0.0599,0.0414 -0.0207,0.023 -0.0322,0.0645 -0.009,0.0414 -0.0115,0.0668 z m -1.38859,0.76263 v -0.10823 h 0.15889 v -0.71157 q 0,-0.0645 -0.0253,-0.076 -0.023,-0.0138 -0.13356,-0.0138 v -0.10823 l 0.38227,-0.0184 v 0.26022 q 0.0944,-0.26022 0.30627,-0.26022 0.0967,0 0.17041,0.0507 0.0737,0.0507 0.0737,0.13817 0,0.0645 -0.0438,0.10363 -0.0415,0.0368 -0.0967,0.0368 -0.0553,0 -0.099,-0.0368 -0.0414,-0.0368 -0.0414,-0.10363 0,-0.0622 0.0438,-0.10593 -0.0806,0 -0.14047,0.0461 -0.0599,0.0438 -0.0898,0.11744 -0.0299,0.0714 -0.0438,0.14047 -0.0138,0.0691 -0.0138,0.13817 v 0.40299 h 0.20034 v 0.10823 q -0.0829,-0.007 -0.31779,-0.007 -0.0483,0 -0.29015,0.007 z m -1.29878,-0.2487 q 0,-0.3293 0.74841,-0.36154 v -0.0783 q 0,-0.27173 -0.25331,-0.27173 -0.0898,0 -0.1658,0.0161 0.0507,0.0345 0.0507,0.11284 0,0.0691 -0.0438,0.10823 -0.0437,0.0368 -0.10132,0.0368 -0.053,0 -0.099,-0.0368 -0.0438,-0.0392 -0.0438,-0.10823 0,-0.21186 0.41221,-0.21186 0.2487,0 0.37766,0.0967 0.12895,0.0967 0.12895,0.25791 v 0.49511 q 0,0.0322 0.005,0.046 0.005,0.0138 0.0368,0.0276 0.0322,0.0115 0.099,0.0115 0.0207,0 0.0299,0.002 0.009,0.002 0.0184,0.0138 0.0115,0.0115 0.0115,0.0369 0,0.0368 -0.0161,0.046 -0.0161,0.009 -0.0576,0.009 h -0.11054 q -0.0852,0 -0.13816,-0.0161 -0.053,-0.0161 -0.0737,-0.0484 -0.0184,-0.0322 -0.023,-0.053 -0.005,-0.023 -0.005,-0.0599 -0.099,0.19113 -0.34312,0.19113 -0.0691,0 -0.13817,-0.0115 -0.0691,-0.009 -0.14277,-0.0346 -0.0737,-0.0276 -0.11975,-0.0829 -0.0438,-0.0553 -0.0438,-0.13356 z m 0.26943,-0.002 q 0,0.076 0.0599,0.12895 0.0622,0.053 0.14969,0.053 0.0299,0 0.0668,-0.009 0.0391,-0.009 0.0875,-0.0322 0.0507,-0.023 0.0829,-0.0783 0.0322,-0.0553 0.0322,-0.13126 v -0.21876 q -0.0507,0.002 -0.0967,0.009 -0.0438,0.005 -0.11975,0.0253 -0.076,0.0184 -0.12896,0.046 -0.053,0.0276 -0.0944,0.0829 -0.0392,0.053 -0.0392,0.12435 z m -0.84513,-1.04348 q -0.0507,-0.053 -0.0507,-0.12665 0,-0.0737 0.0507,-0.12666 0.053,-0.053 0.12896,-0.053 0.0737,0 0.12665,0.053 0.053,0.053 0.053,0.12666 0,0.0737 -0.053,0.12665 -0.053,0.053 -0.12665,0.053 -0.076,0 -0.12896,-0.053 z m -0.43523,1.54519 q 0,-0.0622 0.0414,-0.10363 0.0392,-0.0414 0.10362,-0.0414 0.0622,0 0.10133,0.0414 0.0415,0.0415 0.0415,0.10133 0,0.0737 -0.0553,0.11514 0.053,0.0138 0.0898,0.0138 0.0921,0 0.13126,-0.0875 0.0414,-0.0852 0.0414,-0.19344 v -0.9142 q 0,-0.0299 -0.002,-0.0438 -0.002,-0.0138 -0.0138,-0.0253 -0.0115,-0.0138 -0.0345,-0.0184 -0.0345,-0.005 -0.12435,-0.005 v -0.10823 l 0.42371,-0.0184 v 1.13298 q 0,0.17041 -0.12665,0.26713 -0.12665,0.0967 -0.29015,0.0967 -0.14508,0 -0.23489,-0.0576 -0.0921,-0.0553 -0.0921,-0.15199 z m -2.09786,-0.002 q 0,-0.0645 0.0392,-0.099 0.0392,-0.0345 0.0921,-0.0345 0.0576,0 0.0944,0.0368 0.0391,0.0368 0.0391,0.0944 0,0.0898 -0.0737,0.12205 0.0253,0.009 0.0553,0.009 0.0576,0 0.10363,-0.0253 0.0484,-0.023 0.0829,-0.0714 0.0368,-0.0461 0.0553,-0.0806 0.0207,-0.0322 0.0461,-0.0898 l 0.053,-0.11054 -0.43063,-0.91421 h -0.14738 v -0.10823 q 0.023,0 0.12435,0.005 0.10133,0.002 0.13817,0.002 0.17041,0 0.28555,-0.007 v 0.10823 h -0.12435 l 0.29246,0.62176 0.26482,-0.56649 q 0.0115,-0.0115 0.0115,-0.0276 0,-0.0276 -0.10823,-0.0276 v -0.10823 q 0.14508,0.007 0.20956,0.007 0.099,0 0.18192,-0.007 v 0.10823 q -0.0714,0 -0.10823,0.007 -0.0345,0.005 -0.0438,0.0138 -0.009,0.007 -0.0184,0.0276 l -0.4951,1.05238 q -0.053,0.11284 -0.15199,0.19344 -0.099,0.0806 -0.22107,0.0806 -0.10363,0 -0.17501,-0.0622 -0.0714,-0.0622 -0.0714,-0.14968 z m -1.13989,-0.75993 q 0,-0.22107 0.14508,-0.37536 0.14738,-0.15659 0.43753,-0.15659 0.40069,0 0.40069,0.21186 0,0.0691 -0.0437,0.10823 -0.0438,0.0368 -0.10133,0.0368 -0.053,0 -0.099,-0.0368 -0.0437,-0.0392 -0.0437,-0.10823 0,-0.0645 0.0461,-0.10593 -0.0599,-0.0138 -0.14969,-0.0138 -0.0852,0 -0.14507,0.0345 -0.0599,0.0345 -0.0898,0.0783 -0.0276,0.0414 -0.0438,0.11284 -0.0138,0.0691 -0.0161,0.10823 -0.002,0.0368 -0.002,0.0944 0,0.44444 0.32009,0.44444 0.20956,0 0.28785,-0.18883 0.009,-0.023 0.0161,-0.0276 0.009,-0.007 0.0392,-0.007 0.0553,0 0.0553,0.0322 0,0.009 -0.009,0.0369 -0.009,0.0253 -0.0391,0.0691 -0.0299,0.0438 -0.076,0.0829 -0.0461,0.0368 -0.13126,0.0668 -0.0829,0.0276 -0.18653,0.0276 -0.26252,0 -0.41681,-0.14508 -0.15429,-0.14738 -0.15429,-0.37996 z m -1.45307,0.51122 v -0.10823 h 0.15889 v -0.71157 q 0,-0.0645 -0.0253,-0.076 -0.023,-0.0138 -0.13356,-0.0138 v -0.10823 l 0.39608,-0.0184 v 0.2487 q 0.12666,-0.2487 0.403,-0.2487 0.17731,0 0.26482,0.0783 0.0898,0.076 0.0898,0.25331 v 0.59643 h 0.15889 v 0.10823 q -0.19343,-0.007 -0.29015,-0.007 -0.0967,0 -0.29016,0.007 v -0.10823 h 0.1589 v -0.62176 q 0,-0.12435 -0.0322,-0.17271 -0.0322,-0.0507 -0.0944,-0.0507 -0.12665,0 -0.23488,0.0967 -0.10824,0.0944 -0.10824,0.26712 v 0.48129 h 0.1589 v 0.10823 q -0.19344,-0.007 -0.29016,-0.007 -0.0967,0 -0.29015,0.007 z m -1.3172,-0.2487 q 0,-0.3293 0.74841,-0.36154 v -0.0783 q 0,-0.27173 -0.25331,-0.27173 -0.0898,0 -0.1658,0.0161 0.0507,0.0345 0.0507,0.11284 0,0.0691 -0.0437,0.10823 -0.0438,0.0368 -0.10133,0.0368 -0.053,0 -0.099,-0.0368 -0.0438,-0.0392 -0.0438,-0.10823 0,-0.21186 0.4122,-0.21186 0.24871,0 0.37766,0.0967 0.12896,0.0967 0.12896,0.25791 v 0.49511 q 0,0.0322 0.005,0.046 0.005,0.0138 0.0368,0.0276 0.0322,0.0115 0.099,0.0115 0.0207,0 0.0299,0.002 0.009,0.002 0.0184,0.0138 0.0115,0.0115 0.0115,0.0369 0,0.0368 -0.0161,0.046 -0.0161,0.009 -0.0576,0.009 h -0.11054 q -0.0852,0 -0.13817,-0.0161 -0.053,-0.0161 -0.0737,-0.0484 -0.0184,-0.0322 -0.023,-0.053 -0.005,-0.023 -0.005,-0.0599 -0.099,0.19113 -0.34312,0.19113 -0.0691,0 -0.13817,-0.0115 -0.0691,-0.009 -0.14277,-0.0346 -0.0737,-0.0276 -0.11975,-0.0829 -0.0437,-0.0553 -0.0437,-0.13356 z m 0.26943,-0.002 q 0,0.076 0.0599,0.12895 0.0622,0.053 0.14968,0.053 0.0299,0 0.0668,-0.009 0.0392,-0.009 0.0875,-0.0322 0.0507,-0.023 0.0829,-0.0783 0.0322,-0.0553 0.0322,-0.13126 v -0.21876 q -0.0507,0.002 -0.0967,0.009 -0.0438,0.005 -0.11974,0.0253 -0.076,0.0184 -0.12896,0.046 -0.053,0.0276 -0.0944,0.0829 -0.0391,0.053 -0.0391,0.12435 z m -1.05469,-0.66351 v -0.10823 h 0.17271 v -0.23259 q 0,-0.17962 0.14047,-0.26712 0.14047,-0.0898 0.33391,-0.0898 0.12665,0 0.19344,0.0599 0.0691,0.0599 0.0691,0.14047 0,0.0668 -0.0437,0.10593 -0.0414,0.0369 -0.099,0.0369 -0.053,0 -0.0967,-0.0369 -0.0438,-0.0368 -0.0438,-0.10593 0,-0.0737 0.053,-0.11284 -0.0161,-0.005 -0.0392,-0.005 -0.023,0 -0.0484,0.005 -0.023,0.002 -0.0599,0.0207 -0.0345,0.0161 -0.0599,0.0437 -0.0253,0.0253 -0.0461,0.0806 -0.0184,0.053 -0.0184,0.12435 v 0.23259 h 0.27864 v 0.10823 h -0.26483 v 0.80598 h 0.20035 v 0.10823 q -0.0829,-0.007 -0.31779,-0.007 -0.0484,0 -0.29015,0.007 v -0.10823 h 0.15889 v -0.80598 z m -1.69026,0 v -0.10823 h 0.17271 v -0.23259 q 0,-0.17962 0.14047,-0.26712 0.14047,-0.0898 0.33391,-0.0898 0.12665,0 0.19343,0.0599 0.0691,0.0599 0.0691,0.14047 0,0.0668 -0.0438,0.10593 -0.0415,0.0369 -0.099,0.0369 -0.053,0 -0.0967,-0.0369 -0.0438,-0.0368 -0.0438,-0.10593 0,-0.0737 0.053,-0.11284 -0.0161,-0.005 -0.0392,-0.005 -0.023,0 -0.0484,0.005 -0.023,0.002 -0.0599,0.0207 -0.0345,0.0161 -0.0599,0.0437 -0.0253,0.0253 -0.046,0.0806 -0.0184,0.053 -0.0184,0.12435 v 0.23259 h 0.27864 v 0.10823 h -0.26483 v 0.80598 h 0.20035 v 0.10823 q -0.0829,-0.007 -0.31779,-0.007 -0.0484,0 -0.29015,0.007 v -0.10823 h 0.15889 v -0.80598 z m -1.34714,0.4122 q 0,-0.23719 0.15429,-0.38917 0.15659,-0.15199 0.43292,-0.15199 0.27404,0 0.43063,0.15199 0.15659,0.15198 0.15659,0.38917 0,0.22337 -0.15429,0.37075 -0.15429,0.14508 -0.43293,0.14508 -0.27864,0 -0.43292,-0.14508 -0.15429,-0.14738 -0.15429,-0.37075 z m 0.29476,-0.0253 q 0,0.0691 0,0.10593 0.002,0.0345 0.009,0.099 0.009,0.0622 0.0276,0.0967 0.0184,0.0345 0.0484,0.0737 0.0322,0.0391 0.0829,0.0576 0.053,0.0161 0.12435,0.0161 0.0714,0 0.12205,-0.0161 0.053,-0.0184 0.0829,-0.0576 0.0322,-0.0392 0.0507,-0.0737 0.0184,-0.0345 0.0253,-0.0967 0.009,-0.0645 0.009,-0.099 0.002,-0.0369 0.002,-0.10593 0,-0.23719 -0.0484,-0.31549 -0.0737,-0.11744 -0.2441,-0.11744 -0.18422,0 -0.2533,0.13356 -0.0392,0.0783 -0.0392,0.29937 z m -2.23142,-0.3869 v -0.0829 q 0.1612,-0.005 0.25101,-0.14047 0.0898,-0.13817 0.0921,-0.3247 h 0.10823 v 0.43984 h 0.33621 v 0.10823 h -0.33621 v 0.63557 q 0,0.20035 0.13356,0.20035 0.0553,0 0.0967,-0.0507 0.0415,-0.053 0.0415,-0.1612 v -0.11744 h 0.10823 v 0.12204 q 0,0.12896 -0.076,0.21417 -0.0737,0.0852 -0.20265,0.0852 -0.36384,0 -0.36384,-0.29706 v -0.63097 z m -1.34023,0.91421 v -0.10823 h 0.15889 v -0.71157 q 0,-0.0645 -0.0253,-0.076 -0.023,-0.0138 -0.13356,-0.0138 v -0.10823 l 0.39608,-0.0184 v 0.2487 q 0.12666,-0.2487 0.403,-0.2487 0.17731,0 0.26482,0.0783 0.0898,0.076 0.0898,0.25331 v 0.59643 h 0.15889 v 0.10823 q -0.19343,-0.007 -0.29015,-0.007 -0.0967,0 -0.29016,0.007 v -0.10823 h 0.1589 v -0.62176 q 0,-0.12435 -0.0322,-0.17271 -0.0322,-0.0507 -0.0944,-0.0507 -0.12665,0 -0.23488,0.0967 -0.10824,0.0944 -0.10824,0.26712 v 0.48129 h 0.1589 v 0.10823 q -0.19344,-0.007 -0.29016,-0.007 -0.0967,0 -0.29015,0.007 z m -1.46919,-0.90961 v -0.10823 l 0.42142,-0.0184 v 0.78526 q 0,0.10593 0.0299,0.14507 0.0299,0.0369 0.15429,0.0369 0.12665,0 0.20495,-0.0852 0.0806,-0.0852 0.0806,-0.22568 v -0.43984 q 0,-0.0645 -0.0253,-0.076 -0.023,-0.0138 -0.13357,-0.0138 v -0.10823 l 0.42142,-0.0184 v 0.83822 q 0,0.0645 0.023,0.0783 0.0253,0.0115 0.13586,0.0115 v 0.10823 l -0.40759,0.0138 v -0.17962 q -0.10593,0.17962 -0.33161,0.17962 -0.19574,0 -0.30627,-0.0622 -0.10824,-0.0645 -0.10824,-0.23488 v -0.53656 q 0,-0.0645 -0.0253,-0.076 -0.023,-0.0138 -0.13356,-0.0138 z m -1.35405,0.4076 q 0,-0.23719 0.15429,-0.38917 0.15659,-0.15199 0.43293,-0.15199 0.27403,0 0.43062,0.15199 0.15659,0.15198 0.15659,0.38917 0,0.22337 -0.15428,0.37075 -0.15429,0.14508 -0.43293,0.14508 -0.27864,0 -0.43293,-0.14508 -0.15429,-0.14738 -0.15429,-0.37075 z m 0.29476,-0.0253 q 0,0.0691 0,0.10593 0.002,0.0345 0.009,0.099 0.009,0.0622 0.0276,0.0967 0.0184,0.0345 0.0484,0.0737 0.0322,0.0391 0.0829,0.0576 0.053,0.0161 0.12435,0.0161 0.0714,0 0.12205,-0.0161 0.053,-0.0184 0.0829,-0.0576 0.0322,-0.0392 0.0507,-0.0737 0.0184,-0.0345 0.0253,-0.0967 0.009,-0.0645 0.009,-0.099 0.002,-0.0369 0.002,-0.10593 0,-0.23719 -0.0484,-0.31549 -0.0737,-0.11744 -0.2441,-0.11744 -0.18423,0 -0.25331,0.13356 -0.0392,0.0783 -0.0392,0.29937 z m -2.47091,0.52731 v -0.10823 h 0.15889 v -0.71157 q 0,-0.0645 -0.0253,-0.076 -0.023,-0.0138 -0.13356,-0.0138 v -0.10823 l 0.39608,-0.0184 v 0.2487 q 0.12666,-0.2487 0.4053,-0.2487 0.29706,0 0.34542,0.22107 0.12435,-0.22107 0.38917,-0.22107 0.18193,0 0.26713,0.0783 0.0875,0.0783 0.0875,0.25331 v 0.59643 h 0.15889 v 0.10823 q -0.19344,-0.007 -0.29015,-0.007 -0.0967,0 -0.29016,0.007 v -0.10823 h 0.1589 v -0.62176 q 0,-0.12665 -0.0322,-0.17501 -0.0322,-0.0484 -0.0967,-0.0484 -0.12435,0 -0.23489,0.0967 -0.10823,0.0944 -0.10823,0.26712 v 0.48129 h 0.15889 v 0.10823 q -0.19343,-0.007 -0.29015,-0.007 -0.0967,0 -0.29015,0.007 v -0.10823 h 0.15889 v -0.62176 q 0,-0.12665 -0.0322,-0.17501 -0.0322,-0.0484 -0.0967,-0.0484 -0.12435,0 -0.23488,0.0967 -0.10824,0.0944 -0.10824,0.26712 v 0.48129 h 0.1589 v 0.10823 q -0.19344,-0.007 -0.29016,-0.007 -0.0967,0 -0.29015,0.007 z m -2.01035,0 v -0.10823 h 0.0484 q 0.11974,0 0.15198,-0.0115 0.0322,-0.0115 0.0438,-0.0414 l 0.57109,-1.3863 q 0.009,-0.0253 0.0161,-0.0345 0.007,-0.0115 0.023,-0.0184 0.0184,-0.007 0.0507,-0.007 0.0253,0 0.0369,0.002 0.0115,0.002 0.0276,0.0161 0.0161,0.0138 0.0276,0.0414 l 0.58952,1.43926 h 0.22338 v 0.10823 q -0.0806,-0.007 -0.37536,-0.007 -0.31779,0 -0.4053,0.007 v -0.10823 h 0.21877 l -0.13817,-0.33621 h -0.61715 l -0.11514,0.27864 q -0.009,0.009 -0.009,0.0276 0,0.0299 0.20495,0.0299 v 0.10823 q -0.0852,-0.007 -0.30397,-0.007 -0.007,0 -0.26943,0.007 z m 0.53886,-0.55267 h 0.52504 l -0.26252,-0.64018 z M 108.97421,182.3626 q 0,-0.0645 0.0391,-0.099 0.0391,-0.0345 0.0921,-0.0345 0.0576,0 0.0944,0.0369 0.0392,0.0368 0.0392,0.0944 0,0.0898 -0.0737,0.12205 0.0253,0.009 0.0553,0.009 0.0576,0 0.10362,-0.0253 0.0484,-0.023 0.0829,-0.0714 0.0369,-0.0461 0.0553,-0.0806 0.0207,-0.0322 0.0461,-0.0898 l 0.053,-0.11054 -0.43062,-0.91421 h -0.14738 v -0.10824 q 0.023,0 0.12435,0.005 0.10132,0.002 0.13817,0.002 0.17041,0 0.28555,-0.007 v 0.10824 h -0.12436 l 0.29246,0.62175 0.26482,-0.56649 q 0.0115,-0.0115 0.0115,-0.0276 0,-0.0276 -0.10823,-0.0276 v -0.10824 q 0.14507,0.007 0.20955,0.007 0.099,0 0.18192,-0.007 v 0.10824 q -0.0714,0 -0.10823,0.007 -0.0345,0.005 -0.0438,0.0138 -0.009,0.007 -0.0184,0.0276 l -0.49511,1.05238 q -0.053,0.11284 -0.15198,0.19344 -0.099,0.0806 -0.22107,0.0806 -0.10363,0 -0.17502,-0.0622 -0.0714,-0.0622 -0.0714,-0.14968 z m -0.95797,-1.16292 v -0.0829 q 0.1612,-0.005 0.25101,-0.14047 0.0898,-0.13817 0.0921,-0.32469 h 0.10823 v 0.43983 h 0.33621 v 0.10824 h -0.33621 v 0.63557 q 0,0.20035 0.13357,0.20035 0.0553,0 0.0967,-0.0507 0.0414,-0.053 0.0414,-0.16119 v -0.11745 h 0.10823 v 0.12205 q 0,0.12896 -0.076,0.21416 -0.0737,0.0852 -0.20265,0.0852 -0.36385,0 -0.36385,-0.29706 v -0.63097 z m -0.55267,-0.37997 q -0.0507,-0.053 -0.0507,-0.12665 0,-0.0737 0.0507,-0.12666 0.053,-0.053 0.12896,-0.053 0.0737,0 0.12666,0.053 0.053,0.053 0.053,0.12666 0,0.0737 -0.053,0.12665 -0.053,0.053 -0.12666,0.053 -0.076,0 -0.12896,-0.053 z m -0.12205,1.29418 v -0.10823 h 0.1589 v -0.71157 q 0,-0.0645 -0.023,-0.076 -0.023,-0.0138 -0.12896,-0.0138 v -0.10823 l 0.40069,-0.0184 v 0.92803 h 0.14278 v 0.10823 q -0.24871,-0.007 -0.26943,-0.007 -0.0668,0 -0.28095,0.007 z m -0.73459,0 v -0.10823 h 0.1589 v -1.27345 q 0,-0.0645 -0.0253,-0.076 -0.023,-0.0138 -0.13356,-0.0138 v -0.10824 l 0.4076,-0.0184 v 1.48992 h 0.15889 v 0.10823 q -0.23488,-0.007 -0.28324,-0.007 -0.0622,0 -0.28325,0.007 z m -1.32181,-0.2487 q 0,-0.3293 0.74842,-0.36154 v -0.0783 q 0,-0.27173 -0.25331,-0.27173 -0.0898,0 -0.16581,0.0161 0.0507,0.0345 0.0507,0.11284 0,0.0691 -0.0438,0.10823 -0.0438,0.0368 -0.10132,0.0368 -0.053,0 -0.099,-0.0368 -0.0438,-0.0391 -0.0438,-0.10823 0,-0.21186 0.4122,-0.21186 0.2487,0 0.37766,0.0967 0.12896,0.0967 0.12896,0.25791 v 0.49511 q 0,0.0322 0.005,0.0461 0.005,0.0138 0.0369,0.0276 0.0322,0.0115 0.099,0.0115 0.0207,0 0.0299,0.002 0.009,0.002 0.0184,0.0138 0.0115,0.0115 0.0115,0.0368 0,0.0369 -0.0161,0.0461 -0.0161,0.009 -0.0576,0.009 h -0.11053 q -0.0852,0 -0.13817,-0.0161 -0.053,-0.0161 -0.0737,-0.0484 -0.0184,-0.0322 -0.023,-0.053 -0.005,-0.023 -0.005,-0.0599 -0.099,0.19113 -0.34311,0.19113 -0.0691,0 -0.13817,-0.0115 -0.0691,-0.009 -0.14278,-0.0345 -0.0737,-0.0276 -0.11974,-0.0829 -0.0438,-0.0553 -0.0438,-0.13356 z m 0.26943,-0.002 q 0,0.076 0.0599,0.12895 0.0622,0.053 0.14969,0.053 0.0299,0 0.0668,-0.009 0.0392,-0.009 0.0875,-0.0322 0.0507,-0.023 0.0829,-0.0783 0.0322,-0.0553 0.0322,-0.13126 v -0.21877 q -0.0507,0.002 -0.0967,0.009 -0.0438,0.005 -0.11975,0.0253 -0.076,0.0184 -0.12896,0.0461 -0.053,0.0276 -0.0944,0.0829 -0.0391,0.053 -0.0391,0.12436 z m -1.70868,-0.65891 v -0.10823 l 0.42141,-0.0184 v 0.78526 q 0,0.10592 0.0299,0.14507 0.0299,0.0369 0.15429,0.0369 0.12665,0 0.20495,-0.0852 0.0806,-0.0852 0.0806,-0.22567 v -0.43984 q 0,-0.0645 -0.0253,-0.076 -0.023,-0.0138 -0.13357,-0.0138 v -0.10823 l 0.42142,-0.0184 v 0.83822 q 0,0.0645 0.023,0.0783 0.0253,0.0115 0.13586,0.0115 v 0.10823 l -0.4076,0.0138 v -0.17962 q -0.10592,0.17962 -0.3316,0.17962 -0.19574,0 -0.30627,-0.0622 -0.10824,-0.0645 -0.10824,-0.23488 v -0.53656 q 0,-0.0645 -0.0253,-0.076 -0.023,-0.0138 -0.13356,-0.0138 z m -1.94357,0.12896 q 0,-0.36845 0.22798,-0.59643 0.23028,-0.22798 0.61945,-0.22798 0.38227,0 0.61255,0.22568 0.23259,0.22567 0.23259,0.59873 0,0.10363 -0.023,0.20265 -0.023,0.099 -0.0737,0.20495 -0.0484,0.10362 -0.14738,0.19113 -0.0967,0.0875 -0.23259,0.14047 0.0322,0.0484 0.0622,0.0783 0.0299,0.0299 0.0576,0.0414 0.0299,0.0115 0.0461,0.0138 0.0184,0.002 0.046,0.002 0.18192,0 0.19574,-0.0898 0.007,-0.0461 0.0414,-0.0461 0.0415,0 0.0415,0.0599 0,0.0898 -0.0276,0.18193 -0.0276,0.0921 -0.10363,0.1681 -0.076,0.0783 -0.18422,0.0783 -0.0622,0 -0.11054,-0.0253 -0.0484,-0.023 -0.0783,-0.053 -0.0276,-0.0299 -0.0553,-0.099 -0.0276,-0.0668 -0.0414,-0.11744 -0.0138,-0.0484 -0.0391,-0.14738 -0.10362,0.0207 -0.21877,0.0207 -0.39378,0 -0.62175,-0.22337 -0.22568,-0.22337 -0.22568,-0.58261 z m 0.33851,-0.002 q 0,0.0944 0.007,0.1658 0.007,0.0714 0.0299,0.17962 0.0253,0.10593 0.0898,0.18883 0.0645,0.0829 0.1635,0.13126 -0.007,-0.0161 -0.007,-0.0507 0,-0.0806 0.0668,-0.13357 0.0668,-0.0553 0.15659,-0.0553 0.0714,0 0.13357,0.0391 0.0622,0.0369 0.0898,0.0714 0.0276,0.0322 0.0645,0.0875 0.22107,-0.15199 0.22107,-0.62406 0,-0.3224 -0.0944,-0.4882 -0.13587,-0.24179 -0.41451,-0.24179 -0.046,0 -0.0944,0.009 -0.0484,0.009 -0.10824,0.0345 -0.0599,0.0253 -0.11974,0.0806 -0.0576,0.053 -0.099,0.13126 -0.0852,0.1635 -0.0852,0.47438 z m 0.36615,0.61485 q 0,0.0207 0.007,0.0415 0.009,0.0184 0.0437,0.0391 0.0345,0.0207 0.0921,0.0207 0.10593,0 0.18884,-0.0368 -0.053,-0.17041 -0.18884,-0.17041 -0.0576,0 -0.10132,0.0299 -0.0414,0.0299 -0.0414,0.076 z" /></g></svg>
