<?xml version="1.0" encoding="UTF-8" standalone="no"?>
<!-- Created with Inkscape (http://www.inkscape.org/) -->

<svg
   width="193.04518"
   height="185.54373"
   viewBox="0 0 51.076537 49.091779"
   version="1.1"
   id="svg1655"
   inkscape:version="1.2.2 (b0a84865, 2022-12-01)"
   xml:space="preserve"
   sodipodi:docname="leetcode-notebooksvg.svg"
   xmlns:inkscape="http://www.inkscape.org/namespaces/inkscape"
   xmlns:sodipodi="http://sodipodi.sourceforge.net/DTD/sodipodi-0.dtd"
   xmlns="http://www.w3.org/2000/svg"
   xmlns:svg="http://www.w3.org/2000/svg"><sodipodi:namedview
     id="namedview1657"
     pagecolor="#161618"
     bordercolor="#b400ff"
     borderopacity="0.24705882"
     inkscape:showpageshadow="false"
     inkscape:pageopacity="1"
     inkscape:pagecheckerboard="0"
     inkscape:deskcolor="#d1d1d1"
     inkscape:document-units="mm"
     showgrid="false"
     borderlayer="false"
     showborder="false"
     inkscape:zoom="2.0622445"
     inkscape:cx="134.56213"
     inkscape:cy="78.797642"
     inkscape:window-width="1512"
     inkscape:window-height="917"
     inkscape:window-x="0"
     inkscape:window-y="65"
     inkscape:window-maximized="0"
     inkscape:current-layer="layer1" /><defs
     id="defs1652" /><g
     inkscape:label="Layer 1"
     inkscape:groupmode="layer"
     id="layer1"
     transform="translate(-108.50945,-160.5185)"><path
       style="fill:#ffffff;stroke-width:0.0267847"
       d="m 148.6251,195.94738 c -0.18355,-0.0344 -0.39936,-0.16488 -1.13763,-0.68781 -0.77037,-0.54567 -1.75459,-1.22891 -2.73386,-1.89785 -0.72229,-0.4934 -1.21779,-0.91914 -1.52757,-1.3125 l -0.0795,-0.10097 -2.96944,1.78245 c -2.56836,1.5417 -3.00193,1.79316 -3.20995,1.86172 -0.35264,0.1162 -0.54831,0.14302 -0.91715,0.12571 -0.54516,-0.0256 -0.9565,-0.16556 -1.42338,-0.48437 -0.15371,-0.10495 -0.94527,-0.70454 -1.75903,-1.33243 -1.62838,-1.25643 -2.27391,-1.75401 -4.26517,-3.28765 -0.73658,-0.56731 -1.62248,-1.24996 -1.96868,-1.51701 -3.58887,-2.76843 -16.77626,-12.92297 -16.93695,-13.04177 -0.17037,-0.12596 -0.24023,-0.20129 -0.3711,-0.40017 -0.83831,-1.27396 -1.03583,-2.70584 -0.56968,-4.12977 0.21988,-0.67169 0.72272,-1.53547 1.28578,-2.20876 0.32698,-0.39099 0.45255,-0.51995 0.55764,-0.57271 0.0462,-0.0232 4.01935,-1.56241 8.82922,-3.42048 4.80987,-1.85808 9.57086,-3.69903 10.57997,-4.09101 l 1.83476,-0.71268 0.3348,-8.1e-4 c 0.19106,-4.1e-4 0.38082,0.0133 0.44196,0.032 0.0589,0.0181 5.95893,3.24981 13.11112,7.18163 8.93183,4.91015 13.04443,7.18456 13.13314,7.26308 0.071,0.0629 0.17078,0.17584 0.22165,0.25103 0.19337,0.28581 0.18309,0.189 0.35961,3.38439 0.11846,2.14424 0.15402,2.94407 0.13585,3.05592 -0.0581,0.35787 -0.26094,0.71507 -0.50996,0.89811 -0.0827,0.0608 -2.6847,1.62921 -5.78224,3.48539 l -5.63188,3.37488 0.12532,0.11477 c 0.13339,0.12215 0.46365,0.32717 0.52703,0.32717 0.0209,0 0.1092,0.0467 0.19621,0.10368 0.087,0.057 0.35708,0.23332 0.60015,0.39177 0.95909,0.62521 2.89316,1.97408 2.9878,2.08377 0.28851,0.33436 0.38899,0.8674 0.24201,1.28384 -0.0735,0.20812 -0.26408,0.48875 -0.41014,0.60379 -0.17334,0.13654 -2.2634,1.43825 -2.40451,1.49755 -0.0737,0.031 -0.19779,0.0697 -0.27586,0.086 -0.13861,0.029 -0.48885,0.0347 -0.62033,0.0101 z m 0.96067,-2.05996 c 0.42122,-0.2746 0.77635,-0.50869 0.78918,-0.52019 0.0128,-0.0115 -0.7224,-0.5177 -1.63387,-1.12488 -0.91146,-0.60719 -1.76568,-1.18527 -1.89826,-1.28463 -0.29657,-0.22226 -0.64365,-0.57977 -0.80501,-0.8292 -0.1745,-0.26975 -0.52084,-1.02047 -0.52084,-1.12896 0,-0.0835 -0.0508,-0.36542 -0.079,-0.43853 -0.0114,-0.0295 -0.0419,-0.14397 -0.0678,-0.25445 -0.13572,-0.57789 -0.40049,-0.90856 -0.83583,-1.04387 -0.35176,-0.10934 -0.32592,-0.11745 -1.23672,0.38817 l -0.81314,0.45141 0.15692,0.0433 c 0.26605,0.0733 0.53122,0.23215 0.75711,0.45349 0.32346,0.31694 0.38401,0.41117 0.51219,0.79706 0.17898,0.53878 0.24713,0.95044 0.18734,1.1316 -0.0303,0.0919 -0.0266,0.11239 0.0473,0.2585 0.10496,0.20765 0.30123,0.47243 0.47916,0.64642 0.30566,0.29889 0.5718,0.48929 2.68707,1.9224 0.67029,0.45413 1.27897,0.87134 1.35263,0.92716 0.0737,0.0558 0.13883,0.10216 0.14483,0.103 0.006,8.2e-4 0.35554,-0.22314 0.77676,-0.49775 z m -13.00819,0.41791 c 0.12927,-0.0239 0.63087,-0.31501 3.56059,-2.06641 1.87557,-1.12123 3.41377,-2.04146 3.41823,-2.04495 0.009,-0.007 -0.0923,-0.41387 -0.1064,-0.42733 -0.005,-0.005 -0.25593,0.13941 -0.55793,0.32012 -3.35462,2.00735 -5.55616,3.30515 -5.63036,3.31907 -0.14794,0.0278 -0.35242,-0.0479 -0.44479,-0.16465 -0.70601,-0.89218 -0.70841,-3.1338 -0.005,-4.53313 0.23313,-0.46367 0.23422,-0.46477 0.76663,-0.76673 0.26329,-0.14933 2.72059,-1.546 5.46067,-3.10371 2.74008,-1.5577 6.21741,-3.53441 7.72739,-4.39267 1.50999,-0.85827 3.67353,-2.08802 4.80786,-2.73278 1.13434,-0.64476 2.10121,-1.18852 2.14862,-1.20836 0.0474,-0.0198 0.11671,-0.0361 0.15401,-0.0361 0.0677,0 0.0678,-4e-4 0.0678,-0.24805 v -0.24806 l -1.82805,-1.00322 c -1.00544,-0.55178 -2.05105,-1.1255 -2.32358,-1.27494 -0.50295,-0.27578 -5.65354,-3.10167 -8.34344,-4.57766 -0.81024,-0.44459 -4.10075,-2.25013 -7.31224,-4.01233 l -5.83907,-3.20398 -10.43265,3.99226 c -5.73796,2.19575 -10.46279,4.00436 -10.49962,4.01915 l -0.067,0.0269 0.06,0.023 c 0.0464,0.0178 2.16554,1.53707 2.91312,2.08848 0.0737,0.0543 0.59195,0.42985 1.15175,0.83451 0.5598,0.40465 1.93685,1.40071 3.06011,2.21345 1.12326,0.81274 2.96137,2.14268 4.08468,2.95542 1.1233,0.81273 2.21112,1.60025 2.41736,1.75002 0.20624,0.14978 1.18254,0.85664 2.16956,1.57081 0.98702,0.71416 2.9336,2.12276 4.32574,3.1302 1.39214,1.00744 3.06752,2.21887 3.72308,2.69207 1.07634,0.77693 1.19791,0.87223 1.25369,0.98282 0.0579,0.11482 0.0593,0.12844 0.0217,0.21837 -0.022,0.0528 -0.08,0.12093 -0.12873,0.15148 -0.15716,0.0985 -0.22655,0.069 -0.77176,-0.32754 -0.27249,-0.19821 -4.05713,-2.93792 -8.41032,-6.08824 -4.3532,-3.15032 -9.06597,-6.56106 -10.47284,-7.57943 -1.40686,-1.01837 -3.2556,-2.3564 -4.10829,-2.97341 -1.30843,-0.94677 -1.5572,-1.13712 -1.59422,-1.2198 l -0.0439,-0.098 -0.16545,0.21957 c -0.45485,0.60362 -0.77282,1.27924 -0.89489,1.90142 -0.0473,0.24101 -0.0476,0.98832 -4.9e-4,1.20531 0.0921,0.42411 0.24976,0.83613 0.46212,1.20729 l 0.11609,0.2029 3.8176,2.92651 c 2.09969,1.60959 7.66858,5.87865 12.37533,9.4868 4.70675,3.60815 8.59594,6.5874 8.64264,6.62055 0.14117,0.1002 0.40048,0.21918 0.56415,0.25883 0.18755,0.0455 0.50641,0.0518 0.71027,0.0141 z m -12.68928,-21.0124 c -2.58509,-1.801 -2.55646,-1.77873 -2.5575,-1.98973 -4.1e-4,-0.115 0.0372,-0.18284 0.12758,-0.22936 0.0401,-0.0206 0.86235,-0.35943 1.82726,-0.75293 0.96492,-0.39349 2.33898,-0.95415 3.05346,-1.24591 3.49012,-1.42519 7.4399,-3.03684 7.49973,-3.06015 0.0589,-0.023 0.15548,0.0235 0.80354,0.38688 0.40512,0.22714 1.50039,0.83928 2.43392,1.36032 1.75279,0.9783 1.79768,1.00743 1.79797,1.16661 0,0.0299 -0.0417,0.12121 -0.0927,0.20286 l -0.0929,0.14844 -1.46736,0.69284 c -0.80704,0.38105 -1.94345,0.91763 -2.52535,1.19237 -0.5819,0.27476 -2.64393,1.24876 -4.58231,2.16447 -3.21564,1.51911 -3.53585,1.66477 -3.65611,1.66316 -0.12997,-0.002 -0.16573,-0.0254 -2.56922,-1.69987 z m 8.2497,-1.72587 c 3.1231,-1.48682 5.67404,-2.713 5.66875,-2.72484 -0.0116,-0.0259 -3.94297,-2.23652 -3.98131,-2.23868 -0.0502,-0.003 -11.55828,4.73292 -11.55124,4.75351 0.007,0.0209 4.14759,2.91151 4.17204,2.91267 0.007,3.1e-4 2.56866,-1.21585 5.69176,-2.70266 z m -6.55062,1.34707 c -0.015,-0.0394 -0.0217,-0.086 -0.015,-0.10359 0.007,-0.0176 0.0946,-0.0705 0.19529,-0.11762 0.34266,-0.16032 0.70136,-0.42233 1.03341,-0.75484 0.22312,-0.22342 0.31472,-0.33347 0.31472,-0.37811 0,-0.19502 0.17439,-0.63412 0.36726,-0.92469 0.13838,-0.2085 0.4048,-0.48875 0.46462,-0.48875 0.0637,0 0.13238,0.0995 0.13238,0.19185 0,0.0939 -0.11483,0.4129 -0.23432,0.65101 -0.0806,0.16066 -0.20918,0.36673 -0.37232,0.59682 -0.0415,0.0585 -0.0404,0.0603 0.0353,0.0603 0.12722,0 0.3836,-0.0756 0.59578,-0.17568 0.45358,-0.21394 0.87764,-0.61186 1.14281,-1.07238 0.0921,-0.15995 0.26532,-0.4267 0.38491,-0.59277 0.17297,-0.24017 0.23058,-0.30195 0.28161,-0.30195 0.0745,0 0.14834,0.0643 0.14832,0.12914 -2e-5,0.052 -0.33701,0.6537 -0.47145,0.84181 -0.0655,0.0916 -0.0796,0.12723 -0.0503,0.12723 0.0705,0 0.63224,-0.19013 0.88336,-0.29898 0.49116,-0.2129 1.05794,-0.59077 1.70083,-1.13396 0.4095,-0.34599 0.7041,-0.54751 1.05799,-0.72371 0.53865,-0.26818 0.84161,-0.32117 0.86588,-0.15145 0.0147,0.10298 -0.057,0.17532 -0.22528,0.22713 -0.51397,0.15827 -0.98931,0.46963 -1.99322,1.3056 -0.32554,0.27108 -0.90991,0.65822 -1.19594,0.79231 -0.31514,0.14773 -0.70308,0.26234 -1.08534,0.32065 l -0.30345,0.0463 -0.21428,0.19904 c -0.56644,0.52618 -1.25509,0.83577 -1.67988,0.75521 l -0.13571,-0.0257 -0.21717,0.20801 c -0.46539,0.4458 -1.08507,0.86344 -1.28114,0.86344 -0.0864,0 -0.10674,-0.0112 -0.12969,-0.0716 z m 14.66929,17.67491 2.81945,-1.67981 -0.0682,-0.0715 c -0.10022,-0.10509 -0.35136,-0.23015 -0.58959,-0.29357 -0.15922,-0.0424 -0.29901,-0.0567 -0.58428,-0.0596 l -0.37498,-0.004 -1.54012,0.86669 c -0.84707,0.47668 -1.55916,0.88347 -1.58241,0.90399 -0.0611,0.0539 -0.19414,0.0458 -0.27358,-0.0167 -0.13284,-0.10449 -0.15658,-0.35656 -0.0449,-0.47646 0.0271,-0.0291 0.11337,-0.0892 0.19164,-0.1336 0.18325,-0.10384 6.34809,-3.61995 11.7401,-6.69595 2.31286,-1.31942 4.86812,-2.77898 5.67836,-3.24346 1.46401,-0.83926 1.47413,-0.84452 1.62949,-0.84576 0.13886,-0.001 0.16356,0.007 0.22098,0.0739 0.0887,0.10312 0.0909,0.30739 0.004,0.40497 -0.0332,0.0374 -0.33145,0.22044 -0.66292,0.40683 -0.33146,0.18638 -1.50664,0.8477 -2.61151,1.4696 -1.10487,0.6219 -3.64205,2.04984 -5.63819,3.17321 -1.99613,1.12336 -3.67151,2.07157 -3.72307,2.10713 -0.0516,0.0356 -0.14799,0.11304 -0.21428,0.17218 l -0.12053,0.10753 0.17959,-0.0864 0.1796,-0.0864 0.20808,0.10561 c 0.20446,0.10376 0.47458,0.33739 0.62633,0.5417 l 0.0653,0.0879 3.6963,-2.19968 c 2.03296,-1.20983 4.79069,-2.85099 6.12829,-3.64703 1.33761,-0.79604 2.45736,-1.46787 2.48834,-1.49296 l 0.0563,-0.0456 -0.0604,-1.29687 c -0.0332,-0.71329 -0.0629,-1.29959 -0.0659,-1.30292 -0.003,-0.003 -3.39172,1.92598 -7.53043,4.28733 -4.13872,2.36135 -8.70318,4.96549 -10.14325,5.78697 -2.49747,1.42466 -2.62147,1.49895 -2.68629,1.60957 -0.18451,0.31483 -0.35588,0.87462 -0.42982,1.40392 -0.0488,0.34914 -0.0391,1.24663 0.016,1.48915 0.0636,0.27988 0.11011,0.39293 0.15458,0.37587 0.0231,-0.009 1.31079,-0.77206 2.86148,-1.69595 z m 11.9916,-5.60493 5.95128,-3.57692 0.008,-0.20975 c 0.007,-0.18094 0.002,-0.20754 -0.0339,-0.19371 -0.0421,0.0162 -0.69488,0.4022 -6.32197,3.73863 -1.69414,1.00449 -3.68542,2.18422 -4.42509,2.62162 l -1.34485,0.79528 -0.001,0.096 c -4e-4,0.0528 0.0126,0.16402 0.0293,0.24717 l 0.0303,0.15118 0.0784,-0.0463 c 0.0431,-0.0254 2.75648,-1.65589 6.02968,-3.6232 z m -10.96318,3.46989 c -0.0345,-0.0368 -0.0687,-0.061 -0.0759,-0.0537 -0.0178,0.0178 0.0772,0.12059 0.11144,0.12059 0.015,0 -8.1e-4,-0.0301 -0.0355,-0.0669 z"
       id="path4336" /><g
       id="g4367"
       transform="matrix(0.06051443,-0.02221946,0.07623232,0.04068219,123.3613,172.32396)"><g
         id="g4362"><path
           style="fill:#eaa23f;stroke-width:0.352778"
           d="m 57.945569,238.01673 c -5.159627,-0.99245 -11.667241,-3.80429 -14.798571,-6.39424 l -1.023546,-0.84658 1.311586,0.52616 c 1.777544,0.71309 4.729374,0.65182 6.449525,-0.13386 4.481555,-2.04696 6.439746,-7.54586 4.234812,-11.89199 -0.484258,-0.95452 -0.881133,-1.7684 -0.881945,-1.80862 -7.05e-4,-0.0402 0.911335,0.46932 2.026999,1.13231 5.01711,2.98149 12.45021,3.01267 17.72708,0.0744 1.32252,-0.73641 4.86057,-3.96502 11.1125,-10.14057 9.77188,-9.6525 10.23266,-9.99147 13.58194,-9.99147 3.272341,0 6.278051,1.85873 7.864381,4.86333 1.05876,2.00535 1.0593,5.81162 10e-4,7.78517 -1.10468,2.06026 -18.813741,19.53012 -21.623821,21.33175 -6.08535,3.90151 -11.70134,5.64152 -18.87361,5.84763 -2.96786,0.0853 -5.47614,-0.0394 -7.10844,-0.35338 z m -21.295926,-12.09752 -4.051191,-4.14514 4.145139,4.05119 c 2.279826,2.22815 4.145139,4.09347 4.145139,4.14514 0,0.25406 -0.476105,-0.20095 -4.239087,-4.05119 z m -12.873944,-12.87639 -7.052247,-7.14375 7.14375,7.05224 c 3.929063,3.87874 7.14375,7.09343 7.14375,7.14375 0,0.25076 -0.682713,-0.41468 -7.235253,-7.05224 z M 12.26873,201.22476 c -0.43881,-0.55952 -0.426332,-0.572 0.133195,-0.13319 0.339548,0.26629 0.617361,0.5441 0.617361,0.61736 0,0.29035 -0.289698,0.10347 -0.750556,-0.48417 z m 13.758333,-10.93611 c -0.43881,-0.55953 -0.426332,-0.572 0.133195,-0.13319 0.339549,0.26629 0.617361,0.5441 0.617361,0.61736 0,0.29035 -0.289698,0.10347 -0.750556,-0.48417 z m 30.963346,-3.62592 c -0.55443,-0.16615 -1.30849,-0.57398 -1.6757,-0.9063 -0.3672,-0.33232 -0.667646,-0.47256 -0.667646,-0.31165 0,0.1609 -0.396875,-0.0803 -0.881944,-0.53599 -0.48507,-0.4557 -0.881945,-1.00725 -0.881945,-1.22566 0,-0.21841 -0.198437,-0.59556 -0.440972,-0.83809 -0.242535,-0.24253 -0.454275,-0.5521 -0.470531,-0.68792 -0.01626,-0.13582 -0.214697,-0.69384 -0.440973,-1.24005 -0.485634,-1.17226 -0.552249,-3.5453 -0.09154,-3.26056 0.175934,0.10873 0.23543,-0.12524 0.132211,-0.51994 -0.110864,-0.42395 0.08307,-1.02646 0.473872,-1.47224 0.363848,-0.41503 0.447262,-0.62878 0.185371,-0.475 -0.375056,0.22023 -0.399874,0.13705 -0.116879,-0.39173 0.949656,-1.77445 3.884466,-3.88102 4.876546,-3.50032 0.28883,0.11084 0.42085,0.0445 0.30012,-0.15086 -0.14143,-0.22885 11.07805,-0.34874 32.63443,-0.34874 21.556391,0 32.775881,0.11989 32.634441,0.34874 -0.12113,0.19599 0.0122,0.26135 0.30439,0.14922 1.78797,-0.68611 5.86384,4.09921 5.42899,6.37397 -0.0912,0.4773 -0.0301,0.78389 0.13592,0.6813 0.166,-0.1026 0.30182,0.0703 0.30182,0.38427 0,0.31394 -0.13582,0.48686 -0.30182,0.38427 -0.166,-0.10259 -0.22692,0.20525 -0.13539,0.68408 0.0936,0.48959 -0.0991,1.27591 -0.44033,1.79665 -0.33372,0.50932 -0.40869,0.80362 -0.1666,0.65401 0.72938,-0.45079 -0.83163,1.9716 -1.73135,2.68671 -0.45937,0.36511 -0.99984,0.56209 -1.20104,0.43774 -0.20205,-0.12488 -0.26099,-0.0565 -0.13167,0.15277 0.28872,0.46716 -2.05644,1.29746 -2.64218,0.93545 -0.25908,-0.16011 -0.31992,-0.10345 -0.16247,0.15131 0.30396,0.49183 -63.188961,0.53548 -64.827131,0.0446 z M 4.58047,182.93912 c 0.01693,-0.41097 0.100521,-0.49456 0.213137,-0.21314 0.101907,0.25466 0.08937,0.55893 -0.02785,0.67616 -0.117225,0.11722 -0.200604,-0.0911 -0.185286,-0.46302 z m 17.340105,-2.96922 c 0,-0.6791 0.0726,-0.95691 0.161335,-0.61736 0.08873,0.33955 0.08873,0.89517 0,1.23472 -0.08873,0.33955 -0.161335,0.0617 -0.161335,-0.61736 z m 0,-2.46944 c 0,-0.6791 0.0726,-0.95691 0.161335,-0.61736 0.08873,0.33954 0.08873,0.89517 0,1.23472 -0.08873,0.33955 -0.161335,0.0617 -0.161335,-0.61736 z M 4.58047,174.47245 c 0.01693,-0.41097 0.100521,-0.49456 0.213137,-0.21314 0.101907,0.25466 0.08937,0.55893 -0.02785,0.67616 -0.117225,0.11722 -0.200604,-0.0911 -0.185286,-0.46302 z M 4.933248,172.003 c 0.01693,-0.41096 0.100521,-0.49455 0.213136,-0.21313 0.101908,0.25466 0.08937,0.55893 -0.02785,0.67616 -0.117226,0.11722 -0.200604,-0.0911 -0.185286,-0.46303 z m 27.841593,-11.89904 c 0,-0.0607 0.515938,-0.57665 1.146528,-1.14653 l 1.146528,-1.03614 -1.03614,1.14653 c -0.965828,1.06872 -1.256916,1.30868 -1.256916,1.03614 z m 62.421068,-1.63524 c -1.90494,-0.57803 -2.88336,-1.42622 -11.62107,-10.07421 -5.66283,-5.60468 -9.5713,-9.1945 -10.54903,-9.68897 -5.52968,-2.7966 -11.16191,-3.01506 -16.43247,-0.63739 -2.245837,1.01314 -3.309843,1.93621 -11.471276,9.95178 -4.947708,4.85928 1.561042,-1.75964 14.463886,-14.70871 12.90285,-12.94906 23.53705,-23.54383 23.63155,-23.54392 0.0945,-1e-4 -2.11843,2.29418 -4.91764,5.09838 l -5.08946,5.09856 0.96445,0.36668 c 0.53044,0.20168 1.394,0.47044 1.91902,0.59726 1.64795,0.39805 6.85833,3.15635 9.14015,4.83867 3.14702,2.32019 19.329741,18.61531 20.283471,20.42435 1.09871,2.08402 1.10795,5.83691 0.0195,7.89982 -0.97227,1.84265 -3.20346,3.77088 -4.97884,4.30279 -1.524891,0.45688 -3.989951,0.49131 -5.362211,0.0749 z m -83.587734,-1.56257 c 0,-0.0733 0.277812,-0.35107 0.617361,-0.61736 0.559527,-0.43881 0.572004,-0.42633 0.133195,0.13319 -0.460859,0.58764 -0.750556,0.77452 -0.750556,0.48417 z m 5.644444,-6.04042 c 2.224991,-2.23131 4.124812,-4.05694 4.221826,-4.05694 0.09701,0 -1.644058,1.82563 -3.869048,4.05694 -2.224991,2.23132 -4.124812,4.05695 -4.221826,4.05695 -0.09701,0 1.644058,-1.82563 3.869048,-4.05695 z m 10.230556,-10.23055 c 2.808382,-2.8134 5.185526,-5.11528 5.28254,-5.11528 0.09701,0 -2.12138,2.30188 -4.929763,5.11528 -2.808382,2.8134 -5.185526,5.11528 -5.28254,5.11528 -0.09701,0 2.12138,-2.30188 4.929763,-5.11528 z m 7.937499,-7.9375 c 0.351187,-0.38806 0.717896,-0.70556 0.81491,-0.70556 0.09701,0 -0.110945,0.3175 -0.462132,0.70556 -0.351187,0.38806 -0.717895,0.70555 -0.814909,0.70555 -0.09701,0 0.110945,-0.31749 0.462131,-0.70555 z m 6.173612,-6.17361 c 1.249969,-1.26118 2.352047,-2.29306 2.44906,-2.29306 0.09701,0 -0.846313,1.03188 -2.096283,2.29306 -1.249969,1.26118 -2.352047,2.29305 -2.449061,2.29305 -0.09701,0 0.846314,-1.03187 2.096284,-2.29305 z m 7.408333,-7.40833 c 1.053895,-1.06716 1.995551,-1.94028 2.092565,-1.94028 0.09701,0 -0.685892,0.87312 -1.739787,1.94028 -1.053896,1.06715 -1.995551,1.94027 -2.092565,1.94027 -0.09701,0 0.685891,-0.87312 1.739787,-1.94027 z m 5.291666,-5.29167 c 0.455701,-0.48507 0.907924,-0.88195 1.004934,-0.88195 0.097,0 -0.19646,0.39688 -0.652156,0.88195 -0.455701,0.48507 -0.907919,0.88194 -1.004933,0.88194 -0.09701,0 0.196455,-0.39687 0.652155,-0.88194 z m 31.750004,-7.05556 c 1.05389,-1.06715 1.99555,-1.94027 2.09256,-1.94027 0.097,0 -0.68589,0.87312 -1.73979,1.94027 -1.05389,1.06716 -1.99555,1.94028 -2.09256,1.94028 -0.097,0 0.68589,-0.87312 1.73979,-1.94028 z m 4.26118,-7.790508 c 0.0169,-0.41096 0.10052,-0.49456 0.21314,-0.21313 0.1019,0.25466 0.0894,0.55893 -0.0278,0.67615 -0.11722,0.11723 -0.2006,-0.0911 -0.18528,-0.46302 z m -10.32455,-8.85464 c 0.25466,-0.10191 0.55893,-0.0894 0.67616,0.0279 0.11722,0.11723 -0.0911,0.2006 -0.46302,0.18529 -0.41097,-0.0169 -0.49456,-0.10052 -0.21314,-0.21314 z m 2.82222,0 c 0.25466,-0.10191 0.55893,-0.0894 0.67616,0.0279 0.11722,0.11723 -0.0911,0.2006 -0.46302,0.18529 -0.41097,-0.0169 -0.49456,-0.10052 -0.21314,-0.21314 z"
           id="path4354" /></g><path
         style="fill:#ffffff;stroke-width:0.352778"
         d="m 42.829008,230.98351 c -1.38562,-0.65815 -4.870722,-3.96728 -16.251153,-15.43058 -8.51323,-8.57522 -15.035992,-15.43685 -15.817949,-16.63973 -2.048087,-3.15056 -4.290808,-8.20219 -5.199371,-11.71135 -0.697263,-2.69306 -0.818161,-4.00502 -0.796464,-8.64306 0.02214,-4.73198 0.149917,-5.93328 0.949239,-8.92404 1.063598,-3.97959 3.456179,-9.02504 5.703959,-12.02843 0.855715,-1.14338 15.710157,-16.32672 33.009871,-33.74076 23.427239,-23.58206 31.916239,-31.913458 33.265279,-32.647698 4.38914,-2.38887 9.88922,-0.46331 11.87734,4.15821 0.94503,2.19678 0.85332,5.347198 -0.21568,7.408888 -0.36518,0.70428 -14.75646,15.42442 -31.98061,32.71141 -19.675515,19.74729 -31.783388,32.16051 -32.572252,33.39371 -3.537486,5.52998 -3.833735,12.18004 -0.811827,18.22358 0.941677,1.88326 3.177664,4.28875 15.330248,16.49235 15.515837,15.58098 15.664711,15.76704 15.664711,19.57917 0,6.40209 -6.421507,10.52184 -12.155341,7.79833 z"
         id="path4352" /></g><text
       xml:space="preserve"
       style="font-style:normal;font-variant:normal;font-weight:bold;font-stretch:normal;font-size:3.87092px;font-family:'CMU Serif';-inkscape-font-specification:'CMU Serif, Bold';font-variant-ligatures:normal;font-variant-caps:normal;font-variant-numeric:normal;font-variant-east-asian:normal;fill:#ffffff;fill-opacity:1;stroke-width:2.71495;paint-order:markers fill stroke"
       x="136.18996"
       y="204.72905"
       id="text4371"><tspan
         sodipodi:role="line"
         id="tspan4369"
         style="font-style:normal;font-variant:normal;font-weight:normal;font-stretch:normal;font-size:3.87092px;font-family:'CMU Serif';-inkscape-font-specification:'CMU Serif, Normal';font-variant-ligatures:normal;font-variant-caps:normal;font-variant-numeric:normal;font-variant-east-asian:normal;text-align:center;text-anchor:middle;fill:#ffffff;stroke-width:2.71495"
         x="136.18996"
         y="204.72905">Your Leetcode </tspan><tspan
         sodipodi:role="line"
         style="font-style:normal;font-variant:normal;font-weight:normal;font-stretch:normal;font-size:3.87092px;font-family:'CMU Serif';-inkscape-font-specification:'CMU Serif, Normal';font-variant-ligatures:normal;font-variant-caps:normal;font-variant-numeric:normal;font-variant-east-asian:normal;text-align:center;text-anchor:middle;fill:#ffffff;stroke-width:2.71495"
         x="136.18996"
         y="209.5677"
         id="tspan4425">notebook</tspan></text></g></svg>
