<?xml version="1.0" encoding="UTF-8" standalone="no"?>
<!-- Created with Inkscape (http://www.inkscape.org/) -->

<svg
   width="63.722126mm"
   height="64.389519mm"
   viewBox="0 0 63.722126 64.389519"
   version="1.1"
   id="svg1655"
   inkscape:version="1.2.2 (b0a84865, 2022-12-01)"
   sodipodi:docname="q-hierarchy.svg"
   xmlns:inkscape="http://www.inkscape.org/namespaces/inkscape"
   xmlns:sodipodi="http://sodipodi.sourceforge.net/DTD/sodipodi-0.dtd"
   xmlns:xlink="http://www.w3.org/1999/xlink"
   xmlns="http://www.w3.org/2000/svg"
   xmlns:svg="http://www.w3.org/2000/svg">
  <sodipodi:namedview
     id="namedview1657"
     pagecolor="#000000"
     bordercolor="#000000"
     borderopacity="0.25"
     inkscape:showpageshadow="2"
     inkscape:pageopacity="0"
     inkscape:pagecheckerboard="0"
     inkscape:deskcolor="#d1d1d1"
     inkscape:document-units="mm"
     showgrid="false"
     inkscape:zoom="1.5451224"
     inkscape:cx="-25.887917"
     inkscape:cy="111.64164"
     inkscape:window-width="1512"
     inkscape:window-height="917"
     inkscape:window-x="0"
     inkscape:window-y="65"
     inkscape:window-maximized="0"
     inkscape:current-layer="layer1" />
  <defs
     id="defs1652">
    <linearGradient
       inkscape:collect="always"
       id="linearGradient24566">
      <stop
         style="stop-color:#9f9e3f;stop-opacity:1"
         offset="0"
         id="stop24560" />
      <stop
         style="stop-color:#5a8c28;stop-opacity:1;"
         offset="0.12372678"
         id="stop24568" />
      <stop
         style="stop-color:#265b4d;stop-opacity:1"
         offset="0.25815436"
         id="stop24562" />
      <stop
         style="stop-color:#1c0631;stop-opacity:1"
         offset="1"
         id="stop24564" />
    </linearGradient>
    <linearGradient
       inkscape:collect="always"
       xlink:href="#linearGradient24566"
       id="linearGradient3173"
       x1="106.23534"
       y1="206.48756"
       x2="106.78127"
       y2="153.35701"
       gradientUnits="userSpaceOnUse"
       gradientTransform="matrix(0.53649294,0,0,0.55587992,64.887648,81.907327)" />
  </defs>
  <g
     inkscape:label="Layer 1"
     inkscape:groupmode="layer"
     id="layer1"
     transform="translate(-96.503343,-147.7671)">
    <path
       id="rect24512"
       style="fill:url(#linearGradient3173);stroke-width:6.51982;paint-order:markers fill stroke"
       d="m 121.47684,167.13016 h 1.04246 c 0.48557,0 0.87647,0.3909 0.87647,0.87646 v 28.0215 c 0,0.48556 -0.3909,0.87647 -0.87647,0.87647 h -1.04246 c -0.48556,0 -0.87646,-0.39091 -0.87646,-0.87647 v -28.0215 c 0,-0.48556 0.3909,-0.87646 0.87646,-0.87646 z" />
    <g
       aria-label="Easy



Hard



Case Study"
       id="text24520"
       style="font-weight:500;font-size:2.16505px;font-family:'CMU Serif';-inkscape-font-specification:'CMU Serif, Medium';fill:#ffffff;stroke-width:1.51851;paint-order:markers fill stroke">
      <path
         d="m 127.03782,171.5712 v -0.0671 h 0.052 q 0.11691,0 0.14289,-0.0195 0.0281,-0.0195 0.0281,-0.0823 v -1.13448 q 0,-0.0628 -0.0281,-0.0823 -0.026,-0.0195 -0.14289,-0.0195 h -0.052 v -0.0671 h 1.21893 l 0.0606,0.48714 h -0.0541 q -0.0152,-0.12341 -0.0346,-0.19485 -0.0195,-0.0715 -0.0671,-0.12558 -0.0455,-0.0563 -0.1234,-0.0779 -0.0758,-0.0216 -0.19919,-0.0216 h -0.27929 q -0.0736,0 -0.0909,0.0152 -0.0152,0.0152 -0.0152,0.0714 v 0.51961 h 0.19486 q 0.14939,0 0.19052,-0.052 0.0433,-0.052 0.0433,-0.20135 h 0.0541 v 0.57374 h -0.0541 q 0,-0.14722 -0.0433,-0.19918 -0.0411,-0.0541 -0.19052,-0.0541 h -0.19486 v 0.57807 q 0,0.0563 0.0152,0.0714 0.0173,0.0151 0.0909,0.0151 h 0.28795 q 0.0931,0 0.16022,-0.0108 0.0693,-0.013 0.11691,-0.0433 0.0476,-0.0303 0.0801,-0.065 0.0325,-0.0346 0.0541,-0.0974 0.0238,-0.0628 0.0368,-0.12125 0.013,-0.0584 0.0281,-0.15372 h 0.0541 l -0.0909,0.55859 z"
         id="path3500" />
      <path
         d="m 128.52954,171.36552 q 0,-0.18403 0.2165,-0.28146 0.12991,-0.0628 0.39837,-0.0779 v -0.0801 q 0,-0.13423 -0.0714,-0.20568 -0.0693,-0.0714 -0.15805,-0.0714 -0.15805,0 -0.23383,0.0996 0.0649,0.002 0.0866,0.0346 0.0238,0.0325 0.0238,0.065 0,0.0433 -0.0281,0.0714 -0.026,0.0281 -0.0714,0.0281 -0.0433,0 -0.0714,-0.026 -0.0281,-0.0281 -0.0281,-0.0758 0,-0.10609 0.0953,-0.17537 0.0953,-0.0693 0.23166,-0.0693 0.17753,0 0.29661,0.11907 0.0368,0.0368 0.0541,0.0844 0.0195,0.0476 0.0216,0.0801 0.002,0.0303 0.002,0.0909 v 0.43301 q 0,0.013 0.004,0.0346 0.004,0.0195 0.0238,0.0476 0.0195,0.026 0.052,0.026 0.0779,0 0.0779,-0.13856 v -0.12124 h 0.0541 v 0.12124 q 0,0.11475 -0.0606,0.16021 -0.0606,0.0455 -0.11692,0.0455 -0.0714,0 -0.11691,-0.052 -0.0455,-0.0541 -0.052,-0.12558 -0.0325,0.0823 -0.10825,0.1364 -0.0736,0.052 -0.17537,0.052 -0.0779,0 -0.15156,-0.0195 -0.0736,-0.0195 -0.13423,-0.0736 -0.0606,-0.0541 -0.0606,-0.1364 z m 0.16671,-0.002 q 0,0.0801 0.0563,0.13207 0.0585,0.052 0.13856,0.052 0.0909,0 0.17104,-0.0693 0.0823,-0.0714 0.0823,-0.21001 v -0.2165 q -0.24032,0.009 -0.34424,0.10392 -0.10392,0.0953 -0.10392,0.20784 z"
         id="path3502" />
      <path
         d="m 129.59258,171.54305 v -0.28578 q 0,-0.0238 0,-0.0325 0.002,-0.009 0.009,-0.0152 0.006,-0.006 0.0195,-0.006 0.0152,0 0.0195,0.006 0.006,0.006 0.0108,0.0303 0.0325,0.14939 0.10176,0.2295 0.0714,0.0779 0.19918,0.0779 0.12125,0 0.18187,-0.0541 0.0628,-0.0541 0.0628,-0.1429 0,-0.15805 -0.22516,-0.19918 -0.1299,-0.026 -0.18403,-0.0433 -0.0541,-0.0173 -0.10176,-0.0563 -0.0931,-0.0758 -0.0931,-0.18403 0,-0.10826 0.0823,-0.1862 0.0823,-0.0801 0.26413,-0.0801 0.12125,0 0.20352,0.0606 0.0238,-0.0195 0.0368,-0.0346 0.0281,-0.026 0.0433,-0.026 0.0173,0 0.0195,0.0108 0.004,0.0108 0.004,0.0411 v 0.21867 q 0,0.0238 -0.002,0.0325 0,0.009 -0.006,0.0152 -0.006,0.004 -0.0195,0.004 -0.0238,0 -0.026,-0.0195 -0.0173,-0.26197 -0.25331,-0.26197 -0.12773,0 -0.18619,0.0498 -0.0563,0.0476 -0.0563,0.11474 0,0.0368 0.0173,0.065 0.0173,0.0281 0.039,0.0455 0.0238,0.0152 0.0649,0.0303 0.0433,0.0152 0.0693,0.0216 0.026,0.004 0.0758,0.0152 0.1732,0.0325 0.24681,0.10392 0.0909,0.0909 0.0909,0.20568 0,0.12774 -0.0866,0.21434 -0.0866,0.0866 -0.26197,0.0866 -0.14072,0 -0.23815,-0.0931 -0.013,0.013 -0.0238,0.0238 -0.009,0.0108 -0.013,0.0152 -0.002,0.004 -0.004,0.006 0,0.002 -0.002,0.004 -0.0433,0.0433 -0.0541,0.0433 -0.0173,0 -0.0216,-0.0108 -0.002,-0.0108 -0.002,-0.0411 z"
         id="path3504" />
      <path
         d="m 130.41529,171.83966 q 0,-0.0455 0.026,-0.0693 0.0282,-0.0238 0.065,-0.0238 0.039,0 0.065,0.0238 0.026,0.026 0.026,0.0671 0,0.0801 -0.0844,0.0909 0.0411,0.039 0.10176,0.039 0.065,0 0.11691,-0.0476 0.052,-0.0476 0.0736,-0.0931 0.0238,-0.0455 0.0563,-0.12773 0.0303,-0.065 0.0541,-0.12774 l -0.32476,-0.79025 q -0.0217,-0.052 -0.0541,-0.0628 -0.0325,-0.013 -0.12125,-0.013 v -0.0671 q 0.0974,0.007 0.21001,0.007 0.0671,0 0.23599,-0.007 v 0.0671 q -0.12124,0 -0.12124,0.0563 0,0.006 0.013,0.039 l 0.24032,0.5824 0.21867,-0.5326 q 0.013,-0.0303 0.013,-0.052 0,-0.0888 -0.10176,-0.0931 v -0.0671 q 0.1429,0.007 0.18836,0.007 0.0888,0 0.16238,-0.007 v 0.0671 q -0.14506,0 -0.20135,0.13856 l -0.38105,0.92448 q -0.10392,0.24681 -0.27712,0.24681 -0.0823,0 -0.14073,-0.052 -0.0585,-0.0498 -0.0585,-0.12341 z"
         id="path3506" />
      <path
         d="m 127.03782,182.39645 v -0.0671 h 0.052 q 0.11691,0 0.14289,-0.0195 0.0281,-0.0195 0.0281,-0.0823 v -1.14098 q 0,-0.0628 -0.0281,-0.0823 -0.026,-0.0195 -0.14289,-0.0195 h -0.052 v -0.0671 q 0.0758,0.006 0.32043,0.006 0.24249,0 0.31826,-0.006 v 0.0671 h -0.052 q -0.11691,0 -0.14506,0.0195 -0.026,0.0195 -0.026,0.0823 v 0.50662 h 0.64735 v -0.50662 q 0,-0.0628 -0.0281,-0.0823 -0.026,-0.0195 -0.1429,-0.0195 h -0.052 v -0.0671 q 0.0758,0.006 0.32043,0.006 0.24249,0 0.31826,-0.006 v 0.0671 h -0.052 q -0.11691,0 -0.14506,0.0195 -0.026,0.0195 -0.026,0.0823 v 1.14098 q 0,0.0628 0.026,0.0823 0.0282,0.0195 0.14506,0.0195 h 0.052 v 0.0671 q -0.0758,-0.006 -0.32042,-0.006 -0.24249,0 -0.31827,0.006 v -0.0671 h 0.052 q 0.11692,0 0.1429,-0.0195 0.0281,-0.0195 0.0281,-0.0823 v -0.56724 h -0.64735 v 0.56724 q 0,0.0628 0.026,0.0823 0.0281,0.0195 0.14506,0.0195 h 0.052 v 0.0671 q -0.0758,-0.006 -0.32042,-0.006 -0.24249,0 -0.31827,0.006 z"
         id="path3508" />
      <path
         d="m 128.68109,182.19077 q 0,-0.18403 0.21651,-0.28146 0.1299,-0.0628 0.39837,-0.0779 v -0.0801 q 0,-0.13423 -0.0714,-0.20568 -0.0693,-0.0714 -0.15805,-0.0714 -0.15805,0 -0.23382,0.0996 0.065,0.002 0.0866,0.0346 0.0238,0.0325 0.0238,0.0649 0,0.0433 -0.0281,0.0714 -0.026,0.0281 -0.0714,0.0281 -0.0433,0 -0.0714,-0.026 -0.0281,-0.0281 -0.0281,-0.0758 0,-0.10609 0.0953,-0.17537 0.0953,-0.0693 0.23166,-0.0693 0.17754,0 0.29661,0.11907 0.0368,0.0368 0.0541,0.0844 0.0195,0.0476 0.0216,0.0801 0.002,0.0303 0.002,0.0909 v 0.43301 q 0,0.013 0.004,0.0346 0.004,0.0195 0.0238,0.0476 0.0195,0.026 0.052,0.026 0.0779,0 0.0779,-0.13856 v -0.12124 h 0.0541 v 0.12124 q 0,0.11475 -0.0606,0.16021 -0.0606,0.0455 -0.11691,0.0455 -0.0714,0 -0.11692,-0.052 -0.0455,-0.0541 -0.052,-0.12558 -0.0325,0.0823 -0.10825,0.1364 -0.0736,0.052 -0.17537,0.052 -0.0779,0 -0.15155,-0.0195 -0.0736,-0.0195 -0.13424,-0.0736 -0.0606,-0.0541 -0.0606,-0.1364 z m 0.16671,-0.002 q 0,0.0801 0.0563,0.13207 0.0585,0.052 0.13857,0.052 0.0909,0 0.17104,-0.0693 0.0823,-0.0714 0.0823,-0.21001 v -0.2165 q -0.24032,0.009 -0.34425,0.10392 -0.10392,0.0953 -0.10392,0.20784 z"
         id="path3510" />
      <path
         d="m 129.7333,182.39645 v -0.0671 q 0.11475,0 0.14073,-0.013 0.0281,-0.0152 0.0281,-0.0844 v -0.58023 q 0,-0.0801 -0.0281,-0.0996 -0.0281,-0.0216 -0.14073,-0.0216 v -0.0671 l 0.30094,-0.0238 v 0.23815 q 0.0303,-0.0931 0.0953,-0.16454 0.0649,-0.0736 0.17104,-0.0736 0.0693,0 0.11474,0.039 0.0455,0.039 0.0455,0.0931 0,0.0476 -0.0303,0.0714 -0.0282,0.0238 -0.0628,0.0238 -0.039,0 -0.0671,-0.0238 -0.026,-0.026 -0.026,-0.0693 0,-0.026 0.0108,-0.0455 0.013,-0.0216 0.0216,-0.0281 0.0108,-0.009 0.0173,-0.0108 -0.004,-0.002 -0.0238,-0.002 -0.11908,0 -0.18836,0.11907 -0.0671,0.11908 -0.0671,0.28796 v 0.33341 q 0,0.0628 0.026,0.0823 0.026,0.0195 0.13856,0.0195 h 0.0455 v 0.0671 q -0.0866,-0.006 -0.27496,-0.006 -0.026,0 -0.0671,0.002 -0.0411,0 -0.0953,0.002 -0.0541,0.002 -0.0844,0.002 z"
         id="path3512" />
      <path
         d="m 130.59283,181.93096 q 0,-0.20568 0.14289,-0.34857 0.14506,-0.14289 0.33991,-0.14289 0.16455,0 0.2728,0.13423 v -0.46765 q 0,-0.0801 -0.0282,-0.0996 -0.0281,-0.0217 -0.14073,-0.0217 v -0.0671 l 0.31177,-0.0238 v 1.31419 q 0,0.0801 0.0282,0.10176 0.0281,0.0195 0.14072,0.0195 v 0.0671 l -0.31826,0.0238 v -0.14289 q -0.11258,0.14289 -0.29011,0.14289 -0.1862,0 -0.3226,-0.14289 -0.13639,-0.14289 -0.13639,-0.34641 z m 0.17969,0.002 q 0,0.20135 0.0628,0.30094 0.0866,0.13856 0.22733,0.13856 0.16021,0 0.25548,-0.15155 0.0238,-0.0368 0.0238,-0.0801 v -0.44383 q 0,-0.0433 -0.0238,-0.0801 -0.0888,-0.1299 -0.23383,-0.1299 -0.15155,0 -0.24465,0.13856 -0.0671,0.10392 -0.0671,0.30744 z"
         id="path3514" />
      <path
         d="m 127.08762,192.48125 q 0,-0.32692 0.223,-0.55642 0.223,-0.22949 0.53044,-0.22949 0.0953,0 0.1797,0.0346 0.0844,0.0346 0.1234,0.0649 0.039,0.0303 0.0953,0.0866 l 0.10825,-0.16021 q 0.0173,-0.026 0.0346,-0.026 0.0173,0 0.0195,0.0108 0.004,0.009 0.004,0.0411 v 0.51312 q 0,0.0346 -0.004,0.0433 -0.004,0.009 -0.0303,0.009 -0.0216,0 -0.026,-0.006 -0.004,-0.006 -0.009,-0.0303 -0.0325,-0.23382 -0.16237,-0.37239 -0.12991,-0.14073 -0.30961,-0.14073 -0.052,0 -0.11041,0.013 -0.0563,0.0108 -0.14073,0.0563 -0.0823,0.0433 -0.14723,0.11691 -0.0628,0.0736 -0.11041,0.21217 -0.0455,0.13857 -0.0455,0.3226 0,0.18186 0.0455,0.32259 0.0476,0.13856 0.11041,0.21217 0.065,0.0714 0.14723,0.11692 0.0844,0.0433 0.14289,0.0563 0.0585,0.0108 0.11042,0.0108 0.18619,0 0.32909,-0.13207 0.14289,-0.13206 0.15588,-0.35506 0.002,-0.0108 0.002,-0.0152 0,-0.004 0.002,-0.009 0.002,-0.006 0.006,-0.009 0.006,-0.002 0.0152,-0.002 0.0281,0 0.0281,0.0368 0,0.20568 -0.15805,0.37888 -0.15805,0.17321 -0.40703,0.17321 -0.30744,0 -0.53044,-0.22733 -0.223,-0.2295 -0.223,-0.56075 z"
         id="path3516" />
      <path
         d="m 128.62047,193.01602 q 0,-0.18403 0.21651,-0.28146 0.1299,-0.0628 0.39837,-0.0779 v -0.0801 q 0,-0.13423 -0.0714,-0.20568 -0.0693,-0.0714 -0.15805,-0.0714 -0.15805,0 -0.23382,0.0996 0.065,0.002 0.0866,0.0346 0.0238,0.0325 0.0238,0.065 0,0.0433 -0.0281,0.0714 -0.026,0.0281 -0.0714,0.0281 -0.0433,0 -0.0714,-0.026 -0.0281,-0.0281 -0.0281,-0.0758 0,-0.10609 0.0953,-0.17537 0.0953,-0.0693 0.23166,-0.0693 0.17753,0 0.29661,0.11907 0.0368,0.0368 0.0541,0.0844 0.0195,0.0476 0.0216,0.0801 0.002,0.0303 0.002,0.0909 v 0.43301 q 0,0.013 0.004,0.0346 0.004,0.0195 0.0238,0.0476 0.0195,0.026 0.052,0.026 0.0779,0 0.0779,-0.13856 v -0.12124 h 0.0541 v 0.12124 q 0,0.11475 -0.0606,0.16021 -0.0606,0.0455 -0.11691,0.0455 -0.0714,0 -0.11692,-0.052 -0.0455,-0.0541 -0.052,-0.12558 -0.0325,0.0823 -0.10825,0.1364 -0.0736,0.052 -0.17537,0.052 -0.0779,0 -0.15155,-0.0195 -0.0736,-0.0195 -0.13424,-0.0736 -0.0606,-0.0541 -0.0606,-0.1364 z m 0.16671,-0.002 q 0,0.0801 0.0563,0.13207 0.0585,0.052 0.13856,0.052 0.0909,0 0.17104,-0.0693 0.0823,-0.0714 0.0823,-0.21001 v -0.2165 q -0.24032,0.009 -0.34425,0.10392 -0.10392,0.0953 -0.10392,0.20784 z"
         id="path3518" />
      <path
         d="m 129.68351,193.19355 v -0.28578 q 0,-0.0238 0,-0.0325 0.002,-0.009 0.009,-0.0152 0.006,-0.006 0.0195,-0.006 0.0152,0 0.0195,0.006 0.006,0.006 0.0108,0.0303 0.0325,0.14938 0.10176,0.22949 0.0714,0.0779 0.19919,0.0779 0.12124,0 0.18186,-0.0541 0.0628,-0.0541 0.0628,-0.1429 0,-0.15805 -0.22517,-0.19918 -0.1299,-0.026 -0.18403,-0.0433 -0.0541,-0.0173 -0.10176,-0.0563 -0.0931,-0.0758 -0.0931,-0.18403 0,-0.10826 0.0823,-0.1862 0.0823,-0.0801 0.26413,-0.0801 0.12125,0 0.20352,0.0606 0.0238,-0.0195 0.0368,-0.0346 0.0281,-0.026 0.0433,-0.026 0.0173,0 0.0195,0.0108 0.004,0.0108 0.004,0.0411 v 0.21867 q 0,0.0238 -0.002,0.0325 0,0.009 -0.007,0.0152 -0.006,0.004 -0.0195,0.004 -0.0238,0 -0.026,-0.0195 -0.0173,-0.26197 -0.25332,-0.26197 -0.12773,0 -0.18619,0.0498 -0.0563,0.0476 -0.0563,0.11475 0,0.0368 0.0173,0.065 0.0173,0.0281 0.039,0.0455 0.0238,0.0152 0.065,0.0303 0.0433,0.0152 0.0693,0.0216 0.026,0.004 0.0758,0.0152 0.1732,0.0325 0.24682,0.10392 0.0909,0.0909 0.0909,0.20568 0,0.12774 -0.0866,0.21434 -0.0866,0.0866 -0.26197,0.0866 -0.14073,0 -0.23816,-0.0931 -0.013,0.013 -0.0238,0.0238 -0.009,0.0108 -0.013,0.0152 -0.002,0.004 -0.004,0.006 0,0.002 -0.002,0.004 -0.0433,0.0433 -0.0541,0.0433 -0.0173,0 -0.0217,-0.0108 -0.002,-0.0108 -0.002,-0.0411 z"
         id="path3520" />
      <path
         d="m 130.52571,192.74539 q 0,-0.20352 0.1299,-0.34858 0.13207,-0.14505 0.32043,-0.14505 0.19052,0 0.28795,0.1234 0.0996,0.12341 0.0996,0.30095 0,0.0325 -0.009,0.039 -0.009,0.006 -0.0455,0.006 h -0.60405 q 0,0.22084 0.065,0.32476 0.0909,0.14506 0.24465,0.14506 0.0217,0 0.0455,-0.004 0.026,-0.004 0.0779,-0.0216 0.052,-0.0195 0.0974,-0.0693 0.0455,-0.0498 0.0714,-0.12773 0.007,-0.0303 0.0282,-0.0303 0.0281,0 0.0281,0.026 0,0.0195 -0.0217,0.0628 -0.0195,0.0411 -0.0584,0.0931 -0.039,0.0498 -0.11475,0.0888 -0.0758,0.0368 -0.16671,0.0368 -0.19052,0 -0.33342,-0.14289 -0.14289,-0.14506 -0.14289,-0.35723 z m 0.18186,-0.0693 h 0.51312 q 0,-0.0455 -0.009,-0.0953 -0.006,-0.052 -0.0303,-0.12124 -0.0217,-0.0714 -0.0758,-0.11475 -0.052,-0.0455 -0.1299,-0.0455 -0.0346,0 -0.0736,0.0152 -0.0368,0.0152 -0.0823,0.052 -0.0455,0.0346 -0.0779,0.11692 -0.0303,0.0801 -0.0346,0.19269 z"
         id="path3522" />
      <path
         d="m 132.26857,193.21737 v -0.43301 q 0,-0.0238 0,-0.0325 0.002,-0.009 0.009,-0.0152 0.006,-0.006 0.0195,-0.006 0.0238,0 0.026,0.0216 0.007,0.21434 0.13424,0.33342 0.12557,0.11691 0.34207,0.11691 0.12991,0 0.21001,-0.0931 0.0801,-0.0931 0.0801,-0.21651 0,-0.11691 -0.0671,-0.19918 -0.0281,-0.0368 -0.0649,-0.0606 -0.0346,-0.0238 -0.0563,-0.0303 -0.0216,-0.009 -0.0628,-0.0195 -0.26847,-0.065 -0.28579,-0.0714 -0.12774,-0.0433 -0.20568,-0.15155 -0.0779,-0.11042 -0.0779,-0.24465 0,-0.17321 0.12124,-0.29661 0.12341,-0.12341 0.30094,-0.12341 0.0888,0 0.16238,0.0281 0.0758,0.0282 0.10609,0.0541 0.0303,0.0238 0.0779,0.0693 l 0.0758,-0.12341 q 0.0173,-0.0281 0.0325,-0.0281 0.0173,0 0.0195,0.0108 0.004,0.009 0.004,0.0411 v 0.43517 q 0,0.0238 -0.002,0.0325 0,0.009 -0.006,0.0152 -0.007,0.004 -0.0195,0.004 -0.0216,0 -0.026,-0.026 -0.0606,-0.45249 -0.42218,-0.45249 -0.12341,0 -0.20568,0.0844 -0.0801,0.0823 -0.0801,0.19918 0,0.0953 0.0585,0.1732 0.0606,0.0779 0.16021,0.10176 l 0.27713,0.0671 q 0.13856,0.0325 0.23166,0.15588 0.0931,0.12124 0.0931,0.28146 0,0.18403 -0.12124,0.31826 -0.11908,0.13207 -0.30527,0.13207 -0.13423,0 -0.23816,-0.0455 -0.10392,-0.0433 -0.16021,-0.10608 -0.0433,0.0714 -0.0715,0.11258 l -0.006,0.0108 q -0.0173,0.0281 -0.0325,0.0281 -0.0173,0 -0.0217,-0.0108 -0.002,-0.0108 -0.002,-0.0411 z"
         id="path3524" />
      <path
         d="m 133.39006,192.35568 v -0.0476 q 0.0996,-0.004 0.16454,-0.0736 0.0671,-0.0714 0.0888,-0.15804 0.0238,-0.0866 0.026,-0.1862 h 0.0541 v 0.39837 h 0.3096 v 0.0671 h -0.3096 v 0.60188 q 0,0.23383 0.14506,0.23383 0.0628,0 0.10392,-0.0628 0.0411,-0.065 0.0411,-0.1797 v -0.11908 h 0.0541 v 0.12341 q 0,0.11691 -0.0541,0.20568 -0.0541,0.0866 -0.16021,0.0866 -0.039,0 -0.0779,-0.0108 -0.039,-0.009 -0.0888,-0.0346 -0.0498,-0.026 -0.0823,-0.0888 -0.0303,-0.0649 -0.0303,-0.15805 v -0.59755 z"
         id="path3526" />
      <path
         d="m 134.25824,192.35568 v -0.0671 l 0.31826,-0.0238 v 0.71879 q 0,0.052 0.004,0.0823 0.004,0.0303 0.0217,0.065 0.0173,0.0346 0.0585,0.052 0.0411,0.0152 0.10609,0.0152 0.11691,0 0.18836,-0.0953 0.0736,-0.0974 0.0736,-0.24032 v -0.38538 q 0,-0.0801 -0.0281,-0.0996 -0.0281,-0.0216 -0.14072,-0.0216 v -0.0671 l 0.31826,-0.0238 v 0.76859 q 0,0.0801 0.0281,0.10176 0.0282,0.0195 0.14073,0.0195 v 0.0671 l -0.31177,0.0238 v -0.19485 q -0.0909,0.19485 -0.27929,0.19485 -0.0953,0 -0.16021,-0.0238 -0.065,-0.0238 -0.0974,-0.0541 -0.0325,-0.0303 -0.0498,-0.0888 -0.0173,-0.0584 -0.0195,-0.0931 -0.002,-0.0368 -0.002,-0.10609 v -0.32476 q 0,-0.14722 -0.0216,-0.1732 -0.0217,-0.026 -0.14723,-0.026 z"
         id="path3528" />
      <path
         d="m 135.46417,192.75621 q 0,-0.20568 0.14289,-0.34857 0.14506,-0.14289 0.33992,-0.14289 0.16454,0 0.27279,0.13423 v -0.46765 q 0,-0.0801 -0.0281,-0.0996 -0.0282,-0.0216 -0.14073,-0.0216 v -0.0671 l 0.31177,-0.0238 v 1.31419 q 0,0.0801 0.0281,0.10176 0.0282,0.0195 0.14073,0.0195 v 0.0671 l -0.31826,0.0238 v -0.14289 q -0.11258,0.14289 -0.29012,0.14289 -0.18619,0 -0.32259,-0.14289 -0.1364,-0.14289 -0.1364,-0.34641 z m 0.1797,0.002 q 0,0.20135 0.0628,0.30094 0.0866,0.13856 0.22733,0.13856 0.16021,0 0.25547,-0.15155 0.0238,-0.0368 0.0238,-0.0801 v -0.44383 q 0,-0.0433 -0.0238,-0.0801 -0.0888,-0.1299 -0.23382,-0.1299 -0.15156,0 -0.24465,0.13856 -0.0671,0.10392 -0.0671,0.30744 z"
         id="path3530" />
      <path
         d="m 136.63329,193.49016 q 0,-0.0455 0.026,-0.0693 0.0282,-0.0238 0.065,-0.0238 0.039,0 0.0649,0.0238 0.026,0.026 0.026,0.0671 0,0.0801 -0.0844,0.0909 0.0411,0.039 0.10176,0.039 0.065,0 0.11691,-0.0476 0.052,-0.0476 0.0736,-0.0931 0.0238,-0.0455 0.0563,-0.12773 0.0303,-0.065 0.0541,-0.12774 l -0.32476,-0.79025 q -0.0216,-0.052 -0.0541,-0.0628 -0.0325,-0.013 -0.12125,-0.013 v -0.0671 q 0.0974,0.007 0.21001,0.007 0.0671,0 0.23599,-0.007 v 0.0671 q -0.12124,0 -0.12124,0.0563 0,0.006 0.013,0.039 l 0.24032,0.5824 0.21867,-0.5326 q 0.013,-0.0303 0.013,-0.052 0,-0.0888 -0.10175,-0.0931 v -0.0671 q 0.14289,0.007 0.18835,0.007 0.0888,0 0.16238,-0.007 v 0.0671 q -0.14505,0 -0.20135,0.13856 l -0.38104,0.92448 q -0.10393,0.24681 -0.27713,0.24681 -0.0823,0 -0.14073,-0.052 -0.0585,-0.0498 -0.0585,-0.12341 z"
         id="path3532" />
    </g>
    <g
       aria-label="Question Heirarchy"
       id="text24532"
       style="font-weight:bold;font-size:2.30281px;font-family:'CMU Serif';-inkscape-font-specification:'CMU Serif, Bold';fill:#ffffff;stroke-width:1.61514;paint-order:markers fill stroke">
      <path
         d="m 117.20156,152.93294 q 0,-0.36845 0.22797,-0.59643 0.23029,-0.22798 0.61946,-0.22798 0.38227,0 0.61255,0.22568 0.23258,0.22567 0.23258,0.59873 0,0.10363 -0.023,0.20265 -0.023,0.099 -0.0737,0.20495 -0.0484,0.10362 -0.14738,0.19113 -0.0967,0.0875 -0.23258,0.14047 0.0322,0.0484 0.0622,0.0783 0.0299,0.0299 0.0576,0.0414 0.0299,0.0115 0.0461,0.0138 0.0184,0.002 0.0461,0.002 0.18192,0 0.19574,-0.0898 0.007,-0.0461 0.0414,-0.0461 0.0414,0 0.0414,0.0599 0,0.0898 -0.0276,0.18192 -0.0276,0.0921 -0.10362,0.1681 -0.076,0.0783 -0.18423,0.0783 -0.0622,0 -0.11053,-0.0253 -0.0484,-0.023 -0.0783,-0.053 -0.0276,-0.0299 -0.0553,-0.099 -0.0276,-0.0668 -0.0415,-0.11744 -0.0138,-0.0484 -0.0391,-0.14738 -0.10363,0.0207 -0.21877,0.0207 -0.39378,0 -0.62176,-0.22337 -0.22567,-0.22337 -0.22567,-0.58261 z m 0.33851,-0.002 q 0,0.0944 0.007,0.1658 0.007,0.0714 0.0299,0.17962 0.0253,0.10593 0.0898,0.18883 0.0645,0.0829 0.1635,0.13126 -0.007,-0.0161 -0.007,-0.0507 0,-0.0806 0.0668,-0.13357 0.0668,-0.0553 0.15659,-0.0553 0.0714,0 0.13356,0.0391 0.0622,0.0368 0.0898,0.0714 0.0276,0.0322 0.0645,0.0875 0.22107,-0.15199 0.22107,-0.62406 0,-0.3224 -0.0944,-0.4882 -0.13586,-0.24179 -0.4145,-0.24179 -0.0461,0 -0.0944,0.009 -0.0484,0.009 -0.10823,0.0345 -0.0599,0.0253 -0.11975,0.0806 -0.0576,0.053 -0.099,0.13126 -0.0852,0.1635 -0.0852,0.47438 z m 0.36615,0.61485 q 0,0.0207 0.007,0.0414 0.009,0.0184 0.0438,0.0392 0.0345,0.0207 0.0921,0.0207 0.10593,0 0.18883,-0.0368 -0.053,-0.17041 -0.18883,-0.17041 -0.0576,0 -0.10132,0.0299 -0.0414,0.0299 -0.0414,0.076 z"
         id="path3442" />
      <path
         d="m 119.14513,152.80398 v -0.10823 l 0.42141,-0.0184 v 0.78526 q 0,0.10593 0.0299,0.14507 0.0299,0.0368 0.15428,0.0368 0.12666,0 0.20495,-0.0852 0.0806,-0.0852 0.0806,-0.22567 v -0.43984 q 0,-0.0645 -0.0253,-0.076 -0.023,-0.0138 -0.13356,-0.0138 v -0.10823 l 0.42141,-0.0184 v 0.83822 q 0,0.0645 0.023,0.0783 0.0253,0.0115 0.13587,0.0115 v 0.10823 l -0.4076,0.0138 v -0.17962 q -0.10593,0.17962 -0.3316,0.17962 -0.19574,0 -0.30628,-0.0622 -0.10823,-0.0645 -0.10823,-0.23488 v -0.53656 q 0,-0.0645 -0.0253,-0.076 -0.023,-0.0138 -0.13356,-0.0138 z"
         id="path3444" />
      <path
         d="m 120.58438,153.19546 q 0,-0.22568 0.14968,-0.37536 0.15199,-0.14968 0.41911,-0.14968 0.23719,0 0.36615,0.12435 0.12896,0.12896 0.12896,0.35463 0,0.0438 -0.0161,0.053 -0.0138,0.009 -0.0576,0.009 h -0.69545 q 0,0.42372 0.327,0.42372 0.11283,0 0.20264,-0.0507 0.0898,-0.0507 0.12666,-0.13357 0.0115,-0.0299 0.0207,-0.0391 0.009,-0.009 0.0369,-0.009 0.0553,0 0.0553,0.0414 0,0.0161 -0.0138,0.0461 -0.0115,0.0276 -0.0461,0.0714 -0.0322,0.0414 -0.0829,0.0783 -0.0484,0.0368 -0.13356,0.0622 -0.0829,0.0253 -0.18653,0.0253 -0.27403,0 -0.43753,-0.14738 -0.1635,-0.14968 -0.1635,-0.38457 z m 0.29476,-0.0599 h 0.55037 q -0.0115,-0.38227 -0.27634,-0.38227 -0.14047,0 -0.21876,0.11975 -0.0461,0.0714 -0.0553,0.26252 z"
         id="path3446" />
      <path
         d="m 121.81177,153.66293 v -0.25101 q 0,-0.0438 0.007,-0.0553 0.009,-0.0115 0.0484,-0.0115 0.0276,0 0.0369,0.005 0.0115,0.005 0.0184,0.0276 0.0138,0.0484 0.0299,0.0852 0.0184,0.0368 0.053,0.0852 0.0368,0.0461 0.099,0.0714 0.0645,0.0253 0.14968,0.0253 0.26252,0 0.26252,-0.17271 0,-0.0484 -0.0253,-0.0829 -0.0253,-0.0345 -0.0737,-0.053 -0.0484,-0.0207 -0.0806,-0.0276 -0.0299,-0.009 -0.076,-0.0161 -0.11284,-0.0207 -0.15659,-0.0299 -0.0438,-0.009 -0.10132,-0.0322 -0.0553,-0.0253 -0.099,-0.0645 -0.0921,-0.0783 -0.0921,-0.19343 0,-0.0714 0.0253,-0.12666 0.0253,-0.0553 0.0691,-0.0852 0.0461,-0.0322 0.0898,-0.0507 0.0438,-0.0207 0.099,-0.0276 0.0576,-0.007 0.0829,-0.009 0.0276,-0.002 0.0576,-0.002 0.14508,0 0.23258,0.0437 0.0898,-0.0437 0.10363,-0.0437 0.0276,0 0.0345,0.0138 0.007,0.0115 0.007,0.0507 v 0.18422 q 0,0.0438 -0.009,0.0553 -0.007,0.009 -0.0461,0.009 -0.0345,0 -0.0438,-0.009 -0.007,-0.009 -0.009,-0.0368 -0.0184,-0.19344 -0.27173,-0.19344 -0.25792,0 -0.25792,0.14277 0,0.0392 0.0207,0.0668 0.023,0.0276 0.0668,0.0438 0.0461,0.0161 0.0714,0.023 0.0253,0.007 0.076,0.0161 0.14968,0.0253 0.21416,0.046 0.0668,0.0184 0.12896,0.0645 0.12665,0.10132 0.12665,0.2441 0,0.0806 -0.0253,0.14277 -0.0253,0.0599 -0.0714,0.0944 -0.0437,0.0345 -0.0875,0.0576 -0.0438,0.0207 -0.10133,0.0276 -0.0576,0.009 -0.0829,0.0115 -0.0253,0.002 -0.0576,0.002 -0.1658,0 -0.27173,-0.0737 l -0.0599,0.0392 q -0.0484,0.0345 -0.0691,0.0345 -0.0276,0 -0.0345,-0.0138 -0.007,-0.0138 -0.007,-0.0507 z"
         id="path3448" />
      <path
         d="m 122.8158,152.79938 v -0.0829 q 0.16119,-0.005 0.251,-0.14048 0.0898,-0.13816 0.0921,-0.32469 h 0.10824 v 0.43983 h 0.33621 v 0.10824 h -0.33621 v 0.63557 q 0,0.20035 0.13356,0.20035 0.0553,0 0.0967,-0.0507 0.0415,-0.053 0.0415,-0.1612 V 153.306 h 0.10823 v 0.12204 q 0,0.12896 -0.076,0.21417 -0.0737,0.0852 -0.20265,0.0852 -0.36384,0 -0.36384,-0.29706 v -0.63097 z"
         id="path3450" />
      <path
         d="m 124.02707,152.41941 q -0.0507,-0.053 -0.0507,-0.12665 0,-0.0737 0.0507,-0.12666 0.053,-0.053 0.12896,-0.053 0.0737,0 0.12665,0.053 0.053,0.053 0.053,0.12666 0,0.0737 -0.053,0.12665 -0.053,0.053 -0.12665,0.053 -0.076,0 -0.12896,-0.053 z m -0.12205,1.29418 v -0.10823 h 0.1589 v -0.71157 q 0,-0.0645 -0.023,-0.076 -0.023,-0.0138 -0.12896,-0.0138 v -0.10823 l 0.40069,-0.0184 v 0.92803 h 0.14277 v 0.10823 q -0.2487,-0.007 -0.26943,-0.007 -0.0668,0 -0.28094,0.007 z"
         id="path3452" />
      <path
         d="m 124.60507,153.21158 q 0,-0.23719 0.15429,-0.38917 0.15659,-0.15199 0.43293,-0.15199 0.27403,0 0.43062,0.15199 0.1566,0.15198 0.1566,0.38917 0,0.22337 -0.15429,0.37075 -0.15429,0.14508 -0.43293,0.14508 -0.27864,0 -0.43293,-0.14508 -0.15429,-0.14738 -0.15429,-0.37075 z m 0.29476,-0.0253 q 0,0.0691 0,0.10593 0.002,0.0345 0.009,0.099 0.009,0.0622 0.0276,0.0967 0.0184,0.0345 0.0484,0.0737 0.0322,0.0391 0.0829,0.0576 0.053,0.0161 0.12435,0.0161 0.0714,0 0.12205,-0.0161 0.053,-0.0184 0.0829,-0.0576 0.0322,-0.0392 0.0507,-0.0737 0.0184,-0.0345 0.0253,-0.0967 0.009,-0.0645 0.009,-0.099 0.002,-0.0369 0.002,-0.10593 0,-0.23719 -0.0484,-0.31549 -0.0737,-0.11744 -0.2441,-0.11744 -0.18423,0 -0.25331,0.13356 -0.0392,0.0783 -0.0392,0.29937 z"
         id="path3454" />
      <path
         d="m 125.95912,153.71359 v -0.10823 h 0.1589 v -0.71157 q 0,-0.0645 -0.0253,-0.076 -0.023,-0.0138 -0.13356,-0.0138 v -0.10823 l 0.39609,-0.0184 v 0.2487 q 0.12665,-0.2487 0.40299,-0.2487 0.17731,0 0.26482,0.0783 0.0898,0.076 0.0898,0.25331 v 0.59643 h 0.15889 v 0.10823 q -0.19343,-0.007 -0.29015,-0.007 -0.0967,0 -0.29015,0.007 v -0.10823 h 0.15889 v -0.62176 q 0,-0.12435 -0.0322,-0.17271 -0.0322,-0.0507 -0.0944,-0.0507 -0.12665,0 -0.23488,0.0967 -0.10823,0.0944 -0.10823,0.26712 v 0.48129 h 0.15889 v 0.10823 q -0.19344,-0.007 -0.29015,-0.007 -0.0967,0 -0.29016,0.007 z"
         id="path3456" />
      <path
         d="m 128.29647,153.71359 v -0.10823 h 0.2487 v -1.36326 h -0.2487 v -0.10824 q 0.0875,0.007 0.4122,0.007 0.3247,0 0.4122,-0.007 v 0.10824 h -0.2487 v 0.59642 h 0.7392 v -0.59642 h -0.2487 v -0.10824 q 0.0875,0.007 0.4122,0.007 0.3247,0 0.41221,-0.007 v 0.10824 h -0.24871 v 1.36326 h 0.24871 v 0.10823 q -0.0875,-0.007 -0.41221,-0.007 -0.32469,0 -0.4122,0.007 v -0.10823 h 0.2487 v -0.6586 h -0.7392 v 0.6586 h 0.2487 v 0.10823 q -0.0875,-0.007 -0.4122,-0.007 -0.32469,0 -0.4122,0.007 z"
         id="path3458" />
      <path
         d="m 130.35288,153.19546 q 0,-0.22568 0.14968,-0.37536 0.15199,-0.14968 0.41911,-0.14968 0.23719,0 0.36615,0.12435 0.12896,0.12896 0.12896,0.35463 0,0.0438 -0.0161,0.053 -0.0138,0.009 -0.0576,0.009 h -0.69545 q 0,0.42372 0.327,0.42372 0.11283,0 0.20264,-0.0507 0.0898,-0.0507 0.12666,-0.13357 0.0115,-0.0299 0.0207,-0.0391 0.009,-0.009 0.0369,-0.009 0.0553,0 0.0553,0.0414 0,0.0161 -0.0138,0.0461 -0.0115,0.0276 -0.0461,0.0714 -0.0322,0.0414 -0.0829,0.0783 -0.0484,0.0368 -0.13356,0.0622 -0.0829,0.0253 -0.18653,0.0253 -0.27403,0 -0.43753,-0.14738 -0.1635,-0.14968 -0.1635,-0.38457 z m 0.29476,-0.0599 h 0.55037 q -0.0115,-0.38227 -0.27634,-0.38227 -0.14047,0 -0.21876,0.11975 -0.0461,0.0714 -0.0553,0.26252 z"
         id="path3460" />
      <path
         d="m 131.72305,152.41941 q -0.0507,-0.053 -0.0507,-0.12665 0,-0.0737 0.0507,-0.12666 0.053,-0.053 0.12895,-0.053 0.0737,0 0.12666,0.053 0.053,0.053 0.053,0.12666 0,0.0737 -0.053,0.12665 -0.053,0.053 -0.12666,0.053 -0.076,0 -0.12895,-0.053 z m -0.12205,1.29418 v -0.10823 h 0.15889 v -0.71157 q 0,-0.0645 -0.023,-0.076 -0.023,-0.0138 -0.12895,-0.0138 v -0.10823 l 0.40068,-0.0184 v 0.92803 h 0.14278 v 0.10823 q -0.2487,-0.007 -0.26943,-0.007 -0.0668,0 -0.28094,0.007 z"
         id="path3462" />
      <path
         d="m 132.31256,153.71359 v -0.10823 h 0.1589 v -0.71157 q 0,-0.0645 -0.0253,-0.076 -0.023,-0.0138 -0.13356,-0.0138 v -0.10823 l 0.38227,-0.0184 v 0.26022 q 0.0944,-0.26022 0.30627,-0.26022 0.0967,0 0.17041,0.0507 0.0737,0.0507 0.0737,0.13817 0,0.0645 -0.0438,0.10362 -0.0414,0.0369 -0.0967,0.0369 -0.0553,0 -0.099,-0.0369 -0.0414,-0.0368 -0.0414,-0.10362 0,-0.0622 0.0438,-0.10593 -0.0806,0 -0.14047,0.0461 -0.0599,0.0438 -0.0898,0.11744 -0.0299,0.0714 -0.0437,0.14047 -0.0138,0.0691 -0.0138,0.13817 v 0.40299 h 0.20034 v 0.10823 q -0.0829,-0.007 -0.31778,-0.007 -0.0484,0 -0.29016,0.007 z"
         id="path3464" />
      <path
         d="m 133.39028,153.46489 q 0,-0.3293 0.74841,-0.36154 v -0.0783 q 0,-0.27173 -0.25331,-0.27173 -0.0898,0 -0.1658,0.0161 0.0507,0.0345 0.0507,0.11284 0,0.0691 -0.0437,0.10823 -0.0438,0.0368 -0.10133,0.0368 -0.053,0 -0.099,-0.0368 -0.0437,-0.0392 -0.0437,-0.10823 0,-0.21186 0.4122,-0.21186 0.2487,0 0.37766,0.0967 0.12896,0.0967 0.12896,0.25791 v 0.49511 q 0,0.0322 0.005,0.0461 0.005,0.0138 0.0368,0.0276 0.0322,0.0115 0.099,0.0115 0.0207,0 0.0299,0.002 0.009,0.002 0.0184,0.0138 0.0115,0.0115 0.0115,0.0369 0,0.0368 -0.0161,0.046 -0.0161,0.009 -0.0576,0.009 h -0.11053 q -0.0852,0 -0.13817,-0.0161 -0.053,-0.0161 -0.0737,-0.0484 -0.0184,-0.0322 -0.023,-0.053 -0.005,-0.023 -0.005,-0.0599 -0.099,0.19113 -0.34312,0.19113 -0.0691,0 -0.13817,-0.0115 -0.0691,-0.009 -0.14278,-0.0345 -0.0737,-0.0276 -0.11974,-0.0829 -0.0438,-0.0553 -0.0438,-0.13356 z m 0.26942,-0.002 q 0,0.076 0.0599,0.12895 0.0622,0.053 0.14968,0.053 0.0299,0 0.0668,-0.009 0.0392,-0.009 0.0875,-0.0322 0.0507,-0.023 0.0829,-0.0783 0.0322,-0.0553 0.0322,-0.13126 v -0.21876 q -0.0507,0.002 -0.0967,0.009 -0.0437,0.005 -0.11975,0.0253 -0.076,0.0184 -0.12895,0.046 -0.053,0.0276 -0.0944,0.0829 -0.0392,0.053 -0.0392,0.12436 z"
         id="path3466" />
      <path
         d="m 134.68906,153.71359 v -0.10823 h 0.15889 v -0.71157 q 0,-0.0645 -0.0253,-0.076 -0.023,-0.0138 -0.13356,-0.0138 v -0.10823 l 0.38226,-0.0184 v 0.26022 q 0.0944,-0.26022 0.30628,-0.26022 0.0967,0 0.1704,0.0507 0.0737,0.0507 0.0737,0.13817 0,0.0645 -0.0437,0.10362 -0.0415,0.0369 -0.0967,0.0369 -0.0553,0 -0.099,-0.0369 -0.0414,-0.0368 -0.0414,-0.10362 0,-0.0622 0.0437,-0.10593 -0.0806,0 -0.14047,0.0461 -0.0599,0.0438 -0.0898,0.11744 -0.0299,0.0714 -0.0438,0.14047 -0.0138,0.0691 -0.0138,0.13817 v 0.40299 h 0.20035 v 0.10823 q -0.0829,-0.007 -0.31779,-0.007 -0.0484,0 -0.29015,0.007 z"
         id="path3468" />
      <path
         d="m 135.78059,153.20237 q 0,-0.22107 0.14507,-0.37536 0.14738,-0.15659 0.43754,-0.15659 0.40069,0 0.40069,0.21186 0,0.0691 -0.0438,0.10823 -0.0438,0.0368 -0.10132,0.0368 -0.053,0 -0.099,-0.0368 -0.0437,-0.0392 -0.0437,-0.10823 0,-0.0645 0.046,-0.10593 -0.0599,-0.0138 -0.14968,-0.0138 -0.0852,0 -0.14508,0.0345 -0.0599,0.0345 -0.0898,0.0783 -0.0276,0.0414 -0.0437,0.11284 -0.0138,0.0691 -0.0161,0.10823 -0.002,0.0368 -0.002,0.0944 0,0.44445 0.32009,0.44445 0.20955,0 0.28785,-0.18883 0.009,-0.023 0.0161,-0.0276 0.009,-0.007 0.0392,-0.007 0.0553,0 0.0553,0.0322 0,0.009 -0.009,0.0368 -0.009,0.0253 -0.0391,0.0691 -0.0299,0.0438 -0.076,0.0829 -0.046,0.0368 -0.13126,0.0668 -0.0829,0.0276 -0.18653,0.0276 -0.26252,0 -0.4168,-0.14508 -0.15429,-0.14738 -0.15429,-0.37996 z"
         id="path3470" />
      <path
         d="m 136.89975,153.71359 v -0.10823 h 0.15889 v -1.27345 q 0,-0.0645 -0.0253,-0.076 -0.023,-0.0138 -0.13356,-0.0138 v -0.10824 l 0.4076,-0.0184 v 0.78296 h 0.002 q 0.12896,-0.22107 0.38917,-0.22107 0.17732,0 0.26483,0.0783 0.0898,0.076 0.0898,0.25331 v 0.59643 h 0.15889 v 0.10823 q -0.19344,-0.007 -0.29015,-0.007 -0.0967,0 -0.29016,0.007 v -0.10823 h 0.1589 v -0.62176 q 0,-0.12435 -0.0322,-0.17271 -0.0322,-0.0507 -0.0944,-0.0507 -0.12665,0 -0.23489,0.0967 -0.10823,0.0944 -0.10823,0.26712 v 0.48129 h 0.1589 v 0.10823 q -0.19344,-0.007 -0.29016,-0.007 -0.0967,0 -0.29015,0.007 z"
         id="path3472" />
      <path
         d="m 138.24228,153.9623 q 0,-0.0645 0.0392,-0.099 0.0392,-0.0345 0.0921,-0.0345 0.0576,0 0.0944,0.0368 0.0391,0.0368 0.0391,0.0944 0,0.0898 -0.0737,0.12205 0.0253,0.009 0.0553,0.009 0.0576,0 0.10363,-0.0253 0.0484,-0.023 0.0829,-0.0714 0.0368,-0.0461 0.0553,-0.0806 0.0207,-0.0322 0.0461,-0.0898 l 0.053,-0.11054 -0.43063,-0.91421 h -0.14738 v -0.10824 q 0.023,0 0.12435,0.005 0.10133,0.002 0.13817,0.002 0.17041,0 0.28555,-0.007 v 0.10824 h -0.12435 l 0.29245,0.62176 0.26483,-0.5665 q 0.0115,-0.0115 0.0115,-0.0276 0,-0.0276 -0.10823,-0.0276 v -0.10824 q 0.14508,0.007 0.20956,0.007 0.099,0 0.18192,-0.007 v 0.10824 q -0.0714,0 -0.10823,0.007 -0.0345,0.005 -0.0438,0.0138 -0.009,0.007 -0.0184,0.0276 l -0.4951,1.05238 q -0.053,0.11284 -0.15199,0.19344 -0.099,0.0806 -0.22107,0.0806 -0.10363,0 -0.17501,-0.0622 -0.0714,-0.0622 -0.0714,-0.14968 z"
         id="path3474" />
    </g>
  </g>
</svg>
