<?xml version="1.0" encoding="UTF-8" standalone="no"?>
<!-- Created with Inkscape (http://www.inkscape.org/) -->

<svg
   width="256"
   height="256"
   viewBox="0 0 67.733333 67.733333"
   version="1.1"
   id="svg1655"
   inkscape:version="1.2.2 (b0a84865, 2022-12-01)"
   xml:space="preserve"
   sodipodi:docname="soft-hard-margin.svg"
   xmlns:inkscape="http://www.inkscape.org/namespaces/inkscape"
   xmlns:sodipodi="http://sodipodi.sourceforge.net/DTD/sodipodi-0.dtd"
   xmlns="http://www.w3.org/2000/svg"
   xmlns:svg="http://www.w3.org/2000/svg"><sodipodi:namedview
     id="namedview1657"
     pagecolor="#161618"
     bordercolor="#b400ff"
     borderopacity="0.24705882"
     inkscape:showpageshadow="false"
     inkscape:pageopacity="1"
     inkscape:pagecheckerboard="0"
     inkscape:deskcolor="#d1d1d1"
     inkscape:document-units="mm"
     showgrid="false"
     borderlayer="false"
     showborder="false"
     inkscape:zoom="1.84375"
     inkscape:cx="102.77966"
     inkscape:cy="132.0678"
     inkscape:window-width="1512"
     inkscape:window-height="917"
     inkscape:window-x="0"
     inkscape:window-y="65"
     inkscape:window-maximized="0"
     inkscape:current-layer="layer1" /><defs
     id="defs1652" /><g
     inkscape:label="Layer 1"
     inkscape:groupmode="layer"
     id="layer1"
     transform="translate(-96.503343,-147.7671)"><path
       style="fill:#ffffff;stroke-width:0.999998"
       d="m 127.38035,203.32588 c -0.0195,-0.0608 -0.17983,-0.96438 -0.35632,-2.00801 -0.30333,-1.79363 -0.31241,-1.90373 -0.16588,-2.01087 0.0853,-0.0623 0.23691,-0.11332 0.337,-0.11328 0.10009,3e-5 0.50018,-0.0588 0.8891,-0.13068 0.38891,-0.0719 1.1574,-0.20636 1.70774,-0.2988 l 1.00061,-0.16806 0.0692,0.18825 c 0.0712,0.19361 0.64401,3.49786 0.66048,3.80961 0.007,0.14064 -0.0674,0.1858 -0.38855,0.23458 -0.21876,0.0332 -1.10328,0.18356 -1.96559,0.33408 -1.80005,0.3142 -1.74106,0.30881 -1.78776,0.16318 z m 2.51589,-0.62676 1.19327,-0.20115 -0.008,-0.34841 c -0.005,-0.19162 -0.0728,-0.72628 -0.15136,-1.18811 -0.0786,-0.46184 -0.18296,-1.07384 -0.23194,-1.36001 -0.049,-0.28617 -0.10967,-0.54092 -0.13486,-0.56611 -0.07,-0.07 -3.23487,0.45091 -3.36626,0.55404 -0.0936,0.0734 -0.0628,0.39759 0.16355,1.72564 0.15332,0.89937 0.31137,1.6587 0.35124,1.68741 0.0399,0.0287 0.27928,0.0175 0.53202,-0.025 0.25274,-0.0425 0.9965,-0.16769 1.6528,-0.27832 z M 116.786,201.69066 c -0.0797,-0.13567 -0.69829,-4.0094 -0.64821,-4.05948 0.0462,-0.0462 0.58583,-0.14454 3.28425,-0.59836 0.38891,-0.0654 0.73464,-0.0932 0.76828,-0.0618 0.0336,0.0314 0.10103,0.29575 0.14974,0.58743 0.26028,1.55844 0.55006,3.19467 0.58197,3.28607 0.055,0.15752 -0.13136,0.26334 -0.5719,0.32473 -0.21877,0.0305 -1.09383,0.17513 -1.94458,0.32144 -1.80373,0.3102 -1.57162,0.28153 -1.61955,0.19999 z m 1.78113,-0.5594 c 0.56743,-0.10107 1.22144,-0.21458 1.45336,-0.25226 0.23192,-0.0377 0.44747,-0.0943 0.47901,-0.12585 0.0576,-0.0576 -0.46703,-3.28609 -0.5578,-3.43296 -0.0266,-0.0431 -0.11466,-0.0576 -0.19564,-0.0324 -0.081,0.0253 -0.83527,0.16137 -1.67619,0.30244 -0.84092,0.14107 -1.54822,0.27577 -1.57178,0.29933 -0.0402,0.0402 0.45117,3.07559 0.53662,3.31491 0.0546,0.15289 0.33899,0.1393 1.53242,-0.0733 z m 29.27227,-5.17704 c -1.65413,-0.54871 -4.5888,-1.50649 -8.08768,-2.63955 -1.31259,-0.42506 -3.21982,-1.0462 -4.23828,-1.38029 -1.01847,-0.3341 -1.88479,-0.57444 -1.92515,-0.53407 -0.0404,0.0404 -0.0124,0.3884 0.0621,0.77342 0.34681,1.79204 0.55438,3.09147 0.50192,3.14208 -0.10638,0.10266 -4.00948,0.71262 -4.07926,0.6375 -0.0706,-0.076 -0.74246,-4.00791 -0.69124,-4.04542 0.0269,-0.0198 0.73829,-0.14795 2.66146,-0.4797 0.47595,-0.0821 0.8737,-0.18662 0.8839,-0.23227 0.0216,-0.0967 -0.18968,-0.17105 -4.00321,-1.40862 -2.79698,-0.90767 -3.4472,-1.09598 -3.4472,-0.99831 0,0.0261 0.14075,0.8763 0.31279,1.88933 0.17204,1.01304 0.3212,1.89895 0.33147,1.9687 0.0196,0.13292 -0.29762,0.20451 -2.87512,0.64895 -1.38313,0.23849 -1.24557,0.30231 -1.38646,-0.64318 -0.0471,-0.31599 -0.18844,-1.16791 -0.31413,-1.89314 -0.12568,-0.72524 -0.19741,-1.34589 -0.15941,-1.37921 0.038,-0.0333 0.86463,-0.1909 1.83691,-0.35015 0.97229,-0.15925 1.80368,-0.32227 1.84754,-0.36226 0.0449,-0.041 -0.0129,-0.11088 -0.13259,-0.16017 -0.19534,-0.0805 -4.03715,-1.33338 -7.76966,-2.5339 -0.85075,-0.27364 -2.12357,-0.68764 -2.82848,-0.92002 -0.70491,-0.23237 -2.47491,-0.80971 -3.93335,-1.28297 -4.06789,-1.32005 -4.14627,-1.34725 -4.18084,-1.45097 -0.0464,-0.13913 0.14478,-0.12086 0.74114,0.0709 1.6653,0.53537 5.976,1.93127 6.84271,2.21581 0.55907,0.18354 2.20975,0.72025 3.66819,1.19268 1.45843,0.47242 3.6262,1.17768 4.81725,1.56723 1.19105,0.38955 2.54342,0.8287 3.00526,0.97589 0.46183,0.14719 1.23746,0.3982 1.7236,0.55781 0.48615,0.15961 2.07717,0.67598 3.5356,1.14748 1.45843,0.4715 3.10911,1.00741 3.66818,1.19091 0.55907,0.18349 2.20975,0.71959 3.66818,1.19131 3.93409,1.27247 5.5711,1.80323 6.40827,2.0777 0.41323,0.13548 1.75764,0.57302 2.9876,0.97232 1.97777,0.64208 2.44658,0.85259 2.0893,0.93816 -0.0456,0.0109 -0.73916,-0.19786 -1.5413,-0.46394 z m -15.53453,-0.6071 c 1.35776,-0.23084 1.48041,-0.26686 1.47912,-0.43444 -0.002,-0.30634 -0.50917,-3.24188 -0.57023,-3.30295 -0.0533,-0.0533 -3.40128,0.47864 -3.47466,0.55201 -0.0184,0.0184 0.0508,0.52422 0.15379,1.12405 0.10298,0.59983 0.22651,1.32926 0.27451,1.62095 0.1237,0.75165 0.13794,0.77677 0.41488,0.73158 0.13313,-0.0217 0.9083,-0.15276 1.72259,-0.2912 z m -8.90529,-2.38809 c 2.39967,-0.41045 2.34266,-0.39464 2.33891,-0.64867 -0.005,-0.31336 -0.49512,-3.19084 -0.55393,-3.24965 -0.0257,-0.0257 -0.55713,0.0383 -1.181,0.14215 -0.62387,0.10386 -1.39045,0.22742 -1.7035,0.27457 -0.31305,0.0472 -0.58787,0.10444 -0.61073,0.12729 -0.0423,0.0423 0.50768,3.30272 0.57754,3.42373 0.0548,0.095 0.23676,0.0838 1.13271,-0.0694 z m -11.73857,1.2691 c -0.0287,-0.16153 -0.17495,-1.02953 -0.32507,-1.9289 -0.15012,-0.89936 -0.2931,-1.70161 -0.31774,-1.78276 -0.0527,-0.17356 0.0528,-0.21463 0.8465,-0.3294 0.31599,-0.0457 1.16598,-0.18765 1.88886,-0.31546 0.72289,-0.12781 1.33197,-0.21475 1.35351,-0.1932 0.0215,0.0215 0.094,0.35156 0.16095,0.73337 0.067,0.3818 0.22543,1.28564 0.35214,2.00852 0.12671,0.72289 0.21857,1.32566 0.20414,1.3395 -0.0239,0.0229 -1.06643,0.2086 -2.94312,0.52428 -0.38891,0.0654 -0.81083,0.14567 -0.93758,0.17834 -0.20812,0.0536 -0.23552,0.0309 -0.28259,-0.23429 z m 2.2253,-0.4233 c 0.84451,-0.14309 1.55087,-0.27556 1.56968,-0.29437 0.0188,-0.0188 -0.0855,-0.74085 -0.23172,-1.60454 -0.14626,-0.86368 -0.26654,-1.59588 -0.26728,-1.62709 -0.007,-0.27526 -0.16452,-0.27636 -1.72816,-0.0121 -1.95187,0.3299 -1.90604,0.31608 -1.85068,0.55797 0.0243,0.10608 0.14345,0.7895 0.26482,1.51871 0.29629,1.78019 0.27957,1.72378 0.51068,1.72259 0.10846,-6.7e-4 0.88815,-0.1181 1.73266,-0.26119 z m 38.24,-5.8364 c -0.0972,-0.0437 -1.19105,-0.40227 -2.43072,-0.79673 -1.23967,-0.39446 -2.35338,-0.75213 -2.47492,-0.79482 -0.12153,-0.0427 -1.11592,-0.36306 -2.20975,-0.71192 -1.09382,-0.34887 -2.44619,-0.78395 -3.00525,-0.96684 -1.04638,-0.34231 -3.7426,-1.21084 -7.68993,-2.47714 -1.23967,-0.39769 -2.53237,-0.81504 -2.87267,-0.92745 -0.3403,-0.11241 -1.11593,-0.36323 -1.72361,-0.55738 -3.30888,-1.05717 -5.14888,-1.64784 -5.70115,-1.83017 -0.3403,-0.11235 -1.633,-0.52835 -2.87267,-0.92445 -1.23967,-0.39609 -2.53237,-0.81349 -2.87267,-0.92756 -0.3403,-0.11407 -0.9966,-0.32632 -1.45844,-0.47166 -0.81768,-0.25734 -4.04434,-1.29526 -6.62924,-2.13243 -1.05993,-0.34328 -1.28629,-0.44652 -1.30843,-0.59676 -0.0373,-0.25275 0.18411,-0.31139 0.62579,-0.16578 0.2053,0.0677 1.26822,0.40875 2.36205,0.75792 1.09382,0.34917 2.76439,0.88731 3.71237,1.19588 0.94799,0.30856 2.12136,0.68615 2.60751,0.83909 0.48614,0.15294 1.16232,0.37021 1.50263,0.48283 0.3403,0.11261 1.33468,0.43158 2.20974,0.70883 0.87507,0.27724 1.98878,0.63495 2.47492,0.79492 1.21501,0.3998 3.5067,1.1408 5.87793,1.90059 1.97225,0.63195 4.95332,1.59544 6.1431,1.98546 0.34031,0.11156 0.9966,0.32362 1.45844,0.47125 2.38601,0.76271 5.41951,1.73794 5.96632,1.91809 0.3403,0.11211 1.633,0.52901 2.87267,0.92644 6.61161,2.11962 6.02816,1.90993 5.99336,2.154 -0.0299,0.20955 -0.27381,0.27336 -0.55738,0.14579 z m 1.812,-8.83824 c -0.41323,-0.13833 -2.2429,-0.73621 -4.06594,-1.32861 -4.51042,-1.46566 -6.66154,-2.16626 -7.8667,-2.56212 -0.55907,-0.18364 -2.03076,-0.65988 -3.27043,-1.05831 -1.23967,-0.39844 -2.59204,-0.83728 -3.00526,-0.97521 -0.41322,-0.13792 -1.38772,-0.45531 -2.16555,-0.70529 -0.77784,-0.24998 -2.36885,-0.76631 -3.5356,-1.14739 -1.16675,-0.38109 -3.49362,-1.13758 -5.17081,-1.68109 -5.76179,-1.86718 -6.58653,-2.13528 -7.20378,-2.3417 -0.3403,-0.11381 -1.80453,-0.59078 -3.25384,-1.05993 -1.71949,-0.55662 -2.62232,-0.88946 -2.59833,-0.95792 0.0481,-0.13708 0.14677,-0.11534 1.51403,0.3334 0.63585,0.20869 2.34936,0.76642 3.8078,1.2394 1.45843,0.47298 3.10911,1.01048 3.66818,1.19444 0.55907,0.18397 2.03076,0.66177 3.27043,1.06179 1.23967,0.40001 2.65169,0.85735 3.13784,1.01629 0.48614,0.15895 1.61974,0.52811 2.51911,0.82035 1.48052,0.48109 5.89734,1.91681 8.342,2.71164 0.52879,0.17192 1.01316,0.31258 1.07637,0.31258 0.0771,0 0.0278,-0.16904 -0.15001,-0.51372 -0.35254,-0.68357 -0.40161,-1.11328 -0.20037,-1.75471 0.21775,-0.69405 0.8002,-1.28686 1.4556,-1.48149 0.56081,-0.16654 0.78507,-0.17278 1.26622,-0.0352 1.23785,0.35392 1.91131,1.59183 1.55614,2.86038 -0.14924,0.53304 -0.68276,1.12005 -1.2332,1.35684 -0.2449,0.10536 -0.44527,0.22237 -0.44527,0.26003 0,0.0827 0.21761,0.15878 3.09364,1.08129 1.23967,0.39763 2.71137,0.87307 3.27043,1.05653 0.55907,0.18347 2.32908,0.7582 3.93336,1.27719 3.34522,1.0822 3.40301,1.1027 3.40301,1.20699 0,0.13413 -0.37158,0.0738 -1.14907,-0.18644 z m -12.12013,-5.17458 c 0.85874,-0.46738 1.17593,-1.63131 0.66545,-2.44187 -0.27827,-0.44184 -0.38248,-0.53234 -0.89685,-0.77886 -0.47091,-0.22568 -0.77837,-0.22652 -1.28257,-0.003 -0.82228,0.36373 -1.23932,1.13062 -1.09579,2.01505 0.18596,1.14597 1.55794,1.78163 2.60976,1.20916 z m 7.59541,-4.49514 c -1.08968,-0.29601 -1.759,-1.29411 -1.62631,-2.42521 0.1371,-1.16873 1.02817,-1.95385 2.22242,-1.95819 0.89928,-0.003 1.62617,0.47292 2.07512,1.35939 0.20261,0.40005 0.16728,1.43135 -0.0639,1.8649 -0.51151,0.95939 -1.58532,1.43675 -2.60736,1.15911 z m 1.88228,-0.94763 c 0.34015,-0.34922 0.41797,-0.49317 0.46718,-0.86414 0.17486,-1.31819 -0.80768,-2.28759 -2.11924,-2.09091 -0.53668,0.0805 -1.21,0.70867 -1.35892,1.26783 -0.22416,0.84166 0.17042,1.6724 0.96875,2.03964 0.81325,0.37411 1.43989,0.26597 2.04223,-0.35242 z m -15.51368,-0.6599 c -0.88717,-0.32506 -1.38676,-0.99708 -1.44776,-1.94746 -0.0498,-0.77663 0.0631,-1.13953 0.51425,-1.65202 0.89471,-1.01645 2.38948,-1.03803 3.32609,-0.048 0.39457,0.41706 0.56047,0.88162 0.56047,1.56943 0,0.50809 -0.0398,0.65611 -0.28727,1.06912 -0.56589,0.94431 -1.68557,1.3681 -2.66578,1.00896 z m 1.3768,-0.46865 c 0.75228,-0.32559 1.1343,-0.87866 1.1343,-1.64217 0,-1.37123 -1.34623,-2.21183 -2.55849,-1.59753 -0.68986,0.34958 -1.04272,1.02642 -0.94875,1.81986 0.079,0.66697 0.32041,0.97936 1.0686,1.38273 0.44764,0.24133 0.80874,0.25161 1.30434,0.0371 z m -8.27412,-4.12046 c -0.48617,-0.17319 -0.75607,-0.38973 -1.07917,-0.8658 -0.54577,-0.80415 -0.47685,-1.94196 0.16155,-2.66722 0.511,-0.58052 0.94828,-0.78157 1.70802,-0.78529 0.91054,-0.004 1.59673,0.42128 2.04397,1.26816 0.25686,0.48639 0.22022,1.51824 -0.0722,2.03297 -0.54348,0.9567 -1.7179,1.38918 -2.76217,1.01718 z m 1.80375,-0.62784 c 0.53243,-0.35234 0.74483,-0.76295 0.75007,-1.45002 0.005,-0.66802 -0.16263,-1.02374 -0.67977,-1.44172 -0.58569,-0.47337 -1.67855,-0.44764 -2.20861,0.052 -1.29487,1.22056 -0.44964,3.28132 1.27946,3.11945 0.34078,-0.0319 0.62356,-0.124 0.85885,-0.27971 z m 7.10174,-0.48095 c -0.6619,-0.1325 -1.17524,-0.53775 -1.50746,-1.19004 -0.59073,-1.15988 -0.0234,-2.64232 1.18831,-3.10508 0.58304,-0.22267 1.48808,-0.13203 1.97517,0.19779 0.54784,0.37097 0.88323,0.83313 1.01454,1.39798 0.37039,1.59335 -1.04563,3.02462 -2.67056,2.69935 z m 1.23796,-0.53757 c 0.76527,-0.39178 1.23427,-1.35196 1.01805,-2.08424 -0.23059,-0.78098 -0.94773,-1.34739 -1.70889,-1.34971 -0.63586,-0.002 -1.63521,0.61479 -1.63521,1.00913 0,0.0697 -0.0398,0.15128 -0.0884,0.18133 -0.0486,0.03 -0.0884,0.28314 -0.0884,0.56245 0,0.40773 0.0502,0.58695 0.25466,0.90937 0.26232,0.41363 0.62869,0.72815 0.9386,0.80574 0.33755,0.0845 1.11757,0.0642 1.30957,-0.0341 z m 5.05451,-0.16241 c -0.67107,-0.32071 -1.10768,-0.85279 -1.28613,-1.56733 -0.38328,-1.53477 1.05318,-3.00291 2.61988,-2.67766 1.7225,0.35759 2.38089,2.33159 1.23171,3.69298 -0.5749,0.68106 -1.7613,0.93634 -2.56546,0.55201 z m 1.80759,-0.48728 c 0.19011,-0.12001 0.46775,-0.39566 0.61698,-0.61256 0.33225,-0.48291 0.36935,-1.13491 0.0993,-1.74536 -0.20322,-0.45943 -0.52384,-0.7176 -1.1424,-0.91993 -0.39677,-0.12977 -0.50198,-0.13312 -0.86032,-0.0274 -0.50132,0.14789 -1.03434,0.58967 -1.18082,0.97869 -0.0602,0.15995 -0.15177,0.3799 -0.20342,0.48879 -0.20094,0.42354 0.29524,1.42167 0.89616,1.80276 0.53946,0.34212 1.26533,0.35644 1.7745,0.035 z"
       id="path537" /></g></svg>
