<?xml version="1.0" encoding="UTF-8" standalone="no"?>
<!-- Created with Inkscape (http://www.inkscape.org/) -->

<svg
   width="256"
   height="256"
   viewBox="0 0 67.733333 67.733333"
   version="1.1"
   id="svg1655"
   inkscape:version="1.2.2 (b0a84865, 2022-12-01)"
   xml:space="preserve"
   sodipodi:docname="soft-margin.svg"
   xmlns:inkscape="http://www.inkscape.org/namespaces/inkscape"
   xmlns:sodipodi="http://sodipodi.sourceforge.net/DTD/sodipodi-0.dtd"
   xmlns:xlink="http://www.w3.org/1999/xlink"
   xmlns="http://www.w3.org/2000/svg"
   xmlns:svg="http://www.w3.org/2000/svg"><sodipodi:namedview
     id="namedview1657"
     pagecolor="#161618"
     bordercolor="#b400ff"
     borderopacity="0.24705882"
     inkscape:showpageshadow="false"
     inkscape:pageopacity="1"
     inkscape:pagecheckerboard="0"
     inkscape:deskcolor="#d1d1d1"
     inkscape:document-units="mm"
     showgrid="false"
     borderlayer="false"
     showborder="false"
     inkscape:zoom="1.3037281"
     inkscape:cx="57.527331"
     inkscape:cy="84.756935"
     inkscape:window-width="1512"
     inkscape:window-height="917"
     inkscape:window-x="0"
     inkscape:window-y="65"
     inkscape:window-maximized="0"
     inkscape:current-layer="layer1" /><defs
     id="defs1652"><linearGradient
       inkscape:collect="always"
       id="linearGradient5086"><stop
         style="stop-color:#9f9e3f;stop-opacity:1"
         offset="0"
         id="stop5078" /><stop
         style="stop-color:#5a8c28;stop-opacity:1;"
         offset="0.34976646"
         id="stop5080" /><stop
         style="stop-color:#265b4d;stop-opacity:1"
         offset="0.66694951"
         id="stop5082" /><stop
         style="stop-color:#1c0631;stop-opacity:1"
         offset="1"
         id="stop5084" /></linearGradient><linearGradient
       inkscape:collect="always"
       xlink:href="#linearGradient5086"
       id="linearGradient4952"
       x1="102.09667"
       y1="182.32169"
       x2="148.96207"
       y2="188.20705"
       gradientUnits="userSpaceOnUse" /></defs><g
     inkscape:label="Layer 1"
     inkscape:groupmode="layer"
     id="layer1"
     transform="translate(-96.503343,-147.7671)"><g
       id="g6621"><g
         aria-label="Outlier"
         id="text8160"
         style="font-weight:500;font-size:3.39806px;font-family:'CMU Serif';-inkscape-font-specification:'CMU Serif, Medium';fill:#ffffff;stroke-width:1.51851;paint-order:markers fill stroke"><path
           d="m 150.79343,167.89895 q 0,-0.51991 0.33301,-0.8801 0.33301,-0.36359 0.79514,-0.36359 0.46554,0 0.79855,0.36359 0.33301,0.36359 0.33301,0.8801 0,0.5131 -0.33301,0.8699 -0.33301,0.3568 -0.79855,0.3568 -0.45874,0 -0.79514,-0.3534 -0.33301,-0.3568 -0.33301,-0.8733 z m 0.35,-0.0476 q 0,0.31602 0.0747,0.55728 0.0748,0.24127 0.19369,0.37379 0.12233,0.12913 0.25146,0.19369 0.12913,0.0612 0.26165,0.0612 0.12913,0 0.25485,-0.0612 0.12913,-0.0612 0.24806,-0.19029 0.12233,-0.12913 0.19709,-0.37039 0.0782,-0.24466 0.0782,-0.56408 0,-0.24806 -0.0544,-0.44854 -0.051,-0.20049 -0.13593,-0.31942 -0.0816,-0.12233 -0.19029,-0.20048 -0.10534,-0.0816 -0.20728,-0.11214 -0.0985,-0.0306 -0.19369,-0.0306 -0.11893,0 -0.24466,0.0544 -0.12233,0.051 -0.24806,0.1699 -0.12573,0.11553 -0.20728,0.3466 -0.0781,0.22767 -0.0781,0.54029 z"
           id="path6572" /><path
           d="m 153.35216,167.69166 v -0.10534 l 0.49951,-0.0374 v 1.12815 q 0,0.0815 0.007,0.12913 0.007,0.0476 0.034,0.10194 0.0272,0.0544 0.0917,0.0815 0.0646,0.0238 0.1665,0.0238 0.1835,0 0.29564,-0.14952 0.11553,-0.15291 0.11553,-0.37718 v -0.60485 q 0,-0.12573 -0.0442,-0.15632 -0.0442,-0.034 -0.22087,-0.034 v -0.10534 l 0.49952,-0.0374 v 1.20631 q 0,0.12573 0.0442,0.15971 0.0442,0.0306 0.22087,0.0306 v 0.10534 l -0.48932,0.0374 v -0.30583 q -0.14272,0.30583 -0.43835,0.30583 -0.14951,0 -0.25145,-0.0374 -0.10194,-0.0374 -0.15292,-0.085 -0.051,-0.0476 -0.0781,-0.13932 -0.0272,-0.0917 -0.0306,-0.14612 -0.003,-0.0578 -0.003,-0.16651 v -0.5097 q 0,-0.23107 -0.034,-0.27185 -0.034,-0.0408 -0.23107,-0.0408 z"
           id="path6574" /><path
           d="m 155.1939,167.69166 v -0.0748 q 0.15631,-0.007 0.25826,-0.11554 0.10534,-0.11213 0.13932,-0.24806 0.0374,-0.13592 0.0408,-0.29223 h 0.0849 v 0.62524 h 0.48593 v 0.10534 h -0.48593 v 0.94466 q 0,0.367 0.22767,0.367 0.0985,0 0.16311,-0.0985 0.0646,-0.10194 0.0646,-0.28204 v -0.18689 h 0.085 v 0.19369 q 0,0.18349 -0.085,0.32281 -0.0849,0.13593 -0.25145,0.13593 -0.0612,0 -0.12233,-0.017 -0.0612,-0.0136 -0.13932,-0.0544 -0.0782,-0.0408 -0.12913,-0.13932 -0.0476,-0.10194 -0.0476,-0.24806 v -0.93787 z"
           id="path6576" /><path
           d="m 156.55992,169.05089 v -0.10534 q 0.1801,0 0.22087,-0.0204 0.0442,-0.0238 0.0442,-0.13252 v -1.767 q 0,-0.12572 -0.0442,-0.15631 -0.0442,-0.034 -0.22087,-0.034 v -0.10534 l 0.48932,-0.0374 v 2.10001 q 0,0.10873 0.0408,0.13252 0.0442,0.0204 0.22427,0.0204 v 0.10534 q -0.0408,0 -0.12913,-0.003 -0.0849,-0.003 -0.14951,-0.003 -0.0612,-0.003 -0.0986,-0.003 -0.0408,0 -0.37718,0.0102 z"
           id="path6578" /><path
           d="m 157.50118,169.05089 v -0.10534 q 0.18009,0 0.22087,-0.0204 0.0442,-0.0238 0.0442,-0.13252 v -0.91408 q 0,-0.12573 -0.0442,-0.15631 -0.0408,-0.0306 -0.20728,-0.0306 v -0.10534 l 0.47573,-0.0374 v 1.24708 q 0,0.10195 0.034,0.12573 0.0374,0.0238 0.20388,0.0238 v 0.10534 q -0.3466,-0.0102 -0.3534,-0.0102 -0.0476,0 -0.37378,0.0102 z m 0.14271,-2.09321 q 0,-0.068 0.051,-0.12233 0.0544,-0.0578 0.12912,-0.0578 0.0748,0 0.12573,0.051 0.0544,0.051 0.0544,0.12912 0,0.0782 -0.0544,0.12913 -0.051,0.051 -0.12573,0.051 -0.0782,0 -0.12912,-0.0544 -0.051,-0.0544 -0.051,-0.12573 z"
           id="path6580" /><path
           d="m 158.42544,168.30331 q 0,-0.31941 0.20389,-0.54708 0.20728,-0.22767 0.50291,-0.22767 0.29903,0 0.45194,0.19369 0.15631,0.19369 0.15631,0.47233 0,0.051 -0.0136,0.0612 -0.0136,0.0102 -0.0714,0.0102 h -0.94806 q 0,0.3466 0.10194,0.50971 0.14272,0.22767 0.38398,0.22767 0.034,0 0.0714,-0.007 0.0408,-0.007 0.12233,-0.034 0.0816,-0.0306 0.15292,-0.10874 0.0714,-0.0781 0.11213,-0.20048 0.0102,-0.0476 0.0442,-0.0476 0.0442,0 0.0442,0.0408 0,0.0306 -0.034,0.0985 -0.0306,0.0646 -0.0918,0.14612 -0.0612,0.0782 -0.18009,0.13932 -0.11894,0.0578 -0.26165,0.0578 -0.29903,0 -0.5233,-0.22428 -0.22428,-0.22767 -0.22428,-0.56068 z m 0.28544,-0.10873 h 0.80534 q 0,-0.0714 -0.0136,-0.14952 -0.0102,-0.0815 -0.0476,-0.19029 -0.034,-0.11214 -0.11894,-0.1801 -0.0815,-0.0714 -0.20388,-0.0714 -0.0544,0 -0.11553,0.0238 -0.0578,0.0238 -0.12913,0.0815 -0.0714,0.0544 -0.12233,0.1835 -0.0476,0.12573 -0.0544,0.30243 z"
           id="path6582" /><path
           d="m 159.93418,169.05089 v -0.10534 q 0.18009,0 0.22087,-0.0204 0.0442,-0.0238 0.0442,-0.13252 v -0.91068 q 0,-0.12573 -0.0442,-0.15632 -0.0442,-0.034 -0.22087,-0.034 v -0.10534 l 0.47233,-0.0374 v 0.37378 q 0.0476,-0.14611 0.14951,-0.25825 0.10194,-0.11553 0.26845,-0.11553 0.10874,0 0.18009,0.0612 0.0714,0.0612 0.0714,0.14612 0,0.0748 -0.0476,0.11213 -0.0442,0.0374 -0.0985,0.0374 -0.0612,0 -0.10534,-0.0374 -0.0408,-0.0408 -0.0408,-0.10873 0,-0.0408 0.017,-0.0714 0.0204,-0.034 0.034,-0.0442 0.017,-0.0136 0.0272,-0.017 -0.007,-0.003 -0.0374,-0.003 -0.1869,0 -0.29563,0.1869 -0.10534,0.18689 -0.10534,0.45194 v 0.5233 q 0,0.0985 0.0408,0.12913 0.0408,0.0306 0.21748,0.0306 h 0.0714 v 0.10534 q -0.13592,-0.0102 -0.43156,-0.0102 -0.0408,0 -0.10534,0.003 -0.0646,0 -0.14951,0.003 -0.0849,0.003 -0.13252,0.003 z"
           id="path6584" /></g><path
         style="fill:#ffffff;stroke-width:1"
         d="m 136.14151,163.72373 c -0.5011,-0.17863 -0.92101,-0.55717 -1.18757,-1.07057 -0.213,-0.41026 -0.23664,-0.53236 -0.20515,-1.05932 0.0403,-0.67591 0.18609,-1.01211 0.62222,-1.43568 0.46562,-0.4522 0.8404,-0.59815 1.52544,-0.59407 0.89437,0.005 1.5369,0.41118 1.96916,1.24383 0.21735,0.41868 0.19306,1.36784 -0.047,1.83616 -0.49907,0.97366 -1.66047,1.44204 -2.67711,1.07965 z"
         id="path1095" /><path
         style="fill:#ffffff;stroke-width:1"
         d="m 130.17455,164.39955 c -0.0469,-0.0172 -0.24028,-0.071 -0.42996,-0.11972 -1.10848,-0.28426 -1.80772,-1.79605 -1.32366,-2.86181 0.39465,-0.8689 1.08258,-1.31329 2.03299,-1.31329 0.502,0 0.64035,0.0368 1.03994,0.27653 0.8386,0.50315 1.22794,1.34826 1.03868,2.25465 -0.18664,0.89397 -0.82959,1.53835 -1.71168,1.7155 -0.48271,0.0969 -0.50814,0.0989 -0.64631,0.0481 z"
         id="path1091" /><path
         style="fill:#ffffff;stroke-width:1"
         d="m 139.96233,165.29952 c -0.033,-0.0534 0.007,-0.20061 0.0892,-0.32724 0.23509,-0.36295 1.32865,-1.46402 1.45402,-1.46402 0.15869,0 0.14121,0.11175 -0.0569,0.36357 -0.0936,0.11898 -0.17018,0.23902 -0.17018,0.26674 0,0.0791 0.29736,0.0589 0.38715,-0.0262 0.12094,-0.11481 1.44401,-0.64206 2.12293,-0.84605 1.6207,-0.48697 2.83559,-0.64998 4.84998,-0.65075 1.7385,-6.4e-4 2.29522,0.0732 3.53321,0.4692 1.19133,0.38099 2.59121,1.17632 3.05578,1.7361 0.26231,0.31604 -0.0208,0.20223 -0.60442,-0.24297 -2.73971,-2.09006 -6.84693,-2.44809 -11.08981,-0.9667 -0.94451,0.32977 -2.31237,1.01585 -2.25482,1.13095 0.0238,0.0476 0.26133,0.0716 0.5398,0.0547 0.44701,-0.0274 0.49422,-0.0145 0.46721,0.12763 -0.0247,0.12996 -0.15847,0.1746 -0.75251,0.25112 -0.39737,0.0512 -0.89982,0.12193 -1.11658,0.15706 -0.26657,0.0433 -0.41351,0.0326 -0.45404,-0.033 z"
         id="path1089" /><path
         style="fill:#ffffff;stroke-width:1"
         d="m 121.43506,165.45386 c -0.4171,-0.11763 -1.07344,-0.70426 -1.26863,-1.13397 -0.10218,-0.22484 -0.15674,-0.54635 -0.15797,-0.92993 -0.002,-0.70775 0.21605,-1.21013 0.70932,-1.63233 1.42725,-1.22168 3.53943,-0.23847 3.54235,1.64895 10e-4,0.86151 -0.41827,1.54501 -1.18654,1.93273 -0.35326,0.17829 -1.20199,0.23761 -1.63853,0.11457 z"
         id="path1085" /><path
         style="fill:#ffffff;stroke-width:1"
         d="m 134.68791,169.61329 c -0.0596,-0.27131 -0.5689,-3.39135 -0.58555,-3.58708 -0.0142,-0.16794 0.20385,-0.2256 1.77304,-0.46872 0.28079,-0.0436 0.86841,-0.14216 1.30581,-0.21924 0.43742,-0.077 0.81174,-0.12369 0.83184,-0.10365 0.0201,0.0201 0.1296,0.58755 0.24333,1.26099 0.11371,0.67345 0.26165,1.53077 0.3287,1.90515 0.0671,0.37439 0.0974,0.70561 0.0675,0.73605 -0.0466,0.0475 -0.75021,0.17826 -3.16009,0.58745 -0.67566,0.11469 -0.7575,0.1034 -0.8046,-0.11101 z"
         id="path1081" /><path
         style="fill:#ffffff;stroke-width:1"
         d="m 128.0873,169.84836 c -0.48348,-0.15424 -1.05249,-0.63505 -1.29594,-1.09509 -0.14409,-0.27225 -0.18654,-0.49773 -0.18654,-0.99064 0,-0.49291 0.0424,-0.71838 0.18654,-0.99063 0.42948,-0.81155 1.45664,-1.32007 2.29031,-1.13391 0.44567,0.0995 1.0088,0.39539 1.23324,0.64797 0.077,0.0867 0.22783,0.31088 0.33496,0.49807 0.27057,0.47275 0.27785,1.46079 0.0145,1.96507 -0.47675,0.9128 -1.62544,1.40275 -2.57705,1.09916 z"
         id="path1077" /><path
         style="fill:#ffffff;stroke-width:1"
         d="m 141.15083,171.39187 c -0.75959,-0.25007 -1.08059,-0.51183 -1.39435,-1.13704 -0.2388,-0.47586 -0.24408,-1.36378 -0.011,-1.87701 0.73576,-1.621 3.18219,-1.6067 3.92654,0.0229 0.20778,0.4549 0.20776,1.33134 -2e-5,1.78873 -0.42528,0.93621 -1.6113,1.50186 -2.52103,1.20236 z"
         id="path1073" /><path
         style="fill:#ffffff;stroke-width:1"
         d="m 145.10739,180.5578 c -0.63177,-0.20889 -2.39308,-0.7839 -3.91402,-1.2778 -1.52094,-0.49391 -3.03337,-0.98685 -3.36095,-1.09542 -0.3276,-0.10856 -1.62944,-0.53081 -2.89298,-0.93831 -1.26355,-0.4075 -2.85256,-0.92292 -3.53113,-1.14538 -0.67857,-0.22246 -1.78896,-0.58399 -2.46753,-0.80341 -0.67857,-0.21941 -1.98041,-0.6417 -2.89298,-0.93842 -3.45933,-1.12482 -5.14072,-1.6707 -7.61533,-2.47238 -1.40394,-0.45482 -2.99294,-0.97117 -3.53111,-1.14745 -1.08462,-0.35526 -6.52546,-2.12767 -8.61267,-2.80568 -0.73572,-0.23898 -1.35855,-0.46829 -1.38406,-0.50957 -0.12009,-0.1943 0.19897,-0.14242 1.24574,0.20256 0.62462,0.20584 2.28434,0.74584 3.68828,1.19997 1.40394,0.45414 2.99295,0.97133 3.53113,1.14929 0.53817,0.17797 2.12718,0.69477 3.53112,1.14846 1.40394,0.45368 2.99296,0.96935 3.53113,1.14595 0.53819,0.1766 1.45713,0.47509 2.0421,0.6633 1.52525,0.49074 7.32437,2.37971 8.103,2.63942 0.36182,0.1207 0.67858,0.19872 0.70388,0.1734 0.0253,-0.0253 -0.0731,-0.27171 -0.21877,-0.54754 -0.234,-0.4432 -0.26109,-0.56585 -0.23294,-1.0546 0.0597,-1.03714 0.6799,-1.81871 1.62435,-2.04713 0.45684,-0.11052 1.06973,-0.0476 1.46362,0.15028 0.6988,0.35097 1.23588,1.22417 1.23406,2.0064 -0.001,0.75759 -0.67054,1.70482 -1.36563,1.93421 -0.1844,0.0608 -0.33529,0.15841 -0.33529,0.21676 0,0.0615 0.47471,0.25649 1.12741,0.46329 0.62007,0.19644 1.68261,0.54004 2.36117,0.76353 0.67857,0.22348 2.21015,0.72169 3.4035,1.10712 4.93492,1.59389 6.15826,2.01062 6.19106,2.10901 0.0556,0.16659 -0.20692,0.11322 -1.42616,-0.28986 z"
         id="path1069" /><path
         style="fill:url(#linearGradient4952);stroke-width:1;fill-opacity:1"
         d="m 143.78853,189.20309 c -0.0936,-0.0413 -1.03168,-0.34913 -2.08464,-0.68403 -1.05295,-0.33488 -2.1825,-0.69746 -2.51008,-0.80574 -0.32758,-0.10831 -1.45712,-0.47185 -2.51008,-0.80796 -1.05296,-0.33609 -2.23992,-0.71777 -2.63771,-0.84815 -0.39778,-0.13038 -1.64219,-0.53192 -2.76534,-0.8923 -1.12315,-0.36038 -2.31012,-0.74364 -2.6377,-0.85169 -0.3276,-0.10807 -1.28483,-0.4155 -2.12719,-0.68321 -0.84237,-0.26771 -1.9719,-0.63002 -2.51008,-0.80511 -1.80084,-0.58592 -5.21395,-1.68437 -7.14735,-2.30026 -1.05295,-0.33542 -2.18248,-0.69941 -2.51007,-0.80888 -0.63106,-0.21086 -2.02323,-0.65951 -5.1478,-1.65896 -1.05295,-0.33681 -2.18248,-0.70053 -2.51007,-0.80827 -0.32759,-0.1077 -1.45713,-0.47087 -2.51008,-0.80696 -1.05295,-0.33608 -1.96271,-0.67285 -2.02166,-0.74838 -0.0872,-0.11174 -0.0838,-0.16077 0.0189,-0.26334 0.11125,-0.11138 0.22814,-0.0932 1.00061,0.15476 0.48101,0.15445 1.46806,0.47077 2.19343,0.70295 0.72537,0.23219 1.58688,0.51165 1.91447,0.62104 0.32758,0.10942 1.07422,0.3518 1.6592,0.53868 2.0439,0.65297 5.66323,1.81807 6.25393,2.01322 0.88192,0.29136 2.98246,0.96964 5.14778,1.66227 1.05297,0.33681 2.1825,0.70053 2.51008,0.80828 0.32759,0.1077 1.45712,0.47042 2.51009,0.80596 1.05295,0.33553 2.18248,0.70002 2.51008,0.80998 0.32758,0.11003 1.57198,0.51133 2.76533,0.89193 1.19336,0.3806 2.43776,0.78235 2.76535,0.89277 0.32758,0.1104 1.45712,0.47592 2.51007,0.8122 1.05297,0.33629 2.1825,0.70009 2.51008,0.80848 0.32759,0.10843 1.45713,0.47156 2.51009,0.80709 2.73077,0.87013 3.1776,1.02939 3.29569,1.17459 0.0772,0.0949 0.0801,0.159 0.011,0.24236 -0.10672,0.12852 -0.2116,0.13466 -0.45613,0.0267 z"
         id="path1067" /><path
         style="fill:#ffffff;stroke-width:1"
         d="m 104.74939,195.05442 c -0.0458,-0.33975 -0.11089,-0.73902 -0.43834,-2.68622 -0.0733,-0.43618 -0.11359,-0.82505 -0.0894,-0.86418 0.0242,-0.0391 0.24493,-0.0971 0.49058,-0.12898 0.24563,-0.0318 0.71463,-0.1077 1.04222,-0.16856 1.48234,-0.27555 2.34299,-0.41042 2.3804,-0.37301 0.0223,0.0223 0.0796,0.30634 0.12736,0.63112 0.0477,0.32478 0.18235,1.12656 0.29922,1.78173 0.11689,0.65517 0.21272,1.27035 0.21304,1.36706 6.1e-4,0.18922 0.0417,0.17809 -1.87134,0.50615 -0.44458,0.0763 -0.99209,0.17414 -1.21669,0.21756 -0.22459,0.0434 -0.51635,0.079 -0.64836,0.079 -0.21799,0 -0.24447,-0.0331 -0.2887,-0.36162 z"
         id="path1063" /><path
         style="fill:#ffffff;stroke-width:1"
         d="m 139.5767,196.86448 c -0.81896,-0.27185 -2.63771,-0.86495 -4.04164,-1.31798 -1.40396,-0.45304 -2.82066,-0.91418 -3.14824,-1.02478 -2.41812,-0.81632 -6.44564,-2.09057 -6.48458,-2.05161 -0.0261,0.0261 0.0792,0.78584 0.2341,1.68819 0.15491,0.90236 0.28452,1.75408 0.288,1.89273 l 0.006,0.25209 -1.9436,0.32856 c -1.06899,0.1807 -1.95805,0.31413 -1.97569,0.29649 -0.0488,-0.0487 -0.6329,-3.51524 -0.6329,-3.75582 0,-0.16158 0.0542,-0.22095 0.234,-0.25622 0.25587,-0.0502 2.24525,-0.38572 2.77969,-0.46883 0.52043,-0.081 0.45895,-0.22781 -0.18034,-0.43089 -0.31818,-0.10107 -1.86359,-0.60277 -3.43425,-1.11486 -1.57064,-0.51211 -2.92034,-0.9311 -2.99932,-0.9311 -0.1767,0 -0.17969,0.16193 -0.0196,1.0636 0.38331,2.15999 0.47168,2.67516 0.47168,2.74977 0,0.0455 -0.14359,0.0994 -0.31909,0.11972 -0.17549,0.0202 -1.05737,0.16349 -1.95971,0.3182 -0.90236,0.15471 -1.65812,0.26383 -1.67946,0.24249 -0.0213,-0.0213 -0.15652,-0.7253 -0.30037,-1.56431 -0.39746,-2.31817 -0.40017,-2.33682 -0.34506,-2.37019 0.0477,-0.0288 0.3531,-0.0817 2.68229,-0.46347 0.46416,-0.0761 0.8572,-0.1783 0.87339,-0.22716 0.0347,-0.10463 0.1617,-0.0591 -3.07873,-1.10565 -1.40394,-0.45345 -2.99296,-0.96926 -3.53113,-1.14626 -0.53817,-0.17699 -2.12719,-0.69278 -3.53113,-1.14619 -1.40395,-0.4534 -2.93552,-0.95128 -3.40349,-1.10638 -0.46799,-0.1551 -1.52094,-0.49805 -2.33991,-0.76209 -1.936097,-0.62423 -2.212273,-0.72667 -2.212273,-0.82048 0,-0.11801 0.209762,-0.0948 0.747203,0.0824 0.2676,0.0883 1.63525,0.53213 3.03919,0.98638 2.72129,0.88048 5.57499,1.80838 6.55173,2.13034 0.86861,0.28634 3.58467,1.16876 6.93462,2.25303 6.17652,1.99914 9.24425,2.99538 9.57233,3.10861 0.1872,0.0646 1.66134,0.54329 3.27587,1.06375 1.61454,0.52046 3.14611,1.01683 3.40349,1.10303 0.2574,0.0862 1.61667,0.52687 3.02061,0.97924 4.66795,1.50406 5.15734,1.67284 5.12567,1.76783 -0.017,0.0513 -0.067,0.10194 -0.11089,0.11261 -0.0439,0.011 -0.74983,-0.20299 -1.5688,-0.47484 z"
         id="path1057" /><path
         style="fill:#ffffff;stroke-width:1"
         d="m 109.67785,202.24935 c -0.0269,-0.13146 -0.0891,-0.48791 -0.13808,-0.79209 -0.0491,-0.30419 -0.18016,-1.08912 -0.29133,-1.74429 -0.11113,-0.65518 -0.18416,-1.2096 -0.16221,-1.23206 0.022,-0.0224 0.67885,-0.1484 1.45977,-0.27988 1.99679,-0.33621 2.42971,-0.39953 2.46828,-0.36096 0.0735,0.0735 0.72235,3.87431 0.67027,3.92639 -0.0237,0.0237 -0.82212,0.17449 -1.7743,0.33513 -0.95219,0.16064 -1.83301,0.31338 -1.95738,0.33942 -0.19529,0.0409 -0.23279,0.0147 -0.27502,-0.19166 z"
         id="path1053" /><path
         style="fill:#ffffff;stroke-width:1"
         d="m 119.92151,204.08102 c 0,-0.0196 -0.13401,-0.82847 -0.2978,-1.79742 -0.3434,-2.03142 -0.35202,-2.15994 -0.1489,-2.22112 0.14123,-0.0426 2.38637,-0.42637 3.29712,-0.5637 0.234,-0.0353 0.44857,-0.0399 0.47683,-0.01 0.046,0.0485 0.31147,1.49653 0.50117,2.73434 0.0395,0.25738 0.0986,0.62882 0.13141,0.82541 0.0704,0.42185 0.26901,0.34527 -1.83264,0.7068 -2.10049,0.36133 -2.12719,0.36542 -2.12719,0.32576 z"
         id="path894" /><path
         style="fill:#8d9939;stroke-width:1;fill-opacity:1"
         d="m 111.78333,201.80396 c 0.78878,-0.13501 1.46293,-0.27781 1.4981,-0.31736 0.0603,-0.0678 -0.4287,-3.21247 -0.51266,-3.29644 -0.0507,-0.0507 -3.15497,0.48196 -3.27866,0.5625 -0.067,0.0437 -0.0605,0.24726 0.0233,0.72325 0.15189,0.86346 0.36486,2.04706 0.42158,2.34296 0.0563,0.2935 0.0459,0.29359 1.84837,-0.015 z"
         id="path1055" /><path
         style="fill:#8d9939;stroke-width:1;fill-opacity:1"
         d="m 123.54342,203.13912 c 0.0514,-0.0514 -0.50867,-3.25508 -0.57757,-3.30396 -0.0372,-0.0264 -0.34492,-1.7e-4 -0.68383,0.0582 -1.82315,0.31408 -2.55483,0.45356 -2.59617,0.49491 -0.0253,0.0253 0.0217,0.4389 0.10451,0.91912 0.0828,0.48022 0.20437,1.19391 0.27018,1.58599 0.0659,0.39208 0.13696,0.74086 0.15811,0.77509 0.0339,0.0548 3.25313,-0.45769 3.32477,-0.52933 z"
         id="path1051" /><path
         style="fill:#8d9939;stroke-width:1;fill-opacity:1"
         d="m 124.60132,196.30447 c 0.77217,-0.12861 1.43271,-0.25864 1.46788,-0.28897 0.0573,-0.0494 -0.38232,-2.93778 -0.49121,-3.22761 -0.0337,-0.0897 -0.1514,-0.10549 -0.48924,-0.0658 -0.69223,0.0815 -2.76622,0.46009 -2.86939,0.52385 -0.0509,0.0314 -0.073,0.12094 -0.0492,0.19891 0.0453,0.14784 0.25483,1.3049 0.39559,2.18385 0.16201,1.01165 0.1574,1.00083 0.40627,0.95291 0.12391,-0.0239 0.85706,-0.14861 1.62923,-0.27721 z"
         id="path1059" /><path
         style="fill:#8d9939;stroke-width:1;fill-opacity:1"
         d="m 117.02853,193.82693 c 0.67858,-0.1191 1.26109,-0.24151 1.29448,-0.27206 0.0743,-0.0681 -0.4286,-3.17112 -0.53123,-3.27776 -0.0794,-0.0826 -3.21905,0.41021 -3.32256,0.52139 -0.0524,0.0563 0.14753,1.36085 0.445,2.90302 l 0.0878,0.45521 0.39637,-0.0567 c 0.21801,-0.0311 0.95156,-0.15406 1.63014,-0.27314 z"
         id="path1061" /><path
         style="fill:#8d9939;stroke-width:1;fill-opacity:1"
         d="m 106.86662,194.81941 c 0.83236,-0.14095 1.53308,-0.27595 1.55712,-0.29999 0.0457,-0.0458 -0.4709,-3.27237 -0.53417,-3.33564 -0.034,-0.034 -0.35911,0.0142 -2.43238,0.36081 -0.44429,0.0743 -0.83959,0.16684 -0.87845,0.2057 -0.0389,0.0389 0.0315,0.6594 0.15653,1.37896 0.12496,0.71957 0.2477,1.45188 0.27276,1.62737 0.033,0.23062 0.0871,0.31907 0.19538,0.31907 0.0824,0 0.83083,-0.1153 1.66321,-0.25628 z"
         id="path1065" /><path
         style="fill:#8d9939;stroke-width:1;fill-opacity:1"
         d="m 136.79832,169.21714 c 0.78839,-0.13514 1.46385,-0.27838 1.50102,-0.31832 0.0372,-0.0399 -0.0553,-0.80009 -0.20551,-1.68925 l -0.27308,-1.61667 -0.37706,0.0182 c -0.33735,0.0162 -2.97491,0.448 -3.04184,0.49796 -0.0148,0.011 0.035,0.37815 0.11088,0.81564 0.0758,0.43749 0.19707,1.14004 0.26934,1.56122 0.0722,0.42119 0.14561,0.81365 0.16299,0.87215 0.0448,0.15054 0.23927,0.13575 1.85328,-0.14089 z"
         id="path1083" /><path
         style="fill:#6a2cbf;stroke-width:1;fill-opacity:1"
         d="m 142.05281,170.98999 c 1.09298,-0.3441 1.52449,-1.07145 1.3004,-2.1919 -0.0699,-0.34948 -0.57357,-0.92523 -0.94527,-1.08054 -0.99639,-0.41632 -2.19112,0.20185 -2.36151,1.22188 -0.11346,0.67919 0.01,1.09723 0.45263,1.5405 0.36269,0.36269 0.56527,0.46134 1.21341,0.59089 0.0281,0.006 0.18127,-0.0308 0.34034,-0.0808 z"
         id="path1075" /><path
         style="fill:#6a2cbf;stroke-width:1;fill-opacity:1"
         d="m 133.66313,175.76922 c 0.1872,-0.087 0.42983,-0.24384 0.53919,-0.3487 0.23829,-0.22841 0.5244,-0.86523 0.5244,-1.16715 0,-1.03009 -1.0093,-1.92639 -1.98695,-1.76451 -0.45745,0.0757 -0.62546,0.16412 -1.00931,0.53098 -0.60134,0.57473 -0.62029,1.57474 -0.043,2.27498 0.49157,0.59638 1.29683,0.78972 1.97577,0.4744 z"
         id="path1071" /><path
         style="fill:#6a2cbf;stroke-width:1;fill-opacity:1"
         d="m 129.47111,169.34077 c 0.9518,-0.39769 1.27743,-1.6854 0.6479,-2.56201 -0.5744,-0.79982 -1.76975,-0.97133 -2.44345,-0.35058 -0.43641,0.4021 -0.62798,0.82275 -0.62798,1.37892 0,0.70396 0.3464,1.23545 0.99978,1.53399 0.33733,0.15412 1.05449,0.15396 1.42375,-3.2e-4 z"
         id="path1079" /><path
         style="fill:#6a2cbf;stroke-width:1;fill-opacity:1"
         d="m 137.51607,163.29107 c 0.69213,-0.28912 1.08342,-0.89579 1.07326,-1.66398 -0.0185,-1.39474 -1.72658,-2.16086 -2.76669,-1.2409 -0.41114,0.36366 -0.56122,0.62199 -0.62791,1.0809 -0.18581,1.27845 1.13773,2.31841 2.32134,1.82398 z"
         id="path1097" /><path
         style="fill:#6a2cbf;stroke-width:1;fill-opacity:1"
         d="m 131.42784,163.63083 c 0.66415,-0.46147 0.94085,-1.41491 0.59379,-2.04609 -0.40651,-0.7393 -0.89478,-1.05453 -1.63333,-1.05453 -0.84681,0 -1.70278,0.83113 -1.70278,1.65339 0,0.43992 0.35126,1.1628 0.6909,1.42185 0.37505,0.28608 0.51269,0.32144 1.158,0.29752 0.4301,-0.016 0.59856,-0.0672 0.89342,-0.27214 z"
         id="path1093" /><path
         style="fill:#6a2cbf;stroke-width:1;fill-opacity:1"
         d="m 122.95289,164.90035 c 0.17526,-0.0871 0.43536,-0.30471 0.57803,-0.48364 0.22481,-0.28196 0.26329,-0.40672 0.28867,-0.93596 0.0272,-0.56707 0.01,-0.63923 -0.23839,-1.01136 -0.37461,-0.56083 -1.01274,-0.87369 -1.61347,-0.79108 -0.48874,0.0672 -0.8578,0.29049 -1.21593,0.73561 -0.34296,0.42627 -0.41786,1.16556 -0.16735,1.6519 0.21503,0.41742 0.65957,0.84165 0.99626,0.95075 0.37027,0.11996 1.00498,0.0662 1.37218,-0.11616 z"
         id="path1087" /></g></g></svg>
