<?xml version="1.0" encoding="UTF-8" standalone="no"?>
<!-- Created with Inkscape (http://www.inkscape.org/) -->

<svg
   width="237.36507"
   height="143.55382"
   viewBox="0 0 62.80284 37.981947"
   version="1.1"
   id="svg1655"
   inkscape:version="1.2.2 (b0a84865, 2022-12-01)"
   xml:space="preserve"
   sodipodi:docname="support-vec-diagram.svg"
   xmlns:inkscape="http://www.inkscape.org/namespaces/inkscape"
   xmlns:sodipodi="http://sodipodi.sourceforge.net/DTD/sodipodi-0.dtd"
   xmlns="http://www.w3.org/2000/svg"
   xmlns:svg="http://www.w3.org/2000/svg"><sodipodi:namedview
     id="namedview1657"
     pagecolor="#161618"
     bordercolor="#b400ff"
     borderopacity="0.24705882"
     inkscape:showpageshadow="false"
     inkscape:pageopacity="1"
     inkscape:pagecheckerboard="0"
     inkscape:deskcolor="#d1d1d1"
     inkscape:document-units="mm"
     showgrid="false"
     borderlayer="false"
     showborder="false"
     inkscape:zoom="2.0189298"
     inkscape:cx="79.249908"
     inkscape:cy="74.544445"
     inkscape:window-width="1512"
     inkscape:window-height="917"
     inkscape:window-x="0"
     inkscape:window-y="65"
     inkscape:window-maximized="0"
     inkscape:current-layer="layer1" /><defs
     id="defs1652" /><g
     inkscape:label="Layer 1"
     inkscape:groupmode="layer"
     id="layer1"
     transform="translate(-103.08305,-160.45005)"><path
       style="fill:#ffffff;stroke-width:1"
       d="m 129.93432,166.54832 c -0.17846,-0.18996 -0.29329,-0.37657 -0.25518,-0.41468 0.0381,-0.0381 0.21531,0.0861 0.39378,0.27609 0.17846,0.18997 0.29329,0.37657 0.25518,0.41469 -0.0381,0.0381 -0.21531,-0.0861 -0.39378,-0.2761 z"
       id="path15751" /><path
       style="fill:#ffffff;stroke-width:1"
       d="m 130.97239,167.58633 c -0.21833,-0.22788 -0.33379,-0.41434 -0.2566,-0.41434 0.17835,0 0.81343,0.6688 0.72196,0.76028 -0.0376,0.0376 -0.24703,-0.11806 -0.46536,-0.34594 z"
       id="path15739" /><path
       style="fill:#ffffff;stroke-width:1"
       d="m 132.01323,168.62723 c -0.17903,-0.19057 -0.26314,-0.34649 -0.18692,-0.34649 0.0762,0 0.28507,0.15592 0.4641,0.34649 0.17903,0.19056 0.26314,0.34648 0.18691,0.34648 -0.0762,0 -0.28507,-0.15592 -0.46409,-0.34648 z"
       id="path15737" /><path
       style="fill:#ffffff;stroke-width:1"
       d="m 136.94886,169.13746 c -0.0385,-0.0624 0.0754,-0.35447 0.25322,-0.6491 l 0.32331,-0.53569 0.29297,0.57428 c 0.16114,0.31585 0.29298,0.60795 0.29298,0.6491 0,0.12141 -1.08587,0.0854 -1.16248,-0.0386 z m 0.80945,-0.45363 c -0.20903,-0.40423 -0.23249,-0.41402 -0.41493,-0.17324 -0.30966,0.40867 -0.24,0.60168 0.21715,0.60168 h 0.41934 z"
       id="path15735" /><path
       style="fill:#ffffff;stroke-width:1"
       d="m 147.39763,169.56273 c 6.9e-4,-0.14124 0.55917,-1.04887 0.60655,-0.98578 0.0208,0.0276 0.17841,0.28415 0.35032,0.57 l 0.31256,0.51973 h -0.63498 c -0.34923,0 -0.63474,-0.0468 -0.63445,-0.10395 z m 0.8078,-0.37678 c -0.16833,-0.36946 -0.30886,-0.35038 -0.53527,0.0727 -0.128,0.23918 -0.0973,0.26946 0.27348,0.26946 0.39382,0 0.40877,-0.0195 0.26179,-0.34213 z"
       id="path15729" /><path
       style="fill:#ffffff;stroke-width:1"
       d="m 122.33929,170.22293 c -0.58127,-0.13766 -0.72731,-0.27816 -0.29325,-0.28212 0.26511,-0.002 0.17602,-0.0932 -0.42733,-0.43531 -1.19863,-0.67971 -1.4151,-0.82601 -1.33729,-0.90382 0.04,-0.04 0.53884,0.18463 1.10857,0.49913 0.96884,0.53481 1.03093,0.55144 0.95934,0.25701 -0.0612,-0.25175 0.0234,-0.20376 0.42221,0.23956 0.27431,0.30491 0.50135,0.60115 0.50452,0.65832 0.007,0.12505 -0.31843,0.11367 -0.93677,-0.0328 z"
       id="path15723" /><path
       style="fill:#ffffff;stroke-width:1"
       d="m 134.16004,170.77398 c -0.21833,-0.22788 -0.33379,-0.41433 -0.25659,-0.41433 0.17834,0 0.81342,0.66879 0.72195,0.76027 -0.0376,0.0376 -0.24703,-0.11805 -0.46536,-0.34594 z"
       id="path15721" /><path
       style="fill:#ffffff;stroke-width:1"
       d="m 144.76383,171.658 c 0,-0.11556 0.57741,-1.04799 0.61541,-0.99381 0.0162,0.0231 0.17008,0.27582 0.34198,0.56167 l 0.31256,0.51972 h -0.63497 c -0.34924,0 -0.63498,-0.0394 -0.63498,-0.0876 z m 0.96575,-0.15496 c -0.002,-0.0572 -0.0881,-0.2142 -0.19033,-0.34895 -0.17422,-0.2296 -0.20031,-0.22306 -0.41457,0.10394 -0.22693,0.34635 -0.22551,0.34896 0.19033,0.34896 0.23044,0 0.41699,-0.0468 0.41457,-0.10395 z"
       id="path15719" /><path
       style="fill:#ffffff;stroke-width:1"
       d="m 139.77446,171.19121 c 0.15556,-0.30491 0.31147,-0.55438 0.34649,-0.55438 0.035,0 0.19093,0.24947 0.34648,0.55438 l 0.28282,0.55437 h -0.6293 -0.62931 z m 0.69297,0.33737 c 0,-0.0431 -0.0706,-0.21028 -0.15684,-0.37146 -0.15188,-0.28379 -0.16283,-0.28486 -0.34648,-0.0337 -0.27229,0.37239 -0.23623,0.48357 0.15684,0.48357 0.19056,0 0.34648,-0.0353 0.34648,-0.0784 z"
       id="path15717" /><path
       style="fill:#ffffff;stroke-width:1"
       d="m 135.20088,171.81488 c -0.17903,-0.19057 -0.26314,-0.34649 -0.18691,-0.34649 0.0762,0 0.28507,0.15592 0.46409,0.34649 0.17903,0.19056 0.26314,0.34648 0.18692,0.34648 -0.0762,0 -0.28507,-0.15592 -0.4641,-0.34648 z"
       id="path15715" /><path
       style="fill:#ffffff;stroke-width:1"
       d="m 136.30963,172.92363 c -0.17847,-0.18997 -0.2933,-0.37658 -0.25519,-0.41469 0.0381,-0.0381 0.21532,0.0861 0.39378,0.27609 0.17846,0.18997 0.29329,0.37658 0.25518,0.41469 -0.0381,0.0381 -0.21531,-0.0861 -0.39377,-0.27609 z"
       id="path15713" /><path
       style="fill:#ffffff;stroke-width:1"
       d="m 137.41837,174.03238 c -0.17846,-0.18997 -0.29329,-0.37658 -0.25518,-0.41469 0.0381,-0.0381 0.21531,0.0861 0.39378,0.27609 0.17846,0.18997 0.29329,0.37658 0.25518,0.41469 -0.0381,0.0381 -0.21531,-0.0861 -0.39378,-0.27609 z"
       id="path15711" /><path
       style="fill:#ffffff;stroke-width:1"
       d="m 139.63587,176.24987 c -0.0949,-0.11434 -0.38994,-0.20789 -0.65566,-0.20789 -0.45253,0 -0.47734,-0.0231 -0.39164,-0.36456 0.068,-0.27101 0.0123,-0.44883 -0.21702,-0.69297 -0.34974,-0.37227 -0.20803,-0.44957 0.18016,-0.0983 0.40101,0.36291 0.45588,0.11376 0.14152,-0.64266 -0.27793,-0.66877 -0.25295,-0.86624 0.0688,-0.54443 0.11,0.11 0.1342,-0.16666 0.0879,-1.00481 -0.17829,-3.22567 -0.4173,-9.06352 -0.37316,-9.11418 0.0277,-0.0318 0.0798,-0.0283 0.11581,0.008 0.0672,0.0672 0.4889,8.32687 0.4889,9.57567 0,0.60199 0.0278,0.67184 0.20789,0.52238 0.26208,-0.2175 0.27365,-0.0438 0.0474,0.7114 -0.13747,0.45881 -0.12272,0.61027 0.10275,1.05553 0.14478,0.28593 0.3514,0.62901 0.45916,0.7624 0.10775,0.1334 0.13152,0.24254 0.0528,0.24254 -0.0787,0 -0.22075,-0.0935 -0.31564,-0.20789 z m -0.143,-0.45043 c -0.002,-0.0572 -0.0998,-0.22868 -0.21646,-0.38113 -0.20954,-0.2739 -0.21441,-0.274 -0.41137,-0.008 -0.29171,0.39373 -0.24805,0.49324 0.21646,0.49324 0.22868,0 0.41379,-0.0468 0.41137,-0.10395 z"
       id="path15709" /><path
       style="fill:#ffffff;stroke-width:1"
       d="m 146.56555,176.45772 c 0.15555,-0.3049 0.30765,-0.55437 0.33799,-0.55437 0.0713,0 0.63216,0.90599 0.63216,1.02116 0,0.0482 -0.28192,0.0876 -0.62648,0.0876 h -0.62649 z m 0.6012,0.0545 c -0.2226,-0.33974 -0.24762,-0.34643 -0.41897,-0.1121 -0.27388,0.37455 -0.22444,0.47342 0.23674,0.47342 h 0.41898 z"
       id="path15707" /><path
       style="fill:#ffffff;stroke-width:1"
       d="m 119.33115,177.01125 c -0.38989,-0.43082 -0.10759,-0.51699 0.31365,-0.0958 0.2738,0.2738 0.31549,0.37378 0.15588,0.37378 -0.11985,0 -0.33114,-0.12511 -0.46953,-0.27803 z"
       id="path15705" /><path
       style="fill:#ffffff;stroke-width:1"
       d="m 140.60603,177.21999 c -0.17847,-0.18997 -0.2933,-0.37658 -0.25519,-0.41469 0.0381,-0.0381 0.21532,0.0861 0.39378,0.27609 0.17846,0.18997 0.29329,0.37658 0.25518,0.41469 -0.0381,0.0381 -0.21531,-0.0861 -0.39377,-0.27609 z"
       id="path15703" /><path
       style="fill:#ffffff;stroke-width:1"
       d="m 120.4399,178.11999 c -0.1384,-0.15291 -0.21081,-0.31884 -0.16093,-0.36873 0.10107,-0.10107 0.64677,0.34583 0.64677,0.52966 0,0.20233 -0.22436,0.12801 -0.48584,-0.16093 z"
       id="path15701" /><path
       style="fill:#ffffff;stroke-width:1"
       d="m 141.64409,178.25799 c -0.21833,-0.22788 -0.33379,-0.41433 -0.25659,-0.41433 0.17834,0 0.81342,0.66879 0.72195,0.76027 -0.0376,0.0376 -0.24703,-0.11805 -0.46536,-0.34594 z"
       id="path15699" /><path
       style="fill:#ffffff;stroke-width:1"
       d="m 121.50301,179.18466 c -0.16644,-0.17716 -0.2599,-0.36483 -0.20768,-0.41705 0.10238,-0.10239 0.73916,0.43581 0.73916,0.62473 0,0.20719 -0.22394,0.11968 -0.53148,-0.20768 z"
       id="path15697" /><path
       style="fill:#ffffff;stroke-width:1"
       d="m 142.68493,179.29889 c -0.17903,-0.19057 -0.26314,-0.34648 -0.18691,-0.34648 0.0762,0 0.28507,0.15591 0.4641,0.34648 0.17902,0.19057 0.26313,0.34648 0.18691,0.34648 -0.0762,0 -0.28507,-0.15591 -0.4641,-0.34648 z"
       id="path15695" /><path
       style="fill:#ffffff;stroke-width:1"
       d="m 122.58537,180.26532 c -0.43412,-0.46209 -0.21984,-0.62909 0.23,-0.17925 0.19618,0.19618 0.29691,0.39364 0.22383,0.4388 -0.0731,0.0452 -0.2773,-0.0716 -0.45383,-0.25955 z"
       id="path15693" /><path
       style="fill:#ffffff;stroke-width:1"
       d="m 143.79368,180.40764 c -0.17847,-0.18997 -0.2933,-0.37658 -0.25518,-0.41469 0.0381,-0.0381 0.21531,0.0861 0.39377,0.27609 0.17846,0.18997 0.2933,0.37658 0.25518,0.41469 -0.0381,0.0381 -0.21531,-0.0861 -0.39377,-0.27609 z"
       id="path15691" /><path
       style="fill:#ffffff;stroke-width:1"
       d="m 117.82022,181.8201 c -0.51961,-0.37996 0.0342,-1.32274 0.57619,-0.98087 0.32968,0.20796 0.30598,0.73982 -0.0433,0.97173 -0.23582,0.15658 -0.32906,0.15818 -0.53289,0.009 z"
       id="path15689" /><path
       style="fill:#ffffff;stroke-width:1"
       d="m 124.87566,182.55584 c -0.0471,-0.0762 -0.22542,-0.1386 -0.39624,-0.1386 -0.38344,0 -0.64321,-0.24467 -0.64321,-0.60582 0,-0.15027 -0.10357,-0.38764 -0.23014,-0.52751 -0.29342,-0.32423 -0.12896,-0.50771 0.19464,-0.21715 0.13386,0.1202 0.43049,0.23935 0.65917,0.26479 0.34672,0.0386 0.42331,0.1153 0.46109,0.46202 0.0249,0.22868 0.10288,0.47503 0.17324,0.54745 0.0704,0.0724 0.12793,0.18156 0.12793,0.24254 0,0.15723 -0.24425,0.13769 -0.34648,-0.0277 z"
       id="path15687" /><path
       style="fill:#ffffff;stroke-width:1"
       d="m 144.63322,183.12338 c -0.008,-0.31405 -0.0226,-0.32006 -0.26143,-0.10395 -0.39752,0.35975 -0.52435,0.26824 -0.16233,-0.11711 l 0.3255,-0.34648 -0.33599,-0.009 c -0.27369,-0.007 -0.22035,-0.0643 0.28767,-0.30886 0.34302,-0.16514 0.64991,-0.31744 0.68197,-0.33843 0.0321,-0.021 -0.0771,-0.18228 -0.24254,-0.3584 -0.41635,-0.44318 -0.3793,-0.63229 0.0456,-0.23306 0.42778,0.40187 0.42821,0.47747 0.008,1.40281 -0.2516,0.55402 -0.34056,0.65982 -0.34649,0.41207 z"
       id="path15685" /><path
       style="fill:#ffffff;stroke-width:1"
       d="m 125.77703,183.45724 c -0.17875,-0.19026 -0.28292,-0.388 -0.2315,-0.43942 0.10126,-0.10126 0.78536,0.48316 0.78536,0.67092 0,0.21161 -0.22653,0.11693 -0.55386,-0.2315 z"
       id="path15683" /><path
       style="fill:#ffffff;stroke-width:1"
       d="m 147.05063,183.66459 c -0.15062,-0.16643 -0.42687,-0.27719 -0.69135,-0.27719 -0.5489,0 -0.65532,-0.10071 -0.47078,-0.44553 0.11136,-0.20808 0.0893,-0.3318 -0.0957,-0.53616 -0.26182,-0.2893 -0.0841,-0.374 0.19638,-0.0936 0.13705,0.13705 0.19528,0.13455 0.28602,-0.0123 0.0839,-0.13585 0.19184,-0.0583 0.41001,0.2947 0.16284,0.26348 0.29607,0.53004 0.29607,0.59236 0,0.0623 0.1356,0.25765 0.30134,0.43407 0.16575,0.17642 0.23778,0.32077 0.16008,0.32077 -0.0777,0 -0.25416,-0.12474 -0.39212,-0.27719 z m -0.43136,-0.90519 c -0.12643,-0.19294 -0.24415,-0.33327 -0.26161,-0.31183 -0.0175,0.0214 -0.10476,0.1793 -0.194,0.35081 -0.15128,0.29077 -0.13361,0.31183 0.26161,0.31183 0.42165,0 0.42266,-0.002 0.194,-0.35081 z"
       id="path15681" /><path
       style="fill:#ffffff;stroke-width:1"
       d="m 142.96212,184.26728 c 0,-0.0762 0.15591,-0.28507 0.34648,-0.4641 0.19057,-0.17903 0.34648,-0.26314 0.34648,-0.18691 0,0.0762 -0.15591,0.28507 -0.34648,0.4641 -0.19057,0.17903 -0.34648,0.26313 -0.34648,0.18691 z"
       id="path15679" /><path
       style="fill:#ffffff;stroke-width:1"
       d="m 126.8152,184.4953 c -0.38988,-0.43082 -0.10759,-0.51699 0.31365,-0.0958 0.2738,0.2738 0.3155,0.37378 0.15588,0.37378 -0.11985,0 -0.33114,-0.12511 -0.46953,-0.27803 z"
       id="path15677" /><path
       style="fill:#ffffff;stroke-width:1"
       d="m 148.09008,184.70404 c -0.17847,-0.18997 -0.2933,-0.37658 -0.25518,-0.41469 0.0381,-0.0381 0.21531,0.0861 0.39377,0.27609 0.17846,0.18997 0.2933,0.37658 0.25518,0.41469 -0.0381,0.0381 -0.21531,-0.0861 -0.39377,-0.27609 z"
       id="path15675" /><path
       style="fill:#ffffff;stroke-width:1"
       d="m 142.13055,184.98122 c 0.17903,-0.19056 0.38788,-0.34648 0.4641,-0.34648 0.0762,0 -0.008,0.15592 -0.18691,0.34648 -0.17903,0.19057 -0.38787,0.34649 -0.4641,0.34649 -0.0762,0 0.008,-0.15592 0.18691,-0.34649 z"
       id="path15673" /><path
       style="fill:#ffffff;stroke-width:1"
       d="m 127.9462,185.62863 c -0.37541,-0.41482 -0.27601,-0.67024 0.11711,-0.30092 0.3505,0.32928 0.44363,0.55437 0.22937,0.55437 -0.0644,0 -0.22033,-0.11405 -0.34648,-0.25345 z"
       id="path15671" /><path
       style="fill:#ffffff;stroke-width:1"
       d="m 149.12814,185.74204 c -0.21832,-0.22788 -0.33379,-0.41433 -0.25659,-0.41433 0.17834,0 0.81343,0.66879 0.72195,0.76027 -0.0376,0.0376 -0.24703,-0.11805 -0.46536,-0.34594 z"
       id="path15669" /><path
       style="fill:#ffffff;stroke-width:1"
       d="m 141.08972,186.02212 c 0.21832,-0.22788 0.42774,-0.38355 0.46535,-0.34594 0.0915,0.0915 -0.5436,0.76028 -0.72195,0.76028 -0.0772,0 0.0383,-0.18645 0.2566,-0.41434 z"
       id="path15667" /><path
       style="fill:#ffffff;stroke-width:1"
       d="m 150.16847,186.78239 c -0.17875,-0.19026 -0.26142,-0.34593 -0.18372,-0.34593 0.17703,0 0.66861,0.53196 0.57661,0.62397 -0.0374,0.0374 -0.21415,-0.0878 -0.39289,-0.27804 z"
       id="path15665" /><path
       style="fill:#ffffff;stroke-width:1"
       d="m 125.03153,187.47338 c -0.27233,-0.27232 -0.27788,-0.35748 -0.0442,-0.67711 0.38001,-0.5197 1.32252,0.0327 0.98217,0.57569 -0.20518,0.32732 -0.66266,0.37678 -0.93801,0.10142 z"
       id="path15663" /><path
       style="fill:#ffffff;stroke-width:1"
       d="m 130.28081,187.82239 c -0.0471,-0.0762 -0.25661,-0.13859 -0.46554,-0.13859 -0.45291,0 -0.71251,-0.2261 -0.71251,-0.62055 0,-0.15836 -0.0971,-0.42654 -0.21575,-0.59595 -0.23985,-0.34245 -0.0561,-0.42772 0.21575,-0.10014 0.0949,0.11434 0.34533,0.20789 0.55652,0.20789 0.37836,0 0.55223,0.2074 0.55223,0.65874 0,0.12116 0.10322,0.33435 0.22937,0.47374 0.12615,0.1394 0.16102,0.25346 0.0775,0.25346 -0.0836,0 -0.19044,-0.0624 -0.23755,-0.1386 z"
       id="path15661" /><path
       style="fill:#ffffff;stroke-width:1"
       d="m 138.9429,188.16888 c 0.17903,-0.19057 0.38788,-0.34649 0.4641,-0.34649 0.0762,0 -0.008,0.15592 -0.18691,0.34649 -0.17903,0.19056 -0.38787,0.34648 -0.4641,0.34648 -0.0762,0 0.008,-0.15592 0.18691,-0.34648 z"
       id="path15659" /><path
       style="fill:#ffffff;stroke-width:1"
       d="m 131.18115,188.7227 c -0.17874,-0.19026 -0.26142,-0.34593 -0.18372,-0.34593 0.17703,0 0.66862,0.53196 0.57661,0.62397 -0.0373,0.0374 -0.21414,-0.0878 -0.39289,-0.27804 z"
       id="path15657" /><path
       style="fill:#ffffff;stroke-width:1"
       d="m 137.69556,189.53383 c 0,-0.0762 0.15592,-0.28507 0.34648,-0.4641 0.19057,-0.17902 0.34649,-0.26313 0.34649,-0.18691 0,0.0762 -0.15592,0.28507 -0.34649,0.4641 -0.19056,0.17903 -0.34648,0.26314 -0.34648,0.18691 z"
       id="path15655" /><path
       style="fill:#ffffff;stroke-width:1"
       d="m 131.90235,190.15076 c -0.2543,-0.25429 -0.19804,-0.77711 0.10084,-0.93706 0.36133,-0.19338 0.68773,-0.0452 0.78897,0.3582 0.14626,0.58275 -0.4791,0.98958 -0.88981,0.57886 z"
       id="path15653" /><path
       style="fill:#ffffff;stroke-width:1"
       d="m 136.86349,190.24836 c 0.17874,-0.19027 0.35554,-0.31539 0.39289,-0.27804 0.092,0.092 -0.39958,0.62397 -0.57661,0.62397 -0.0777,0 0.005,-0.15567 0.18372,-0.34593 z"
       id="path15651" /><path
       style="fill:#ffffff;stroke-width:1"
       d="m 133.32848,190.87003 c -0.21833,-0.22788 -0.33379,-0.41433 -0.2566,-0.41433 0.17835,0 0.81343,0.6688 0.72196,0.76027 -0.0376,0.0376 -0.24703,-0.11805 -0.46536,-0.34594 z"
       id="path15649" /><path
       style="fill:#ffffff;stroke-width:1"
       d="m 134.36932,191.91093 c -0.39444,-0.41986 -0.21259,-0.46431 0.22349,-0.0546 l 0.31066,0.29185 0.35014,-0.67298 c 0.28077,-0.53966 0.35142,-0.60695 0.35659,-0.33967 0.006,0.31406 0.0211,0.32007 0.25991,0.10394 0.34991,-0.31666 0.53665,-0.28923 0.24264,0.0356 -0.22776,0.25168 -0.22709,0.26774 0.0132,0.31927 0.18909,0.0405 0.10561,0.13115 -0.3305,0.35866 -0.75078,0.39168 -1.02625,0.38355 -1.4261,-0.0421 z"
       id="path15647" /><path
       style="fill:#ffffff;stroke-width:1"
       d="m 142.69073,189.83783 c -2.13445,-2.13678 -2.58937,-2.53059 -2.76177,-2.39073 -0.17306,0.14039 -0.19,0.12379 -0.10486,-0.10283 0.0842,-0.22399 -0.85458,-1.2266 -5.4825,-5.85558 -3.07122,-3.07192 -5.62444,-5.58531 -5.67383,-5.58531 -0.0785,0 -0.54374,0.69599 -2.56118,3.83172 -0.4325,0.67225 -0.44126,0.70962 -0.15198,0.64825 0.27264,-0.0578 0.26047,-0.0245 -0.1088,0.29829 -0.91841,0.80272 -1.01009,0.76767 -0.74506,-0.28486 0.12635,-0.50178 0.18528,-0.58005 0.31183,-0.41414 0.12679,0.16622 0.41586,-0.20119 1.54198,-1.9599 0.76227,-1.19046 1.40284,-2.23229 1.4235,-2.31516 0.0207,-0.0829 -0.86808,-1.0542 -1.97496,-2.1585 -1.10689,-1.1043 -2.01252,-2.07021 -2.01252,-2.14647 0,-0.0763 0.92862,0.78842 2.0636,1.92151 1.13498,1.13309 2.11726,2.02672 2.18285,1.98585 0.0656,-0.0409 1.83399,-2.72486 3.92979,-5.96441 2.0958,-3.23955 3.85377,-5.86338 3.90659,-5.83074 0.0528,0.0327 -0.71083,1.30309 -1.697,2.82322 -0.98616,1.52012 -1.79303,2.81889 -1.79303,2.88617 0,0.0673 0.12473,0.23519 0.27719,0.37316 0.15245,0.13797 0.27718,0.31443 0.27718,0.39212 0,0.0777 -0.1572,-0.006 -0.34934,-0.18691 -0.3021,-0.28382 -0.37437,-0.30114 -0.53451,-0.12811 -0.23793,0.25709 -3.64707,5.54042 -3.75172,5.81425 -0.12083,0.31617 11.04254,11.43424 11.35893,11.31283 0.18256,-0.0701 0.21627,-0.0365 0.14636,0.14566 -0.0684,0.17825 0.55182,0.87998 2.51254,2.84274 1.43184,1.43333 2.54097,2.60606 2.46472,2.60606 -0.0762,0 -1.28855,-1.15118 -2.694,-2.55818 z"
       id="path15645" /><path
       style="fill:#ffffff;stroke-width:1"
       d="m 118.78744,192.73259 c -0.11978,-0.11978 -0.21779,-0.30243 -0.21779,-0.40588 0,-0.2456 0.38213,-0.62367 0.63038,-0.62367 0.10713,0 0.298,0.15752 0.42415,0.35004 0.21477,0.32778 0.2136,0.36743 -0.0183,0.62367 -0.29898,0.33037 -0.52828,0.34601 -0.81845,0.0558 z"
       id="path15643" /><path
       style="fill:#ffffff;stroke-width:1"
       d="m 135.47806,193.01968 c -0.17846,-0.18996 -0.29329,-0.37657 -0.25518,-0.41469 0.0381,-0.0381 0.21532,0.0861 0.39378,0.2761 0.17846,0.18996 0.29329,0.37657 0.25518,0.41468 -0.0381,0.0381 -0.21531,-0.0861 -0.39378,-0.27609 z"
       id="path15641" /><path
       style="fill:#ffffff;stroke-width:1"
       d="m 136.51613,194.05769 c -0.21833,-0.22789 -0.33379,-0.41434 -0.25659,-0.41434 0.17834,0 0.81342,0.6688 0.72195,0.76027 -0.0376,0.0376 -0.24703,-0.11805 -0.46536,-0.34593 z"
       id="path15639" /><path
       style="fill:#ffffff;stroke-width:1"
       d="m 133.40066,194.8232 c -0.21217,-0.25564 -0.08,-0.84289 0.21524,-0.95617 0.33127,-0.12713 0.75342,0.16185 0.75342,0.51574 0,0.58719 -0.61485,0.86674 -0.96866,0.44043 z"
       id="path15637" /><path
       style="fill:#ffffff;stroke-width:1"
       d="m 124.00252,194.863 c -0.47043,-0.47042 0.0828,-1.25415 0.66525,-0.94243 0.48918,0.2618 0.27745,1.10875 -0.27719,1.10875 -0.12196,0 -0.29659,-0.0748 -0.38806,-0.16632 z"
       id="path15635" /><path
       style="fill:#ffffff;stroke-width:1"
       d="m 141.4895,192.95269 c -2.30874,-1.79372 -3.048,-2.3015 -3.10676,-2.13396 -0.0575,0.1639 -0.17503,0.0719 -0.46183,-0.36148 -0.21159,-0.31973 -0.35289,-0.61314 -0.31401,-0.65203 0.0389,-0.0389 0.40217,0.0407 0.8073,0.17691 0.59935,0.20147 0.67913,0.2622 0.42815,0.32595 -0.2585,0.0657 0.19586,0.46915 2.80652,2.49226 1.71323,1.32764 3.11496,2.43466 3.11496,2.46003 0,0.19175 -0.61669,-0.24288 -3.27433,-2.30768 z"
       id="path15633" /><path
       style="fill:#ffffff;stroke-width:1"
       d="m 137.55697,195.09861 c -0.17903,-0.19056 -0.26314,-0.34648 -0.18691,-0.34648 0.0762,0 0.28507,0.15592 0.46409,0.34648 0.17903,0.19057 0.26314,0.34649 0.18692,0.34649 -0.0762,0 -0.28507,-0.15592 -0.4641,-0.34649 z"
       id="path15631" /><path
       style="fill:#ffffff;stroke-width:1"
       d="m 121.42764,195.3728 c -0.33632,-0.33632 -0.27617,-0.74178 0.13805,-0.93051 0.32075,-0.14615 0.39341,-0.12744 0.62736,0.16147 0.23274,0.28742 0.2413,0.3619 0.0711,0.61869 -0.25017,0.37744 -0.55469,0.43218 -0.83652,0.15035 z"
       id="path15627" /><path
       style="fill:#ffffff;stroke-width:1"
       d="m 138.6652,196.2068 c -0.17874,-0.19027 -0.26142,-0.34594 -0.18372,-0.34594 0.17703,0 0.66862,0.53197 0.57662,0.62397 -0.0374,0.0374 -0.21415,-0.0878 -0.3929,-0.27803 z"
       id="path15625" /><path
       style="fill:#ffffff;stroke-width:1"
       d="m 139.77446,197.31609 c -0.17846,-0.18996 -0.29329,-0.37657 -0.25518,-0.41469 0.0381,-0.0381 0.21532,0.0861 0.39378,0.2761 0.17846,0.18996 0.29329,0.37657 0.25518,0.41468 -0.0381,0.0381 -0.21531,-0.0861 -0.39378,-0.27609 z"
       id="path15619" /><text
       xml:space="preserve"
       style="font-size:2.11667px;font-family:'CMU Serif';-inkscape-font-specification:'CMU Serif, Normal';fill:#ffffff;fill-opacity:1;fill-rule:evenodd;stroke:none;stroke-width:0.25;stroke-linecap:square;stroke-dasharray:1.50001, 0.25;stroke-dashoffset:0;paint-order:fill markers stroke"
       x="127.22901"
       y="165.11111"
       id="text9400"
       transform="scale(1.0197495,0.98063299)"><tspan
         sodipodi:role="line"
         id="tspan9398"
         style="font-size:2.11667px;fill:#ffffff;stroke:none;stroke-width:0.25"
         x="127.22901"
         y="165.11111">Support Vectors</tspan></text><text
       xml:space="preserve"
       style="font-size:2.11667px;font-family:'CMU Serif';-inkscape-font-specification:'CMU Serif, Normal';fill:#ffffff;fill-opacity:1;fill-rule:evenodd;stroke:none;stroke-width:0.25;stroke-linecap:square;stroke-dasharray:1.50001, 0.25;stroke-dashoffset:0;paint-order:fill markers stroke"
       x="101.01679"
       y="170.63168"
       id="text15499"
       transform="scale(1.0197495,0.98063299)"><tspan
         sodipodi:role="line"
         id="tspan15497"
         style="font-size:2.11667px;fill:#ffffff;stroke:none;stroke-width:0.25"
         x="101.01679"
         y="170.63168">Maximum Margin</tspan><tspan
         sodipodi:role="line"
         style="font-size:2.11667px;fill:#ffffff;stroke:none;stroke-width:0.25"
         x="101.01679"
         y="173.27753"
         id="tspan15501">Hyperplane</tspan></text><text
       xml:space="preserve"
       style="font-size:2.11667px;font-family:'CMU Serif';-inkscape-font-specification:'CMU Serif, Normal';fill:#ffffff;fill-opacity:1;fill-rule:evenodd;stroke:none;stroke-width:0.25;stroke-linecap:square;stroke-dasharray:1.50001, 0.25;stroke-dashoffset:0;paint-order:fill markers stroke"
       x="143.15543"
       y="201.9149"
       id="text15557"
       transform="scale(1.0197495,0.98063299)"><tspan
         sodipodi:role="line"
         style="font-size:2.11667px;fill:#ffffff;stroke:none;stroke-width:0.25"
         x="143.15543"
         y="201.9149"
         id="tspan15555">Margin is Maximized</tspan></text></g></svg>
