<?xml version="1.0" encoding="UTF-8" standalone="no"?>
<!-- Created with Inkscape (http://www.inkscape.org/) -->

<svg
   width="234.66006"
   height="91.907379"
   viewBox="0 0 62.087142 24.317161"
   version="1.1"
   id="svg1655"
   inkscape:version="1.2.2 (b0a84865, 2022-12-01)"
   xml:space="preserve"
   sodipodi:docname="svm-steps-4.svg"
   xmlns:inkscape="http://www.inkscape.org/namespaces/inkscape"
   xmlns:sodipodi="http://sodipodi.sourceforge.net/DTD/sodipodi-0.dtd"
   xmlns="http://www.w3.org/2000/svg"
   xmlns:svg="http://www.w3.org/2000/svg"><sodipodi:namedview
     id="namedview1657"
     pagecolor="#161618"
     bordercolor="#b400ff"
     borderopacity="0.24705882"
     inkscape:showpageshadow="false"
     inkscape:pageopacity="1"
     inkscape:pagecheckerboard="0"
     inkscape:deskcolor="#d1d1d1"
     inkscape:document-units="mm"
     showgrid="false"
     borderlayer="false"
     showborder="false"
     inkscape:zoom="2.6074563"
     inkscape:cx="66.348189"
     inkscape:cy="15.148864"
     inkscape:window-width="1512"
     inkscape:window-height="917"
     inkscape:window-x="0"
     inkscape:window-y="2625"
     inkscape:window-maximized="0"
     inkscape:current-layer="layer1" /><defs
     id="defs1652" /><g
     inkscape:label="Layer 1"
     inkscape:groupmode="layer"
     id="layer1"
     transform="translate(-98.961979,-168.38542)"><path
       style="fill:#ffffff;stroke-width:1"
       d="m 128.95544,175.2728 c 0.0287,-0.11989 0.0713,-0.31294 0.0947,-0.42916 0.0375,-0.18779 0.016,-0.21709 -0.19357,-0.26312 -0.12965,-0.0284 -0.28715,-0.12514 -0.34989,-0.21467 -0.0627,-0.0896 -0.11405,-0.26415 -0.11405,-0.38795 0,-0.12382 0.0716,-0.37313 0.15927,-0.55409 0.10618,-0.21939 0.2667,-0.39197 0.48163,-0.51794 0.17729,-0.10384 0.37617,-0.18889 0.44196,-0.18889 0.0805,0 0.13652,-0.10005 0.17124,-0.30548 0.0284,-0.16801 0.10224,-0.35609 0.16409,-0.41794 0.0618,-0.0618 0.1597,-0.11245 0.21741,-0.11245 0.0885,0 0.0878,0.0562 -0.004,0.36097 -0.0602,0.19852 -0.10997,0.38244 -0.11041,0.40873 -5.7e-4,0.0263 0.10311,0.0909 0.23006,0.14336 0.12703,0.0526 0.26377,0.15709 0.30397,0.23219 0.0403,0.0751 0.0731,0.2431 0.0731,0.37331 0,0.13024 -0.0483,0.32909 -0.10719,0.44194 -0.0589,0.11289 -0.20532,0.29843 -0.32522,0.41236 -0.11989,0.11391 -0.35176,0.25347 -0.51521,0.31005 -0.25367,0.0878 -0.31452,0.15404 -0.41569,0.45238 -0.0652,0.19223 -0.14896,0.37757 -0.1862,0.41187 -0.0392,0.0362 -0.0456,-0.0292 -0.0153,-0.15547 z m 0.37301,-1.58516 c 0.10719,-0.42739 0.17786,-0.79409 0.15709,-0.81487 -0.0207,-0.0207 -0.12616,0.0131 -0.23432,0.0742 -0.10807,0.0616 -0.26004,0.23111 -0.33764,0.37675 -0.0776,0.1457 -0.14118,0.39941 -0.14118,0.56395 0,0.17173 0.0535,0.35835 0.12572,0.43813 0.0691,0.0764 0.15042,0.13899 0.18055,0.13899 0.0302,0 0.14249,-0.34971 0.24966,-0.77712 z m 0.4034,0.64245 c 0.0888,-0.0722 0.21321,-0.21678 0.27645,-0.32127 0.0633,-0.10457 0.13797,-0.32105 0.1661,-0.48123 0.0368,-0.20971 0.0166,-0.344 -0.0723,-0.47966 -0.068,-0.1037 -0.16068,-0.17599 -0.20618,-0.16083 -0.0455,0.0152 -0.19306,0.37634 -0.32789,0.80261 -0.21051,0.66554 -0.22768,0.77482 -0.12135,0.77336 0.0681,-8.6e-4 0.19643,-0.0608 0.28523,-0.13301 z"
       id="path74849" /><path
       style="fill:#ffffff;stroke-width:1"
       d="m 117.09598,169.62668 c 0.0279,-0.0279 0.0506,-0.13039 0.0506,-0.22797 0,-0.0976 -0.0341,-0.17732 -0.076,-0.17732 -0.0419,0 -0.076,0.10253 -0.076,0.22797 0,0.12542 0.0117,0.22797 0.0254,0.22797 0.0146,0 0.0481,-0.0228 0.076,-0.0506 z"
       id="path74847" /><path
       style="fill:#ffffff;stroke-width:1"
       d="m 117.09598,170.46257 c 0.0279,-0.0279 0.0506,-0.13039 0.0506,-0.22797 0,-0.0976 -0.0341,-0.17732 -0.076,-0.17732 -0.0419,0 -0.076,0.10268 -0.076,0.22799 0,0.12542 0.0117,0.22796 0.0254,0.22796 0.0146,0 0.0481,-0.0228 0.076,-0.0506 z"
       id="path74845" /><path
       style="fill:#ffffff;stroke-width:1"
       d="m 117.09598,171.29848 c 0.0279,-0.0279 0.0506,-0.13039 0.0506,-0.22797 0,-0.0976 -0.0341,-0.17732 -0.076,-0.17732 -0.0419,0 -0.076,0.10253 -0.076,0.22797 0,0.12543 0.0117,0.22797 0.0254,0.22797 0.0146,0 0.0481,-0.0227 0.076,-0.0506 z"
       id="path74843" /><path
       style="fill:#ffffff;stroke-width:1"
       d="m 117.14658,171.91906 c 0,-0.10443 -0.0341,-0.18998 -0.076,-0.18998 -0.0419,0 -0.076,0.0855 -0.076,0.18998 0,0.10457 0.0341,0.18998 0.076,0.18998 0.0417,0 0.076,-0.0855 0.076,-0.18998 z"
       id="path74841" /><path
       style="fill:#ffffff;stroke-width:1"
       d="m 108.33163,172.66106 c 0.0627,-0.0172 0.19385,-0.0702 0.29144,-0.11799 0.0976,-0.0477 0.22584,-0.18029 0.28497,-0.29463 0.0591,-0.11435 0.10749,-0.3156 0.10749,-0.44724 0,-0.17258 -0.0748,-0.31413 -0.26808,-0.50743 -0.24136,-0.24135 -0.29895,-0.26397 -0.57741,-0.22662 -0.17012,0.0228 -0.39091,0.11814 -0.49065,0.21186 -0.0998,0.0936 -0.20289,0.28515 -0.2292,0.42544 -0.0268,0.14278 -0.007,0.35322 0.0445,0.47809 0.0507,0.12266 0.16585,0.27034 0.25566,0.3282 0.0898,0.0579 0.23169,0.12236 0.31527,0.14336 0.0836,0.021 0.20328,0.0241 0.26598,0.007 z"
       id="path74839" /><path
       style="fill:#ffffff;stroke-width:1"
       d="m 113.85552,172.62576 c 0.13345,-0.0346 0.31291,-0.16169 0.39896,-0.28253 0.0901,-0.12644 0.15642,-0.33882 0.15642,-0.50052 0,-0.22005 -0.058,-0.33886 -0.26809,-0.54892 -0.24409,-0.2441 -0.29678,-0.26424 -0.5888,-0.22508 -0.21606,0.029 -0.37639,0.10778 -0.49128,0.2413 -0.0938,0.10909 -0.19161,0.28215 -0.21734,0.38467 -0.0257,0.10253 -0.0267,0.2665 -10e-4,0.36443 0.0247,0.098 0.1317,0.26511 0.23808,0.37146 0.10632,0.10632 0.26948,0.20793 0.3625,0.2257 0.093,0.0178 0.27827,0.004 0.41164,-0.0305 z"
       id="path74837" /><path
       style="fill:#ffffff;stroke-width:1"
       d="m 117.14658,172.75936 c 0,-0.10209 -0.0341,-0.20662 -0.076,-0.23245 -0.0443,-0.0274 -0.076,0.0499 -0.076,0.18549 0,0.1279 0.0341,0.23246 0.076,0.23246 0.0417,0 0.076,-0.0834 0.076,-0.1855 z"
       id="path74835" /><path
       style="fill:#ffffff;stroke-width:1"
       d="m 117.14658,173.59527 c 0,-0.1021 -0.0341,-0.20664 -0.076,-0.23247 -0.0443,-0.0274 -0.076,0.0499 -0.076,0.1855 0,0.12791 0.0341,0.23245 0.076,0.23245 0.0417,0 0.076,-0.0834 0.076,-0.18548 z"
       id="path74833" /><path
       style="fill:#729230;fill-opacity:1;stroke-width:1"
       d="m 107.8265,177.87949 c 0.10968,-0.0862 0.22753,-0.26574 0.26206,-0.39895 0.0346,-0.13316 0.0477,-0.3208 0.0293,-0.41689 -0.0184,-0.0961 -0.13432,-0.27563 -0.25765,-0.39895 -0.1718,-0.17182 -0.29367,-0.22426 -0.52116,-0.22426 -0.22071,0 -0.36063,0.0569 -0.54509,0.22175 -0.21087,0.1884 -0.24817,0.27331 -0.24817,0.56494 0,0.27616 0.0436,0.38871 0.22318,0.57616 0.17933,0.18718 0.28561,0.23296 0.54069,0.23296 0.20566,0 0.3877,-0.0553 0.51679,-0.15676 z"
       id="path74831" /><path
       style="fill:#ffffff;stroke-width:1"
       d="m 117.05296,178.56819 c 0,-0.14629 -0.0156,-0.20613 -0.0347,-0.13301 -0.0191,0.0732 -0.0191,0.19282 0,0.26597 0.0191,0.0732 0.0347,0.0131 0.0347,-0.13301 z"
       id="path74829" /><path
       style="fill:#ffffff;stroke-width:1"
       d="m 117.10506,179.53707 c 0.0318,-0.0732 0.0318,-0.19282 0,-0.26596 -0.0551,-0.12659 -0.0594,-0.12659 -0.0897,0 -0.0175,0.0732 -0.0175,0.19282 0,0.26596 0.0303,0.1266 0.0346,0.1266 0.0897,0 z"
       id="path74827" /><path
       style="fill:#ffffff;stroke-width:1"
       d="m 117.14666,180.23999 c 0,-0.12543 -0.0341,-0.22797 -0.076,-0.22797 -0.0419,0 -0.076,0.10253 -0.076,0.22797 0,0.12542 0.0341,0.22798 0.076,0.22798 0.0417,0 0.076,-0.10253 0.076,-0.22798 z"
       id="path74825" /><path
       style="fill:#ffffff;stroke-width:1"
       d="m 100.10568,186.34288 c -0.0732,-0.0191 -0.192817,-0.0191 -0.265957,0 -0.0732,0.0191 -0.0131,0.0347 0.13301,0.0347 0.146277,0 0.206117,-0.0156 0.133007,-0.0347 z"
       id="path74823" /><path
       style="fill:#ffffff;stroke-width:1"
       d="m 100.99857,186.39528 c 0.0274,-0.0445 -0.0513,-0.076 -0.18998,-0.076 -0.13855,0 -0.21745,0.0315 -0.18997,0.076 0.0258,0.0419 0.11128,0.076 0.18997,0.076 0.0786,0 0.16415,-0.0341 0.18998,-0.076 z"
       id="path74821" /><path
       style="fill:#ffffff;stroke-width:1"
       d="m 101.83448,186.39528 c 0.0274,-0.0445 -0.0513,-0.076 -0.18998,-0.076 -0.13855,0 -0.21745,0.0315 -0.18997,0.076 0.0258,0.0419 0.11128,0.076 0.18997,0.076 0.0786,0 0.16415,-0.0341 0.18998,-0.076 z"
       id="path74819" /><path
       style="fill:#ffffff;stroke-width:1"
       d="m 102.67037,186.39528 c 0.0274,-0.0445 -0.0513,-0.076 -0.18997,-0.076 -0.13856,0 -0.21746,0.0315 -0.18998,0.076 0.0258,0.0419 0.11128,0.076 0.18998,0.076 0.0786,0 0.16414,-0.0341 0.18997,-0.076 z"
       id="path74817" /><path
       style="fill:#ffffff;stroke-width:1"
       d="m 103.50628,186.39528 c 0.0274,-0.0445 -0.0513,-0.076 -0.18998,-0.076 -0.13855,0 -0.21745,0.0315 -0.18997,0.076 0.0258,0.0419 0.11128,0.076 0.18997,0.076 0.0786,0 0.16415,-0.0341 0.18998,-0.076 z"
       id="path74815" /><path
       style="fill:#ffffff;stroke-width:1"
       d="m 104.34217,186.39528 c 0.0276,-0.0445 -0.0513,-0.076 -0.18997,-0.076 -0.13855,0 -0.21746,0.0315 -0.18998,0.076 0.0258,0.0419 0.11128,0.076 0.18998,0.076 0.0786,0 0.16415,-0.0341 0.18997,-0.076 z"
       id="path74813" /><path
       style="fill:#ffffff;stroke-width:1"
       d="m 117.14666,175.26703 c 0,-0.10209 -0.0341,-0.20663 -0.076,-0.23246 -0.0443,-0.0274 -0.076,0.0499 -0.076,0.1855 0,0.1279 0.0341,0.23246 0.076,0.23246 0.0417,0 0.076,-0.0834 0.076,-0.1855 z"
       id="path74811" /><path
       style="fill:#ffffff;stroke-width:1"
       d="m 117.14666,176.10292 c 0,-0.10209 -0.0341,-0.20662 -0.076,-0.23244 -0.0443,-0.0274 -0.076,0.0499 -0.076,0.18548 0,0.12791 0.0341,0.23246 0.076,0.23246 0.0417,0 0.076,-0.0834 0.076,-0.1855 z"
       id="path74809" /><path
       style="fill:#ffffff;stroke-width:1"
       d="m 117.10506,177.02933 c 0.0318,-0.0732 0.0318,-0.19282 0,-0.26597 -0.0551,-0.12659 -0.0594,-0.12659 -0.0897,0 -0.0175,0.0732 -0.0175,0.19283 0,0.26597 0.0303,0.12659 0.0346,0.12659 0.0897,0 z"
       id="path74807" /><path
       style="fill:#729230;fill-opacity:1;stroke-width:1"
       d="m 107.68581,184.25527 c 0.0836,-0.0459 0.21106,-0.15607 0.28327,-0.24467 0.0769,-0.0942 0.13199,-0.29275 0.13301,-0.4782 10e-4,-0.25406 -0.0448,-0.3636 -0.23213,-0.55092 -0.18361,-0.18361 -0.29947,-0.23382 -0.53955,-0.23382 -0.24634,0 -0.35587,0.0502 -0.56408,0.25836 -0.20073,0.20073 -0.25836,0.32111 -0.25836,0.53954 0,0.21843 0.0576,0.33881 0.25836,0.53954 0.19283,0.19283 0.32294,0.25778 0.51295,0.25606 0.14001,-0.001 0.32296,-0.04 0.40654,-0.0859 z"
       id="path74805" /><path
       style="fill:#ffffff;stroke-width:1"
       d="m 117.05153,185.21736 c -8.6e-4,-0.16718 -0.0163,-0.22663 -0.0346,-0.13213 -0.0182,0.0945 -0.0175,0.23131 0.001,0.30395 0.019,0.0726 0.0338,-0.004 0.0331,-0.17186 z"
       id="path74803" /><path
       style="fill:#ffffff;stroke-width:1"
       d="m 106.014,186.39522 c 0.0276,-0.0445 -0.0513,-0.076 -0.18997,-0.076 -0.13855,0 -0.21746,0.0315 -0.18998,0.076 0.0258,0.0419 0.11128,0.076 0.18998,0.076 0.0786,0 0.16415,-0.0341 0.18997,-0.076 z"
       id="path74801" /><path
       style="fill:#ffffff;stroke-width:1"
       d="m 106.84991,186.39522 c 0.0274,-0.0445 -0.0513,-0.076 -0.18997,-0.076 -0.13856,0 -0.21746,0.0315 -0.18998,0.076 0.0258,0.0419 0.11128,0.076 0.18998,0.076 0.0786,0 0.16414,-0.0341 0.18997,-0.076 z"
       id="path74799" /><path
       style="fill:#ffffff;stroke-width:1"
       d="m 107.68581,186.39522 c 0.0274,-0.0443 -0.0499,-0.076 -0.18549,-0.076 -0.1279,0 -0.23246,0.0341 -0.23246,0.076 0,0.0419 0.0834,0.076 0.18548,0.076 0.1021,0 0.20664,-0.0341 0.23247,-0.076 z"
       id="path74797" /><path
       style="fill:#ffffff;stroke-width:1"
       d="m 108.52171,186.39522 c 0.0274,-0.0443 -0.0499,-0.076 -0.1855,-0.076 -0.1279,0 -0.23244,0.0341 -0.23244,0.076 0,0.0419 0.0834,0.076 0.18548,0.076 0.10209,0 0.20664,-0.0341 0.23246,-0.076 z"
       id="path74795" /><path
       style="fill:#ffffff;stroke-width:1"
       d="m 109.35761,186.39522 c 0.0274,-0.0443 -0.0499,-0.076 -0.18549,-0.076 -0.1279,0 -0.23246,0.0341 -0.23246,0.076 0,0.0419 0.0834,0.076 0.1855,0.076 0.10209,0 0.20662,-0.0341 0.23245,-0.076 z"
       id="path74793" /><path
       style="fill:#ffffff;stroke-width:1"
       d="m 110.19352,186.39522 c 0.0274,-0.0443 -0.0499,-0.076 -0.1855,-0.076 -0.12791,0 -0.23247,0.0341 -0.23247,0.076 0,0.0419 0.0834,0.076 0.1855,0.076 0.1021,0 0.20664,-0.0341 0.23247,-0.076 z"
       id="path74791" /><path
       style="fill:#ffffff;stroke-width:1"
       d="m 111.02941,186.39522 c 0.0274,-0.0443 -0.0499,-0.076 -0.18549,-0.076 -0.1279,0 -0.23246,0.0341 -0.23246,0.076 0,0.0419 0.0834,0.076 0.18549,0.076 0.10209,0 0.20663,-0.0341 0.23246,-0.076 z"
       id="path74789" /><path
       style="fill:#ffffff;stroke-width:1"
       d="m 111.82731,186.39522 c 0,-0.0417 -0.10457,-0.076 -0.23245,-0.076 -0.13563,0 -0.21289,0.0316 -0.1855,0.076 0.0258,0.0419 0.13039,0.076 0.23247,0.076 0.10194,0 0.18548,-0.0341 0.18548,-0.076 z"
       id="path74787" /><path
       style="fill:#ffffff;stroke-width:1"
       d="m 112.66322,186.39522 c 0,-0.0417 -0.10457,-0.076 -0.23246,-0.076 -0.13564,0 -0.21289,0.0316 -0.18549,0.076 0.0258,0.0419 0.13039,0.076 0.23245,0.076 0.10209,0 0.1855,-0.0341 0.1855,-0.076 z"
       id="path74785" /><path
       style="fill:#ffffff;stroke-width:1"
       d="m 113.49911,186.39522 c 0,-0.0417 -0.10457,-0.076 -0.23245,-0.076 -0.13563,0 -0.2129,0.0316 -0.1855,0.076 0.0258,0.0419 0.13039,0.076 0.23247,0.076 0.10209,0 0.18548,-0.0341 0.18548,-0.076 z"
       id="path74783" /><path
       style="fill:#ffffff;stroke-width:1"
       d="m 114.33502,186.39522 c 0,-0.0417 -0.10457,-0.076 -0.23246,-0.076 -0.13564,0 -0.21289,0.0316 -0.18549,0.076 0.0258,0.0419 0.13039,0.076 0.23246,0.076 0.1021,0 0.18549,-0.0341 0.18549,-0.076 z"
       id="path74781" /><path
       style="fill:#ffffff;stroke-width:1"
       d="m 115.17093,186.39522 c 0,-0.0417 -0.10457,-0.076 -0.23246,-0.076 -0.13564,0 -0.21291,0.0316 -0.1855,0.076 0.0258,0.0419 0.13038,0.076 0.23246,0.076 0.10209,0 0.1855,-0.0341 0.1855,-0.076 z"
       id="path74779" /><path
       style="fill:#ffffff;stroke-width:1"
       d="m 117.41265,186.6232 c -0.0757,-0.0836 -0.17174,-0.15198 -0.21354,-0.15198 -0.0417,0 -0.0146,0.0684 0.0616,0.15198 0.0757,0.0836 0.17173,0.15197 0.21353,0.15197 0.0419,0 0.0146,-0.0684 -0.0615,-0.15197 z"
       id="path74777" /><path
       style="fill:#729230;fill-opacity:1;stroke-width:1"
       d="m 116.5372,186.99363 c 0.10369,-0.041 0.24767,-0.12805 0.3201,-0.19365 0.0725,-0.0655 0.16938,-0.23343 0.21547,-0.37306 0.0681,-0.20632 0.0597,-0.30489 -0.0454,-0.52609 -0.071,-0.14972 -0.22544,-0.32199 -0.34311,-0.38285 -0.1177,-0.0608 -0.28574,-0.1107 -0.37348,-0.1107 -0.0878,0 -0.25985,0.0519 -0.38245,0.11522 -0.12265,0.0634 -0.27478,0.21558 -0.33818,0.33818 -0.0635,0.12266 -0.11522,0.27929 -0.11522,0.34819 0,0.0688 0.0528,0.23663 0.1174,0.37272 0.0646,0.13607 0.19281,0.28446 0.28496,0.32967 0.0922,0.0452 0.23594,0.099 0.31953,0.11944 0.0836,0.0204 0.23676,0.004 0.3404,-0.0372 z"
       id="path74775" /><path
       style="fill:#ffffff;stroke-width:1"
       d="m 118.05858,187.33066 c 0,-0.0417 -0.0684,-0.13782 -0.15199,-0.21353 -0.0836,-0.0757 -0.15198,-0.1034 -0.15198,-0.0615 0,0.0419 0.0684,0.13782 0.15198,0.21353 0.0836,0.0757 0.15199,0.1034 0.15199,0.0615 z"
       id="path74773" /><path
       style="fill:#ffffff;stroke-width:1"
       d="m 118.6665,187.94006 c 0,-0.0426 -0.0685,-0.13957 -0.15245,-0.21541 -0.0839,-0.0758 -0.16919,-0.1212 -0.18967,-0.10078 -0.0204,0.0204 0.0481,0.1174 0.15245,0.21541 0.10428,0.098 0.18967,0.14337 0.18967,0.10078 z"
       id="path74771" /><path
       style="fill:#ffffff;stroke-width:1"
       d="m 119.14144,188.35621 c -0.0917,-0.0917 -0.18967,-0.1438 -0.21768,-0.1158 -0.028,0.028 -0.007,0.10311 0.0452,0.16676 0.0529,0.0637 0.15083,0.1158 0.2177,0.1158 0.0977,0 0.0888,-0.0327 -0.0452,-0.16676 z"
       id="path74769" /><path
       style="fill:#729230;fill-opacity:1;stroke-width:1"
       d="m 109.66918,188.56856 c 0.20072,-0.20072 0.25836,-0.32109 0.25836,-0.53954 0,-0.21843 -0.0576,-0.33881 -0.25836,-0.53953 -0.18502,-0.18501 -0.32668,-0.25837 -0.49894,-0.25837 -0.13228,0 -0.31527,0.0382 -0.40656,0.0849 -0.0913,0.0467 -0.22506,0.15781 -0.29727,0.24697 -0.0755,0.0932 -0.13126,0.29125 -0.13126,0.46604 0,0.1748 0.0559,0.37284 0.13126,0.46605 0.0722,0.0891 0.20598,0.20029 0.29727,0.24697 0.0913,0.0467 0.27425,0.0849 0.40656,0.0849 0.17226,0 0.31392,-0.0734 0.49894,-0.25838 z"
       id="path74767" /><path
       style="fill:#ffffff;stroke-width:1"
       d="m 119.80636,189.06421 c 0,-0.0366 -0.0521,-0.10996 -0.1158,-0.16282 -0.0637,-0.0528 -0.13695,-0.075 -0.1628,-0.0491 -0.0258,0.0258 -0.004,0.0992 0.0491,0.16283 0.0528,0.0637 0.12615,0.1158 0.1628,0.1158 0.0368,0 0.0666,-0.03 0.0666,-0.0667 z"
       id="path74765" /><path
       style="fill:#ffffff;stroke-width:1"
       d="m 120.4143,189.6746 c 0,-0.0353 -0.0684,-0.12615 -0.15198,-0.20174 -0.12062,-0.10924 -0.15199,-0.11478 -0.15199,-0.027 0,0.0608 0.041,0.15159 0.0912,0.20174 0.0502,0.0502 0.11857,0.0912 0.15198,0.0912 0.0334,0 0.0608,-0.0289 0.0608,-0.0642 z"
       id="path74763" /><path
       style="fill:#ffffff;stroke-width:1"
       d="m 121.02223,190.28254 c 0,-0.0353 -0.0686,-0.1263 -0.15246,-0.20218 -0.0839,-0.0758 -0.17482,-0.11566 -0.20217,-0.0882 -0.0274,0.0274 0.0117,0.11828 0.0882,0.20219 0.0758,0.0839 0.16685,0.15245 0.20217,0.15245 0.0353,0 0.0642,-0.0289 0.0642,-0.0642 z"
       id="path74761" /><path
       style="fill:#ffffff;stroke-width:1"
       d="m 121.49717,190.71192 c -0.0917,-0.0917 -0.18969,-0.1438 -0.21769,-0.1158 -0.028,0.028 -0.007,0.10311 0.0452,0.16676 0.0528,0.0637 0.15084,0.1158 0.21769,0.1158 0.0977,0 0.0888,-0.0327 -0.0452,-0.16677 z"
       id="path74759" /><path
       style="fill:#ffffff;stroke-width:1"
       d="m 122.16209,191.41993 c 0,-0.0366 -0.0521,-0.10997 -0.1158,-0.16281 -0.0637,-0.0528 -0.13695,-0.075 -0.16281,-0.0491 -0.0258,0.0258 -0.004,0.099 0.0491,0.16281 0.0528,0.0637 0.12616,0.1158 0.16282,0.1158 0.0366,0 0.0667,-0.0301 0.0667,-0.0667 z"
       id="path74757" /><path
       style="fill:#ffffff;stroke-width:1"
       d="m 122.77001,192.03033 c 0,-0.0353 -0.0684,-0.12616 -0.15198,-0.20175 -0.12062,-0.10924 -0.15197,-0.11478 -0.15197,-0.027 0,0.0608 0.041,0.15161 0.0911,0.20176 0.0502,0.0502 0.11857,0.0911 0.15198,0.0911 0.0334,0 0.0608,-0.0289 0.0608,-0.0642 z"
       id="path74755" /><path
       style="fill:#ffffff;stroke-width:1"
       d="m 148.13452,184.22486 c 0.0932,-0.0652 0.22345,-0.22326 0.28961,-0.35118 0.0763,-0.14752 0.10355,-0.32165 0.0747,-0.47602 -0.0251,-0.13389 -0.13928,-0.33247 -0.2537,-0.4413 -0.11449,-0.1088 -0.29485,-0.2193 -0.40097,-0.2455 -0.10617,-0.0263 -0.28696,-0.0117 -0.40187,0.0318 -0.11493,0.0436 -0.29309,0.17025 -0.39598,0.28127 -0.12033,0.1298 -0.18707,0.29146 -0.18707,0.45314 0,0.13826 0.0408,0.34097 0.0909,0.45056 0.0499,0.10953 0.18501,0.24798 0.30017,0.30754 0.11522,0.0595 0.32319,0.10822 0.46224,0.10822 0.13899,0 0.32904,-0.0534 0.42216,-0.11857 z"
       id="path74753" /><path
       style="fill:#729230;fill-opacity:1;stroke-width:1"
       d="m 141.73367,185.21345 c 0.12747,-0.063 0.28995,-0.21277 0.36095,-0.33296 0.071,-0.12018 0.12907,-0.31676 0.12907,-0.43685 0,-0.12003 -0.0583,-0.30289 -0.12951,-0.40623 -0.0712,-0.10341 -0.18236,-0.22901 -0.24697,-0.27928 -0.0646,-0.0503 -0.20992,-0.11245 -0.32289,-0.13826 -0.12251,-0.028 -0.30786,0.001 -0.45929,0.0737 -0.13957,0.0662 -0.31221,0.21923 -0.38351,0.33993 -0.0713,0.12076 -0.12966,0.31151 -0.12966,0.424 0,0.11245 0.0583,0.30329 0.12966,0.424 0.0713,0.12076 0.2389,0.27132 0.37244,0.33469 0.13359,0.0634 0.28892,0.11448 0.3453,0.11346 0.0564,-8.6e-4 0.20684,-0.0532 0.33438,-0.11609 z"
       id="path74751" /><path
       style="fill:#ffffff;stroke-width:1"
       d="m 133.77223,186.04865 c 0.0932,-0.0652 0.22042,-0.21741 0.28288,-0.33819 0.0624,-0.12076 0.11362,-0.27595 0.11362,-0.34486 0,-0.0688 -0.0559,-0.24308 -0.12426,-0.38707 -0.0684,-0.14395 -0.22051,-0.31159 -0.33819,-0.37245 -0.11769,-0.0608 -0.28574,-0.11069 -0.37348,-0.11069 -0.0878,0 -0.25983,0.0519 -0.38244,0.11521 -0.12266,0.0634 -0.27479,0.21559 -0.33819,0.33819 -0.0634,0.12265 -0.11522,0.33061 -0.11522,0.46225 0,0.17089 0.0739,0.31326 0.25837,0.49773 0.20498,0.20498 0.31925,0.25836 0.55303,0.25836 0.16206,0 0.37085,-0.0534 0.46397,-0.11857 z"
       id="path74749" /><path
       style="fill:#729230;fill-opacity:1;stroke-width:1"
       d="m 146.22173,187.91655 c 0.0882,-0.0357 0.2336,-0.15779 0.32296,-0.27139 0.10398,-0.13213 0.16248,-0.31514 0.16248,-0.50787 0,-0.24136 -0.0515,-0.35274 -0.25836,-0.5597 -0.18447,-0.18445 -0.32685,-0.25836 -0.49773,-0.25836 -0.13169,0 -0.33561,0.0497 -0.45329,0.1107 -0.1177,0.0608 -0.26986,0.22845 -0.33819,0.37244 -0.0684,0.14395 -0.12426,0.30276 -0.12426,0.35281 0,0.05 0.0559,0.20884 0.12426,0.35283 0.0683,0.14395 0.22052,0.3116 0.33819,0.37244 0.11769,0.0608 0.29259,0.10851 0.3887,0.10589 0.0961,-0.003 0.24697,-0.034 0.33524,-0.0697 z"
       id="path74747" /><path
       style="fill:#ffffff;stroke-width:1"
       d="m 151.66463,187.87205 c 0.11434,-0.0621 0.25973,-0.21291 0.32296,-0.33515 0.0632,-0.12222 0.11492,-0.29406 0.11492,-0.38181 0,-0.0878 -0.051,-0.25833 -0.11361,-0.37911 -0.0624,-0.12076 -0.18974,-0.27296 -0.28288,-0.33818 -0.093,-0.0652 -0.26599,-0.11857 -0.38415,-0.11857 -0.11814,0 -0.31516,0.0519 -0.43775,0.11521 -0.12266,0.0634 -0.27479,0.21558 -0.33819,0.33819 -0.0634,0.12265 -0.11522,0.29469 -0.11522,0.38243 0,0.0878 0.0519,0.25985 0.11522,0.38245 0.0634,0.12265 0.21559,0.27478 0.33819,0.33818 0.12265,0.0634 0.30154,0.11391 0.39766,0.1123 0.0961,-0.001 0.26836,-0.0538 0.38278,-0.11594 z"
       id="path74745" /><path
       style="fill:#729230;fill-opacity:1;stroke-width:1"
       d="m 139.08539,188.75398 c 0.13374,-0.0815 0.29998,-0.25798 0.36928,-0.39201 0.10311,-0.19933 0.11084,-0.29448 0.0423,-0.52293 -0.0461,-0.15359 -0.14764,-0.33715 -0.22583,-0.40791 -0.0782,-0.0707 -0.24092,-0.15462 -0.36162,-0.18637 -0.12061,-0.0318 -0.29609,-0.0455 -0.38977,-0.0305 -0.0936,0.015 -0.26891,0.12587 -0.38939,0.24628 -0.12047,0.12046 -0.23493,0.30217 -0.25435,0.40375 -0.0194,0.10166 0.001,0.29872 0.0474,0.43805 0.0472,0.14467 0.19342,0.32777 0.34094,0.42694 0.14205,0.0955 0.33009,0.17348 0.41794,0.17332 0.0878,-1.4e-4 0.26922,-0.0671 0.40303,-0.14861 z"
       id="path74743" /><path
       style="fill:#729230;fill-opacity:1;stroke-width:1"
       d="m 143.65106,190.53208 c 0.0932,-0.0652 0.22375,-0.22385 0.29027,-0.35248 0.0766,-0.14808 0.10384,-0.31963 0.0742,-0.46758 -0.0257,-0.12849 -0.13768,-0.32856 -0.24868,-0.44447 -0.11099,-0.11595 -0.31148,-0.23133 -0.44537,-0.25646 -0.15437,-0.029 -0.3285,-0.001 -0.47602,0.0747 -0.12791,0.0662 -0.28596,0.19646 -0.35118,0.2896 -0.0652,0.0932 -0.11857,0.31297 -0.11857,0.48853 0,0.25513 0.047,0.36615 0.23382,0.55302 0.18687,0.18688 0.29788,0.23382 0.55301,0.23382 0.17557,0 0.39541,-0.0534 0.48854,-0.11858 z"
       id="path74741" /><path
       style="fill:#729230;fill-opacity:1;stroke-width:1"
       d="m 155.44028,190.41686 c 0.18689,-0.18687 0.23382,-0.29789 0.23382,-0.55301 0,-0.17557 -0.0534,-0.39542 -0.11857,-0.48854 -0.0652,-0.0932 -0.22326,-0.22345 -0.3512,-0.2896 -0.1475,-0.0763 -0.32163,-0.10355 -0.476,-0.0747 -0.13389,0.0251 -0.33431,0.1406 -0.44537,0.25646 -0.11113,0.11594 -0.22297,0.31594 -0.24868,0.44447 -0.0296,0.14795 -0.003,0.31951 0.0742,0.46758 0.0665,0.12864 0.19714,0.28726 0.29028,0.35248 0.0932,0.0652 0.31296,0.11857 0.48852,0.11857 0.25512,0 0.36615,-0.047 0.55303,-0.23382 z"
       id="path74739" /><path
       style="fill:#ffffff;stroke-width:1"
       d="m 137.26482,191.4844 c 0.0938,-0.0378 0.23898,-0.18088 0.32268,-0.31815 0.0837,-0.13724 0.1523,-0.32824 0.15245,-0.42435 1.6e-4,-0.0961 -0.0516,-0.27507 -0.11493,-0.39767 -0.0634,-0.12266 -0.21558,-0.27479 -0.33818,-0.33819 -0.12266,-0.0634 -0.29471,-0.11521 -0.38245,-0.11521 -0.0878,0 -0.25984,0.0519 -0.38243,0.11521 -0.12266,0.0634 -0.27479,0.21559 -0.33819,0.33819 -0.0634,0.12265 -0.11521,0.30155 -0.11507,0.39767 1.6e-4,0.0961 0.0686,0.28673 0.15203,0.42361 0.0834,0.13695 0.23942,0.28221 0.34661,0.32297 0.1072,0.0407 0.26961,0.0719 0.36093,0.0693 0.0913,-0.003 0.24275,-0.0357 0.33653,-0.0734 z"
       id="path74737" /><path
       style="fill:#ffffff;stroke-width:1"
       d="m 139.93657,191.61653 c 0.22581,-0.17593 0.44751,-0.37908 0.49266,-0.45144 0.062,-0.0995 0.0544,-0.15925 -0.0312,-0.24491 -0.0623,-0.0623 -0.40371,-0.22767 -0.75861,-0.36742 -0.44466,-0.17509 -0.9524,-0.47322 -1.63316,-0.95896 -0.54333,-0.38768 -1.12025,-0.82996 -1.28202,-0.98283 -0.16179,-0.15289 -0.39261,-0.41133 -0.51295,-0.57434 -0.15931,-0.21579 -0.2188,-0.38316 -0.2188,-0.61558 0,-0.17558 0.0391,-0.43546 0.0869,-0.57753 0.0478,-0.14205 0.24356,-0.49768 0.43508,-0.79026 0.19152,-0.29256 0.67392,-0.85788 1.07199,-1.25629 0.39808,-0.39839 1.01445,-0.91619 1.3697,-1.15067 0.35526,-0.23447 0.92965,-0.56797 1.27643,-0.74112 0.34677,-0.17313 0.9452,-0.42135 1.32984,-0.55157 0.48423,-0.16394 0.8551,-0.23908 1.20574,-0.24432 0.43009,-0.006 0.53455,0.0188 0.69326,0.16761 0.10282,0.0964 0.24124,0.3015 0.30771,0.45594 0.0665,0.15443 0.22796,0.56488 0.35884,0.91211 0.15381,0.40804 0.3362,0.73428 0.51572,0.92248 0.15966,0.16735 0.40699,0.32845 0.58171,0.37884 0.16719,0.0483 0.73142,0.13666 1.25386,0.19669 0.52243,0.0599 1.05247,0.13053 1.17785,0.15697 0.12543,0.0264 0.35075,0.1158 0.50079,0.19883 0.15005,0.083 0.32634,0.2417 0.39178,0.3527 0.0655,0.11099 0.15639,0.40472 0.20213,0.65271 0.0458,0.24801 0.0834,0.64125 0.0837,0.8739 3.1e-4,0.23265 0.036,0.64128 0.0793,0.90807 0.0433,0.26681 0.12922,0.58278 0.19097,0.70219 0.0617,0.11944 0.23979,0.28159 0.39566,0.36044 0.15587,0.0789 0.46462,0.18178 0.6861,0.22872 0.22148,0.047 0.59053,0.0853 0.8201,0.0853 0.22957,0 0.67074,-0.0523 0.98033,-0.11623 0.30962,-0.0639 0.68786,-0.16847 0.84056,-0.23228 0.15269,-0.0637 0.44705,-0.27448 0.65412,-0.46816 0.20707,-0.19369 0.4916,-0.55937 0.63229,-0.8126 0.14074,-0.25324 0.3481,-0.69273 0.46094,-0.97665 0.11289,-0.28391 0.18463,-0.53673 0.15956,-0.56181 -0.0251,-0.0251 -0.0681,0.0191 -0.0958,0.0983 -0.0276,0.079 -0.21789,0.49669 -0.42291,0.92793 -0.20705,0.4355 -0.51009,0.93302 -0.68169,1.11919 -0.16991,0.18433 -0.4848,0.4182 -0.69975,0.5197 -0.21494,0.10151 -0.59372,0.22195 -0.84171,0.26764 -0.24799,0.0457 -0.68232,0.0831 -0.96514,0.0831 -0.28283,0 -0.69546,-0.0385 -0.91694,-0.0856 -0.22148,-0.047 -0.49724,-0.15232 -0.61281,-0.23396 -0.11551,-0.0817 -0.2617,-0.24818 -0.32475,-0.37009 -0.0697,-0.13491 -0.14366,-0.61611 -0.18862,-1.22888 -0.0407,-0.55394 -0.11245,-1.1726 -0.15936,-1.37477 -0.0562,-0.24202 -0.17331,-0.45553 -0.34275,-0.62497 -0.16056,-0.16058 -0.40723,-0.30009 -0.65575,-0.37092 -0.2191,-0.0624 -0.77454,-0.14989 -1.23428,-0.19433 -0.45975,-0.0445 -1.00688,-0.12981 -1.21585,-0.18979 -0.20898,-0.0599 -0.45735,-0.16373 -0.55195,-0.2306 -0.0947,-0.0669 -0.23844,-0.25183 -0.31965,-0.41099 -0.0812,-0.15917 -0.26695,-0.60646 -0.41279,-0.99398 -0.16544,-0.43957 -0.35627,-0.79858 -0.50735,-0.95446 -0.15454,-0.15945 -0.34703,-0.26759 -0.53187,-0.29882 -0.19168,-0.0324 -0.51565,0.007 -0.95766,0.11843 -0.36738,0.092 -0.97077,0.29867 -1.34086,0.45921 -0.37008,0.16051 -0.88591,0.41096 -1.14625,0.55655 -0.26034,0.14556 -0.69326,0.42609 -0.96205,0.62333 -0.2688,0.19722 -0.72304,0.58371 -1.00942,0.85886 -0.2864,0.27515 -0.68365,0.70545 -0.88279,0.95623 -0.19912,0.25077 -0.47036,0.64886 -0.60274,0.88465 -0.13418,0.23894 -0.26031,0.59419 -0.28498,0.80253 -0.0346,0.29215 -0.009,0.44242 0.11594,0.68792 0.0881,0.17276 0.33259,0.48645 0.54322,0.69707 0.21064,0.21063 0.79994,0.67958 1.30956,1.04211 0.50963,0.36252 1.13263,0.75139 1.38445,0.86414 0.2518,0.11274 0.60317,0.26643 0.78079,0.34151 0.17764,0.0751 0.32297,0.18143 0.32297,0.23633 0,0.055 -0.20517,0.24452 -0.45595,0.42137 -0.25076,0.17685 -0.45594,0.34901 -0.45594,0.38258 0,0.0335 0.0257,0.0596 0.057,0.0579 0.0314,-0.001 0.24173,-0.14703 0.46753,-0.32296 z"
       id="path74735" /><path
       style="fill:#ffffff;stroke-width:1"
       d="m 161.04872,192.60749 c -0.0204,-0.0522 -1.99526,-2.70243 -4.38865,-5.88929 l -4.35165,-5.79432 h -7.74432 -7.7443 l -0.15742,-0.36095 c -0.0866,-0.19854 -0.30372,-0.56776 -0.48252,-0.82051 -0.1788,-0.25274 -0.54521,-0.66544 -0.81423,-0.9171 -0.26903,-0.25167 -0.72534,-0.61372 -1.01403,-0.80459 -0.2887,-0.19085 -0.79847,-0.48374 -1.13282,-0.65085 -0.33436,-0.16712 -0.9157,-0.40652 -1.29184,-0.53202 -0.37617,-0.12558 -0.9575,-0.29193 -1.29185,-0.36982 -0.49663,-0.11566 -0.90708,-0.14103 -2.24175,-0.13812 -1.34542,0.003 -1.80337,0.0335 -2.59454,0.17382 -0.52841,0.0938 -1.26362,0.25416 -1.6338,0.35658 -0.37018,0.10238 -0.69871,0.18662 -0.73007,0.18713 -0.0314,5.8e-4 -0.057,-0.5891 -0.057,-1.31025 v -1.3112 l -3.021,-3.02028 -3.02099,-3.02028 -9.15656,-2e-5 h -9.156557 l 0.0197,8.90552 c 0.0117,5.46179 -0.007,8.93303 -0.0515,8.97669 -0.0442,0.0442 -0.0376,0.13213 0.0174,0.2324 0.0487,0.0887 1.439527,1.52052 3.090827,3.18187 l 3.00235,3.02064 h 9.13827 9.13827 v -7.74569 -7.74569 l 0.43695,-0.12863 c 0.24032,-0.0707 0.82764,-0.20874 1.30515,-0.30657 0.47751,-0.0979 1.20826,-0.21741 1.62391,-0.26573 0.45229,-0.0526 1.30888,-0.0722 2.13344,-0.0489 1.13588,0.0321 1.51114,0.0728 2.13764,0.23159 0.41796,0.10603 1.09019,0.32773 1.49387,0.49278 0.40367,0.16507 1.0192,0.47302 1.36784,0.68432 0.34864,0.2113 0.86496,0.5755 1.14739,0.80935 0.28242,0.23383 0.66801,0.62083 0.85685,0.85997 0.18884,0.23914 0.4466,0.63998 0.5728,0.89074 l 0.22946,0.45596 -5.36696,0.0195 c -2.95184,0.0102 -5.35565,0.0489 -5.34181,0.0847 0.0131,0.0359 1.99126,2.68583 4.39425,5.88878 l 4.3691,5.82356 h 13.17392 c 10.50822,0 13.16646,-0.0193 13.13694,-0.095 z m -30.56073,-5.77531 -4.28911,-5.71832 5.25088,-0.0195 c 2.88799,-0.0102 5.26238,-0.009 5.27641,0.006 0.0146,0.0146 0.0474,0.18527 0.0742,0.38048 0.04,0.29164 0.0276,0.35495 -0.0699,0.35495 -0.0652,0 -0.22253,0.0875 -0.3497,0.19456 -0.13928,0.11726 -0.2508,0.29894 -0.28049,0.45722 -0.029,0.15495 -0.009,0.35931 0.0483,0.49834 0.0537,0.12966 0.20295,0.29992 0.33167,0.37841 0.12878,0.0785 0.31952,0.14263 0.424,0.14263 0.10457,0 0.29529,-0.0642 0.42401,-0.14263 0.12878,-0.0785 0.27795,-0.24877 0.33165,-0.37841 0.0576,-0.13899 0.0774,-0.34339 0.0484,-0.49834 -0.0298,-0.15828 -0.14117,-0.33997 -0.2805,-0.45722 -0.12718,-0.10705 -0.27989,-0.19456 -0.33936,-0.19456 -0.0595,0 -0.10968,-0.0257 -0.11143,-0.057 -0.001,-0.0314 -0.0314,-0.20232 -0.0658,-0.37995 l -0.0624,-0.32296 7.72189,0.003 7.72187,0.003 4.2175,5.63005 c 2.31961,3.09652 4.24484,5.67684 4.27826,5.73406 0.0513,0.0878 -1.96432,0.10398 -12.9752,0.10398 h -13.03598 z m -25.27151,0.11398 c 2.9e-4,-5.60434 2.9e-4,-5.60434 0.17098,-5.40219 0.15711,0.18617 0.621,0.31153 5.86992,1.58618 3.13464,0.76121 5.71009,1.41207 5.72323,1.44637 0.0131,0.0343 0.0659,0.0462 0.11741,0.0265 0.0515,-0.0197 1.4224,0.29029 3.04663,0.68896 1.62423,0.39865 2.96816,0.70981 2.9865,0.69145 0.0184,-0.0184 -1.32004,-1.82252 -2.97419,-4.00928 -2.21332,-2.92594 -3.00793,-4.02992 -3.00892,-4.18042 -8.6e-4,-0.11245 -0.0356,-0.22562 -0.0773,-0.25145 -0.0419,-0.0258 -0.076,0.009 -0.076,0.0766 0,0.0818 -0.0449,0.1104 -0.13301,0.0847 -0.0732,-0.0214 -1.14176,-0.28292 -2.37472,-0.58119 -1.23295,-0.29825 -2.27422,-0.5737 -2.31392,-0.61212 -0.0397,-0.0385 -0.17649,-0.0713 -0.30397,-0.0731 -0.12747,-0.001 -1.668,-0.35345 -3.4234,-0.78149 -2.95732,-0.72113 -3.19339,-0.79062 -3.2159,-0.94662 -0.0242,-0.16836 -0.0242,-0.16836 8.98594,-0.16747 l 9.01022,8.6e-4 v 1.29256 c 0,1.29255 0,1.29255 -0.20899,1.3783 -0.11492,0.0471 -0.51674,0.23168 -0.89289,0.41003 -0.37616,0.17834 -0.82981,0.44993 -1.00813,0.60352 -0.29771,0.25644 -0.34346,0.27255 -0.55969,0.19718 -0.23547,-0.0821 -0.23547,-0.0821 -0.183,0.40799 0.0525,0.49008 0.0525,0.49008 -0.18188,0.37317 -0.14751,-0.0736 -0.31784,-0.0986 -0.45961,-0.0675 -0.12382,0.0273 -0.31169,0.15218 -0.41729,0.27771 -0.13258,0.15752 -0.19204,0.31875 -0.19204,0.52052 0,0.20174 0.0595,0.36299 0.19204,0.52051 0.10559,0.12558 0.29208,0.2502 0.41439,0.27707 0.14088,0.0309 0.31902,0.003 0.48601,-0.0763 0.15449,-0.0734 0.31327,-0.22969 0.38351,-0.3777 0.0659,-0.13884 0.11959,-0.2987 0.11945,-0.35508 -2.2e-4,-0.0563 -0.0543,-0.20509 -0.12003,-0.33047 -0.1196,-0.22797 -0.1196,-0.22797 0.23899,-0.55383 0.3332,-0.30278 0.34885,-0.33302 0.22067,-0.42676 -0.12776,-0.0935 -0.11318,-0.11901 0.1984,-0.34626 0.18502,-0.13491 0.57443,-0.36588 0.86536,-0.51317 0.29093,-0.14727 0.65853,-0.31349 0.8169,-0.36937 0.28794,-0.10165 0.28794,-0.10165 0.28794,7.45375 0,7.03298 -0.009,7.55198 -0.12717,7.50655 -0.0964,-0.037 -0.11537,-0.0179 -0.0783,0.0783 0.0455,0.11842 -0.56272,0.12717 -8.87777,0.12717 h -8.92654 l 2.9e-4,-5.60433 z m -6.079687,-0.49358 c 0,-0.0315 0.077,-0.062 0.17099,-0.0677 0.17098,-0.0102 0.17098,-0.0102 0,-0.0433 -0.17099,-0.033 -0.17099,-0.033 -0.17099,-8.89946 v -8.86655 l 2.970517,2.9705 c 2.21889,2.21891 2.96396,3.00861 2.94465,3.12109 -0.0245,0.14249 -0.17322,0.11449 -2.76154,-0.51899 -1.50462,-0.36826 -2.793537,-0.66142 -2.864237,-0.65149 -0.0931,0.0131 0.39655,0.71146 1.768627,2.52317 1.30911,1.7286 1.88103,2.54124 1.84506,2.62169 -0.0287,0.0642 -0.0669,0.24069 -0.0849,0.3924 -0.0267,0.22512 0.009,0.32247 0.19412,0.52978 0.19202,0.2149 0.28044,0.25498 0.57476,0.2605 0.34595,0.006 0.35053,0.0102 0.84406,0.66441 l 0.49622,0.65788 v 2.58107 c 0,2.58107 0,2.58107 -0.17097,2.6147 -0.17099,0.0337 -0.17099,0.0337 0,0.0901 0.17097,0.0564 0.17097,0.0564 0.17097,3.02992 v 2.97342 l -2.96365,-2.96292 c -1.63,-1.62961 -2.963647,-2.98873 -2.963647,-3.02028 z m 6.079287,-8.38346 c 0,-2.90091 0.007,-3.08032 0.13301,-3.04175 0.0732,0.0226 1.05627,0.26579 2.18473,0.5405 1.12847,0.27473 2.41083,0.58481 2.84967,0.68906 0.43885,0.10428 0.8404,0.20412 0.89237,0.22193 0.0661,0.0226 0.0375,0.11624 -0.0949,0.31155 -0.10413,0.15355 -0.18945,0.34449 -0.18945,0.42432 0,0.0798 0.051,0.24397 0.11361,0.36473 0.0624,0.12076 0.18975,0.27296 0.28288,0.3382 0.0932,0.0652 0.29388,0.11857 0.44613,0.11857 0.16245,0 0.35724,-0.0633 0.47153,-0.15316 0.10705,-0.0843 0.23243,-0.2674 0.2785,-0.40701 0.0576,-0.17437 0.0598,-0.31672 0.007,-0.45476 -0.042,-0.11055 -0.0516,-0.20223 -0.0213,-0.20383 0.0303,-10e-4 1.00916,0.22854 2.17521,0.5114 l 2.12012,0.51431 0.88603,1.1794 c 0.48733,0.64867 1.02794,1.37266 1.20138,1.60888 l 0.31533,0.42947 -1.05107,0.0102 c -1.01465,0.0102 -1.05254,0.004 -1.09363,-0.15216 -0.0235,-0.09 -0.0789,-0.1403 -0.12368,-0.11259 -0.0446,0.0276 -0.0811,0.10078 -0.0811,0.16264 0,0.0967 -0.27241,0.11099 -1.93875,0.10166 -1.93877,-0.0102 -1.93877,-0.0102 -1.7098,-0.27162 0.14632,-0.16666 0.22896,-0.34345 0.22896,-0.48988 0,-0.12601 -0.0519,-0.3294 -0.11522,-0.45202 -0.0634,-0.12265 -0.22144,-0.2778 -0.35118,-0.3449 -0.15047,-0.0779 -0.32409,-0.10545 -0.47935,-0.0763 -0.13388,0.0251 -0.33246,0.13928 -0.44129,0.2537 -0.1088,0.11448 -0.22039,0.29917 -0.24791,0.41056 -0.0311,0.12558 -0.003,0.30189 0.0741,0.46395 0.0682,0.1438 0.2135,0.3091 0.32286,0.3674 0.18163,0.0968 0.11405,0.10953 -0.78236,0.14746 -0.53962,0.0228 -2.16947,0.0484 -3.62184,0.057 l -2.64068,0.0154 z m -0.96214,1.73616 c -0.0222,-0.051 0.0313,-0.18386 0.11886,-0.29522 0.0875,-0.11128 0.15925,-0.30213 0.15925,-0.42395 0,-0.12178 -0.0484,-0.31505 -0.10749,-0.4294 -0.0591,-0.11434 -0.19278,-0.25352 -0.29701,-0.3093 -0.10428,-0.0557 -0.30378,-0.0855 -0.44344,-0.0659 -0.13972,0.0196 -0.31043,0.0602 -0.37952,0.0904 -0.0995,0.0435 -0.49905,-0.43891 -1.91993,-2.31766 -0.98687,-1.3049 -1.784837,-2.38201 -1.773287,-2.39356 0.0117,-0.0117 1.243137,0.2754 2.736827,0.63769 l 2.7158,0.65874 v 2.95908 2.9591 l -0.38485,-0.48865 c -0.21167,-0.26875 -0.40302,-0.53038 -0.42523,-0.5814 z m 12.84644,-5.54957 c -0.0961,-0.12659 -0.10107,-0.12659 -0.10341,0 -0.003,0.12542 -0.33537,0.13301 -5.91108,0.13301 h -5.90865 l -2.96292,-2.96365 -2.962917,-2.96365 h 8.871567 c 8.87158,0 8.87158,0 8.87158,0.20517 0,0.1247 0.027,0.17687 0.0687,0.13302 0.0378,-0.0397 0.0805,-0.13258 0.0949,-0.20643 0.0188,-0.0958 0.87437,0.71423 2.98965,2.83066 l 2.96329,2.96491 h -2.9549 c -2.72508,0 -2.96276,-0.0102 -3.05587,-0.13301 z"
       id="path74733" /></g></svg>
