<?xml version="1.0" encoding="UTF-8" standalone="no"?>
<!-- Created with Inkscape (http://www.inkscape.org/) -->

<svg
   width="143.62196mm"
   height="174.03577mm"
   viewBox="0 0 143.62196 174.03577"
   version="1.1"
   id="svg5"
   xml:space="preserve"
   inkscape:version="1.2.2 (b0a84865, 2022-12-01)"
   sodipodi:docname="the-flower.svg"
   xmlns:inkscape="http://www.inkscape.org/namespaces/inkscape"
   xmlns:sodipodi="http://sodipodi.sourceforge.net/DTD/sodipodi-0.dtd"
   xmlns="http://www.w3.org/2000/svg"
   xmlns:svg="http://www.w3.org/2000/svg"><sodipodi:namedview
     id="namedview7"
     pagecolor="#ffffff"
     bordercolor="#000000"
     borderopacity="0.25"
     inkscape:showpageshadow="2"
     inkscape:pageopacity="0.0"
     inkscape:pagecheckerboard="0"
     inkscape:deskcolor="#d1d1d1"
     inkscape:document-units="mm"
     showgrid="false"
     inkscape:zoom="0.2102413"
     inkscape:cx="-420.94488"
     inkscape:cy="397.16269"
     inkscape:window-width="1512"
     inkscape:window-height="945"
     inkscape:window-x="0"
     inkscape:window-y="37"
     inkscape:window-maximized="0"
     inkscape:current-layer="layer1" /><defs
     id="defs2" /><g
     inkscape:label="Layer 1"
     inkscape:groupmode="layer"
     id="layer1"
     transform="translate(-38.934777,-57.482786)"><text
       xml:space="preserve"
       style="font-style:normal;font-variant:normal;font-weight:normal;font-stretch:normal;font-size:173.329px;font-family:'Bodoni 72';-inkscape-font-specification:'Bodoni 72, Normal';font-variant-ligatures:normal;font-variant-caps:normal;font-variant-numeric:normal;font-variant-east-asian:normal;text-align:center;text-anchor:middle;fill:#000000;fill-rule:evenodd;stroke:none;stroke-width:1;stroke-linecap:round;stroke-linejoin:round;paint-order:markers fill stroke"
       x="90.610085"
       y="161.83894"
       id="text236"><tspan
         sodipodi:role="line"
         id="tspan234"
         style="font-style:normal;font-variant:normal;font-weight:normal;font-stretch:normal;font-size:173.329px;font-family:'Bodoni 72';-inkscape-font-specification:'Bodoni 72, Normal';font-variant-ligatures:normal;font-variant-caps:normal;font-variant-numeric:normal;font-variant-east-asian:normal;fill:#000000;stroke:none;stroke-width:1"
         x="90.610085"
         y="161.83894" /></text><path
       style="fill:#000000;stroke-width:1"
       d="m 111.79615,230.87518 c -1.73261,-2.80341 -5.24032,-27.97464 -5.24032,-37.60438 0,-11.38258 -6.19785,-17.04378 -26.69069,-24.3795 -6.01068,-2.15164 -12.767369,-5.06851 -15.014861,-6.48198 -7.552141,-4.74962 -14.61787,-12.28768 -19.203309,-20.48697 -2.84962,-5.09545 -7.480464,-17.29478 -6.603455,-17.3959 2.998221,-0.34566 10.222579,0.47007 15.012375,1.6951 8.056788,2.06058 13.872317,5.35068 22.54746,12.75612 4.05878,3.46471 9.54975,7.36905 12.20214,8.67628 4.81177,2.37148 15.00713,4.48337 17.33376,3.59056 0.98118,-0.37653 1.20861,-2.08836 1.20861,-9.09672 v -8.6329 l -3.26126,-0.43744 c -4.93584,-0.66202 -12.86554,-4.9306 -18.01356,-9.69677 -7.57243,-7.01075 -11.99857,-17.22231 -11.98107,-27.641577 0.0248,-14.703938 8.08086,-27.851941 20.90905,-34.124437 10.74094,-5.251891 22.44259,-5.50547 32.91035,-0.713172 20.62414,9.442047 28.62467,34.127159 17.43645,53.799106 -4.65897,8.19172 -15.96182,16.72782 -24.19489,18.27237 l -2.71663,0.50965 v 8.62419 8.62419 l 4.15816,-0.009 c 8.68508,-0.0209 17.49836,-3.60169 27.12705,-11.02543 7.42083,-5.72151 18.18281,-11.19564 26.47789,-13.46816 3.23682,-0.88676 6.03077,-1.46663 6.2088,-1.28861 0.77313,0.77316 -1.63943,12.29647 -3.36461,16.07044 -4.18647,9.15841 -10.9382,14.69876 -23.97155,19.67064 -16.66136,6.35589 -25.87265,13.09442 -29.8792,21.85814 -4.24145,9.27752 -6.81742,22.56224 -7.99997,41.25726 l -0.48847,7.72228 h -2.25543 c -1.24049,0 -2.43426,-0.28917 -2.65282,-0.64298 z M 122.1141,114.67267 c 15.53785,-7.60197 15.52677,-30.089216 -0.0189,-38.213553 -5.79854,-3.030382 -14.19193,-3.030382 -19.99045,0 -9.5481,4.98996 -13.89482,16.282226 -10.24713,26.620893 4.28693,12.15047 18.21157,17.48564 30.25639,11.59266 z"
       id="path414" /></g></svg>
